<svg width="73" height="66" viewBox="0 0 73 66" fill="none" xmlns="http://www.w3.org/2000/svg">
<path d="M36.4414 0.84419C39.1019 0.84419 41.6534 1.92131 43.5346 3.8386C45.4159 5.7559 46.4727 8.3563 46.4727 11.0678C46.4727 13.7792 45.4159 16.3796 43.5346 18.2969C41.6534 20.2142 39.1019 21.2913 36.4414 21.2913C33.7804 21.2913 31.2283 20.214 29.3467 18.2962C27.465 16.3785 26.4079 13.7775 26.4079 11.0655C26.4079 8.3534 27.465 5.75241 29.3467 3.83469C31.2283 1.91696 33.7804 0.8396 36.4414 0.8396V0.84419ZM36.4414 5.43493C34.9756 5.43493 33.5698 6.02838 32.5333 7.08475C31.4968 8.14111 30.9146 9.57384 30.9146 11.0678C30.9146 12.5617 31.4968 13.9944 32.5333 15.0508C33.5698 16.1071 34.9756 16.7006 36.4414 16.7006C37.9079 16.7006 39.3142 16.1069 40.3511 15.0501C41.3881 13.9933 41.9706 12.56 41.9706 11.0655C41.9706 9.57094 41.3881 8.13762 40.3511 7.08083C39.3142 6.02404 37.9079 5.43034 36.4414 5.43034V5.43493ZM5.04131 39.9114C5.04131 40.5201 4.80402 41.104 4.38165 41.5344C3.95929 41.9649 3.38643 42.2067 2.78911 42.2067C2.19179 42.2067 1.61894 41.9649 1.19657 41.5344C0.774198 41.104 0.536914 40.5201 0.536914 39.9114V28.4988C0.53706 27.3744 0.942111 26.2891 1.67524 25.4488C2.40837 24.6086 3.4186 24.0717 4.51429 23.9402L5.04131 23.9081H17.4599C16.8045 25.0606 16.4048 26.3455 16.2888 27.6725L16.2527 28.4988H5.0368V39.9114H5.04131ZM70.2379 42.2067C70.8352 42.2067 71.4081 41.9649 71.8305 41.5344C72.2528 41.104 72.4901 40.5201 72.4901 39.9114V28.4988L72.4586 27.9663C72.3305 26.8487 71.8042 25.818 70.9797 25.0699C70.1551 24.3218 69.0897 23.9083 67.9857 23.9081H55.4455C56.1031 25.0695 56.5265 26.4008 56.6256 27.8148L56.6482 28.5034H67.9857V39.9114C67.9857 40.5201 68.223 41.104 68.6454 41.5344C69.0677 41.9649 69.6406 42.2067 70.2379 42.2067ZM47.6439 23.9081C48.7478 23.9083 49.8133 24.3218 50.6378 25.0699C51.4624 25.818 51.9887 26.8487 52.1167 27.9663L52.1438 28.4988V39.9114C52.1438 40.5201 51.9065 41.104 51.4841 41.5344C51.0617 41.9649 50.4889 42.2067 49.8916 42.2067C49.2942 42.2067 48.7214 41.9649 48.299 41.5344C47.8767 41.104 47.6394 40.5201 47.6394 39.9114V28.4988H25.2615V39.9114C25.2615 40.5201 25.0243 41.104 24.6019 41.5344C24.1795 41.9649 23.6067 42.2067 23.0093 42.2067C22.412 42.2067 21.8392 41.9649 21.4168 41.5344C20.9944 41.104 20.7571 40.5201 20.7571 39.9114V28.4988C20.7573 27.3744 21.1623 26.2891 21.8955 25.4488C22.6286 24.6086 23.6388 24.0717 24.7345 23.9402L25.2615 23.9081H47.6394H47.6439ZM67.5263 12.5093C67.5263 10.1795 66.6182 7.94515 65.0018 6.29776C63.3854 4.65037 61.1931 3.72488 58.9071 3.72488C56.6212 3.72488 54.4289 4.65037 52.8124 6.29776C51.196 7.94515 50.288 10.1795 50.288 12.5093C50.288 14.839 51.196 17.0734 52.8124 18.7207C54.4289 20.3681 56.6212 21.2936 58.9071 21.2936C61.1931 21.2936 63.3854 20.3681 65.0018 18.7207C66.6182 17.0734 67.5263 14.839 67.5263 12.5093ZM54.7923 12.5093C54.7923 11.397 55.2259 10.3304 55.9975 9.5439C56.7692 8.75744 57.8158 8.31561 58.9071 8.31561C59.9984 8.31561 61.045 8.75744 61.8167 9.5439C62.5884 10.3304 63.0219 11.397 63.0219 12.5093C63.0219 13.6215 62.5884 14.6881 61.8167 15.4746C61.045 16.2611 59.9984 16.7029 58.9071 16.7029C57.8158 16.7029 56.7692 16.2611 55.9975 15.4746C55.2259 14.6881 54.7923 13.6215 54.7923 12.5093ZM14.0501 3.72258C16.336 3.72258 18.5284 4.64808 20.1448 6.29547C21.7612 7.94286 22.6693 10.1772 22.6693 12.507C22.6693 14.8367 21.7612 17.0711 20.1448 18.7184C18.5284 20.3658 16.336 21.2913 14.0501 21.2913C11.7642 21.2913 9.57184 20.3658 7.95543 18.7184C6.33903 17.0711 5.43094 14.8367 5.43094 12.507C5.43094 10.1772 6.33903 7.94286 7.95543 6.29547C9.57184 4.64808 11.7642 3.72258 14.0501 3.72258ZM14.0501 8.31332C12.9588 8.31332 11.9122 8.75515 11.1405 9.54161C10.3689 10.3281 9.93533 11.3947 9.93533 12.507C9.93533 13.6192 10.3689 14.6858 11.1405 15.4723C11.9122 16.2588 12.9588 16.7006 14.0501 16.7006C15.1414 16.7006 16.188 16.2588 16.9597 15.4723C17.7313 14.6858 18.1649 13.6192 18.1649 12.507C18.1649 11.3947 17.7313 10.3281 16.9597 9.54161C16.188 8.75515 15.1414 8.31332 14.0501 8.31332ZM2.71704 46.7975C2.11972 46.7975 1.54687 47.0393 1.1245 47.4698C0.702129 47.9002 0.464844 48.4841 0.464844 49.0928V53.6836C0.464844 56.7274 1.65127 59.6466 3.76311 61.7989C5.87495 63.9512 8.73923 65.1604 11.7258 65.1604H61.2742C64.2608 65.1604 67.125 63.9512 69.2369 61.7989C71.3487 59.6466 72.5352 56.7274 72.5352 53.6836V49.0928C72.5352 48.4841 72.2979 47.9002 71.8755 47.4698C71.4531 47.0393 70.8803 46.7975 70.283 46.7975H2.71704ZM4.96924 53.6836V51.3882H68.0308V53.6836C68.0308 55.5099 67.3189 57.2614 66.0518 58.5528C64.7847 59.8442 63.0661 60.5697 61.2742 60.5697H11.7258C9.93387 60.5697 8.21531 59.8442 6.9482 58.5528C5.68109 57.2614 4.96924 55.5099 4.96924 53.6836Z" fill="#4A00E0"/>
</svg>
