<svg width="465" height="71" viewBox="0 0 465 71" fill="none" xmlns="http://www.w3.org/2000/svg">
<g clip-path="url(#clip0_1209_10)">
<path d="M21.6951 9.98438H20.8013L15.9881 21.1839L27.471 47.5196H4.71148L0.929688 56.2756H31.2528L37.3724 70.1901H49.1991L21.6951 9.98438Z" fill="white"/>
<path d="M104.894 19.9621C102.832 16.7041 99.8061 14.2605 95.8868 12.5637C91.9675 10.7989 87.3606 9.98438 82.1348 9.98438H56.9688V19.4191H81.5848C86.5355 19.4191 90.2485 20.4372 92.7926 22.5414C95.3367 24.6455 96.6432 27.5642 96.6432 31.4331C96.6432 35.2341 95.3367 38.2207 92.7926 40.2569C90.2485 42.3611 86.4667 43.3792 81.5848 43.3792H56.9688V70.1901H68.3141V52.814H82.0661C87.2918 52.814 91.8987 51.9316 95.818 50.2347C99.7373 48.5378 102.763 46.0264 104.826 42.8362C106.957 39.5782 107.989 35.7772 107.989 31.4331C108.057 27.0212 107.026 23.1523 104.894 19.9621Z" fill="white"/>
<path d="M157.494 50.4384C161.619 48.8094 164.92 46.3659 167.12 43.1757C169.389 39.9177 170.421 35.9809 170.421 31.4332C170.421 27.0213 169.389 23.2203 167.258 19.9622C165.195 16.7042 162.169 14.2607 158.25 12.5638C154.537 10.8669 150.274 10.0524 145.392 9.9845V19.4192C150.343 19.4192 152.612 20.4374 155.156 22.5415C157.7 24.6457 159.006 27.5643 159.006 31.4332C159.006 35.2343 157.7 38.2208 155.156 40.3249C152.612 42.4291 148.83 43.4472 143.948 43.4472H130.677V9.9845H119.332V70.1903H130.677V52.6783H144.429C145.461 52.6783 146.286 52.6104 146.767 52.6104L159.213 70.1903H171.383L157.494 50.4384Z" fill="white"/>
<path d="M319.009 9.98438H309.658L308.352 12.2243V70.258H319.078L319.009 9.98438ZM261.664 9.98438H252.312V70.1902H263.108V30.7544L283.117 63.2668H288.205L298.932 45.6191V27.9036L285.867 49.8274L261.664 9.98438Z" fill="white"/>
<path d="M377.32 9.9845V42.7006C377.32 54.511 372.163 60.4162 361.918 60.4162C351.536 60.4162 346.379 54.4431 346.379 42.7006V31.4332H335.033V43.1079C335.033 51.796 337.371 58.5157 342.047 63.1991C346.722 67.8146 353.323 70.1903 361.781 70.1903C370.238 70.1903 376.77 67.8146 381.446 63.1991C386.122 58.5157 388.46 51.796 388.46 43.1079V9.9845H377.32V9.9845ZM346.379 9.91663H335.033V21.1161H346.379V9.91663Z" fill="white"/>
<path d="M446.56 50.71L412.937 9.91663H403.654V70.1224H414.862V29.397L448.554 70.1903H464.369L446.56 50.71Z" fill="white"/>
<path d="M236.086 0.549805L244.475 9.98453H227.629L236.086 0.549805Z" fill="white"/>
<path d="M240.9 19.4872V40.1215C240.9 56.751 227.217 70.2583 210.44 70.2583C193.593 70.2583 179.91 56.751 179.91 40.1215C179.91 23.4919 193.593 9.98462 210.44 9.98462V19.4872C198.957 19.4872 189.537 28.7183 189.537 40.1215C189.537 51.5246 198.888 60.7557 210.44 60.7557C221.991 60.7557 231.274 51.4567 231.274 40.0536V19.4872H240.9Z" fill="white"/>
</g>
<defs>
<clipPath id="clip0_1209_10">
<rect width="463.441" height="69.6405" fill="white" transform="translate(0.927734 0.549683)"/>
</clipPath>
</defs>
</svg>
