<svg width="161" height="20" viewBox="0 0 161 20" fill="none" xmlns="http://www.w3.org/2000/svg">
<path d="M77.1429 3.408C78.4766 1.136 79.1429 0 80.1398 0C81.1366 0 81.8029 1.136 83.1366 3.408L83.4818 3.996C83.8608 4.642 84.0503 4.965 84.345 5.178C84.6397 5.391 85.0082 5.47 85.745 5.628L86.4145 5.772C89.0039 6.329 90.2976 6.607 90.606 7.548C90.9134 8.488 90.0313 9.469 88.266 11.43L87.8092 11.937C87.3081 12.494 87.0566 12.773 86.9439 13.117C86.8313 13.462 86.8692 13.834 86.945 14.577L87.0145 15.254C87.2808 17.871 87.4145 19.179 86.6081 19.76C85.8018 20.342 84.5892 19.811 82.1661 18.751L81.5377 18.477C80.8492 18.175 80.505 18.025 80.1398 18.025C79.7745 18.025 79.4303 18.175 78.7408 18.477L78.1145 18.751C75.6903 19.811 74.4777 20.341 73.6724 19.761C72.8651 19.179 72.9988 17.871 73.2651 15.254L73.3346 14.578C73.4103 13.834 73.4482 13.462 73.3346 13.118C73.223 12.773 72.9714 12.494 72.4704 11.938L72.0135 11.43C70.2483 9.47 69.3662 8.489 69.6735 7.548C69.9819 6.607 71.2767 6.328 73.8661 5.772L74.5356 5.628C75.2714 5.47 75.6387 5.391 75.9345 5.178C76.2293 4.965 76.4187 4.642 76.7977 3.996L77.1429 3.408Z" fill="#4A00E0"/>
<path d="M111.877 3.408C113.211 1.136 113.877 0 114.874 0C115.871 0 116.537 1.136 117.871 3.408L118.216 3.996C118.595 4.642 118.785 4.965 119.079 5.178C119.374 5.391 119.743 5.47 120.479 5.628L121.149 5.772C123.738 6.329 125.032 6.607 125.34 7.548C125.648 8.488 124.766 9.469 123 11.43L122.544 11.937C122.043 12.494 121.791 12.773 121.678 13.117C121.566 13.462 121.604 13.834 121.679 14.577L121.749 15.254C122.015 17.871 122.149 19.179 121.343 19.76C120.536 20.342 119.324 19.811 116.9 18.751L116.272 18.477C115.584 18.175 115.239 18.025 114.874 18.025C114.509 18.025 114.165 18.175 113.475 18.477L112.849 18.751C110.425 19.811 109.212 20.341 108.407 19.761C107.599 19.179 107.733 17.871 107.999 15.254L108.069 14.578C108.145 13.834 108.183 13.462 108.069 13.118C107.957 12.773 107.706 12.494 107.205 11.938L106.748 11.43C104.983 9.47 104.101 8.489 104.408 7.548C104.716 6.607 106.011 6.328 108.601 5.772L109.27 5.628C110.006 5.47 110.373 5.391 110.669 5.178C110.964 4.965 111.153 4.642 111.532 3.996L111.877 3.408Z" fill="#4A00E0"/>
<path d="M146.616 3.408C147.949 1.136 148.616 0 149.612 0C150.609 0 151.276 1.136 152.609 3.408L152.955 3.996C153.333 4.642 153.523 4.965 153.818 5.178C154.112 5.391 154.481 5.47 155.218 5.628L155.887 5.772C158.477 6.329 159.77 6.607 160.079 7.548C160.386 8.488 159.504 9.469 157.739 11.43L157.282 11.937C156.781 12.494 156.529 12.773 156.417 13.117C156.304 13.462 156.342 13.834 156.418 14.577L156.487 15.254C156.753 17.871 156.887 19.179 156.081 19.76C155.274 20.342 154.062 19.811 151.639 18.751L151.01 18.477C150.322 18.175 149.978 18.025 149.612 18.025C149.247 18.025 148.903 18.175 148.213 18.477L147.587 18.751C145.163 19.811 143.95 20.341 143.145 19.761C142.338 19.179 142.471 17.871 142.738 15.254L142.807 14.578C142.883 13.834 142.921 13.462 142.807 13.118C142.696 12.773 142.444 12.494 141.943 11.938L141.486 11.43C139.721 9.47 138.839 8.489 139.146 7.548C139.455 6.607 140.749 6.328 143.339 5.772L144.008 5.628C144.744 5.47 145.111 5.391 145.407 5.178C145.702 4.965 145.891 4.642 146.27 3.996L146.616 3.408Z" fill="#4A00E0"/>
<path d="M42.4047 3.408C43.7383 1.136 44.4047 0 45.4015 0C46.3983 0 47.0646 1.136 48.3983 3.408L48.7436 3.996C49.1225 4.642 49.312 4.965 49.6067 5.178C49.9015 5.391 50.2699 5.47 51.0067 5.628L51.6762 5.772C54.2656 6.329 55.5593 6.607 55.8677 7.548C56.1751 8.488 55.293 9.469 53.5277 11.43L53.0709 11.937C52.5699 12.494 52.3183 12.773 52.2056 13.117C52.093 13.462 52.1309 13.834 52.2067 14.577L52.2762 15.254C52.5425 17.871 52.6762 19.179 51.8699 19.76C51.0635 20.342 49.8509 19.811 47.4278 18.751L46.7994 18.477C46.111 18.175 45.7667 18.025 45.4015 18.025C45.0362 18.025 44.692 18.175 44.0025 18.477L43.3762 18.751C40.952 19.811 39.7394 20.341 38.9342 19.761C38.1268 19.179 38.2605 17.871 38.5268 15.254L38.5963 14.578C38.6721 13.834 38.71 13.462 38.5963 13.118C38.4847 12.773 38.2331 12.494 37.7321 11.938L37.2752 11.43C35.51 9.47 34.6279 8.489 34.9352 7.548C35.2437 6.607 36.5384 6.328 39.1278 5.772L39.7973 5.628C40.5331 5.47 40.9005 5.391 41.1963 5.178C41.491 4.965 41.6805 4.642 42.0594 3.996L42.4047 3.408Z" fill="#4A00E0"/>
<path d="M7.66834 3.408C9.00201 1.136 9.66832 0 10.6652 0C11.662 0 12.3283 1.136 13.662 3.408L14.0072 3.996C14.3862 4.642 14.5757 4.965 14.8704 5.178C15.1651 5.391 15.5335 5.47 16.2704 5.628L16.9398 5.772C19.5293 6.329 20.823 6.607 21.1314 7.548C21.4388 8.488 20.5567 9.469 18.7914 11.43L18.3346 11.937C17.8335 12.494 17.5819 12.773 17.4693 13.117C17.3567 13.462 17.3946 13.834 17.4704 14.577L17.5398 15.254C17.8062 17.871 17.9398 19.179 17.1335 19.76C16.3272 20.342 15.1146 19.811 12.6915 18.751L12.063 18.477C11.3746 18.175 11.0304 18.025 10.6652 18.025C10.2999 18.025 9.95569 18.175 9.26622 18.477L8.63991 18.751C6.21572 19.811 5.00309 20.341 4.19784 19.761C3.39047 19.179 3.52416 17.871 3.79047 15.254L3.85994 14.578C3.93573 13.834 3.97363 13.462 3.85994 13.118C3.74837 12.773 3.49679 12.494 2.99574 11.938L2.5389 11.43C0.773652 9.47 -0.108447 8.489 0.198919 7.548C0.507338 6.607 1.80206 6.328 4.39152 5.772L5.06099 5.628C5.79677 5.47 6.16414 5.391 6.45993 5.178C6.75466 4.965 6.94413 4.642 7.32308 3.996L7.66834 3.408Z" fill="#4A00E0"/>
</svg>
