<svg width="25" height="19" viewBox="0 0 25 19" fill="none" xmlns="http://www.w3.org/2000/svg">
<path d="M23.2143 0H1.78571C1.31211 0 0.85791 0.200178 0.523023 0.556497C0.188137 0.912816 0 1.39609 0 1.9V17.1C0 17.6039 0.188137 18.0872 0.523023 18.4435C0.85791 18.7998 1.31211 19 1.78571 19H23.2143C23.6879 19 24.1421 18.7998 24.477 18.4435C24.8119 18.0872 25 17.6039 25 17.1V1.9C25 1.39609 24.8119 0.912816 24.477 0.556497C24.1421 0.200178 23.6879 0 23.2143 0ZM21.25 1.9L12.5 8.341L3.75 1.9H21.25ZM1.78571 17.1V2.7645L11.9911 10.279C12.1405 10.3893 12.3181 10.4484 12.5 10.4484C12.6819 10.4484 12.8595 10.3893 13.0089 10.279L23.2143 2.7645V17.1H1.78571Z" fill="black"/>
</svg>
