<svg width="507" height="297" viewBox="0 0 507 297" fill="none" xmlns="http://www.w3.org/2000/svg">
<path d="M249.587 7.03461C220.063 20.5128 191.691 33.5469 163.235 46.3727C159.834 47.8996 158.113 49.829 157.433 53.4797C156.239 59.8232 155.142 66.1389 155.503 72.6212C156.586 92.3874 171.036 106.74 191.413 108.531C205.891 109.78 219.508 106.726 232.778 101.216C248.727 94.6084 264.204 86.9462 279.528 79.0341C282.11 77.7155 283.609 77.8265 285.733 79.7976C321.989 113.708 358.343 147.508 394.627 181.391C401.276 187.582 402.692 193.967 399.555 201.698C396.126 210.11 388.811 215.44 380.788 215.662C377.998 215.746 375.999 214.857 374.028 212.872C362.063 200.935 349.945 189.109 337.897 177.254C336.453 175.825 334.968 174.464 333.552 173.021C331.65 171.119 329.485 170.092 327.278 172.16C324.793 174.478 325.945 176.755 328.027 178.781C340.881 191.413 353.554 204.253 366.699 216.593C370.752 220.382 371.668 224.019 370.6 229.155C368.171 240.759 361.508 247.449 351.458 247.963C347.197 248.185 343.796 247.061 340.645 243.882C327.306 230.446 313.716 217.217 300.21 203.933C299.169 202.892 298.114 201.851 296.976 200.949C295.324 199.63 293.492 199.644 291.965 201.06C290.244 202.656 290.188 204.655 291.549 206.515C292.423 207.681 293.561 208.653 294.602 209.694C306.651 221.548 318.519 233.638 330.873 245.159C335.523 249.49 336.148 253.862 334.565 259.387C332.83 265.453 328.888 269.506 322.836 270.505C314.424 271.921 306.554 270.811 299.974 264.162C286.524 250.559 272.768 237.275 259.137 223.866C257.249 221.992 255.112 219.979 252.53 222.367C249.865 224.824 251.045 227.295 253.349 229.432C254.445 230.445 255.445 231.514 256.5 232.542C268.312 244.146 279.958 255.931 292.048 267.23C295.533 270.492 295.866 273.24 294.255 277.279C289.286 289.772 278.848 294.033 266.619 288.314C264.62 287.371 262.732 286.191 260.817 285.108C256.111 282.485 254.709 279.792 257.277 273.92C264.773 256.75 253.543 235.734 234.887 231.181C230.862 230.21 229.488 228.53 228.461 224.754C224.949 211.956 216.454 203.961 203.461 201.088C200.769 200.505 199.575 199.505 198.909 196.757C195.549 183.404 186.971 175.117 173.604 171.966C171.175 171.397 170.092 170.467 169.342 167.927C165.595 155.392 157.114 147.522 144.329 144.982C130.823 142.317 119.747 146.925 111.265 157.71C106.393 163.943 101.507 170.147 96.9404 176.602C95.4413 178.726 94.4141 179.156 92.1516 177.935C86.516 174.867 80.8248 171.869 75.0227 169.12C72.191 167.774 72.0106 166.164 72.9267 163.443C86.4327 123.244 99.9109 83.0457 113.167 42.7637C114.402 39.002 116.151 38.4606 119.497 39.0159C131.739 41.0425 143.205 38.4745 154.199 33.0333C174.284 23.0808 194.605 13.6835 214.996 4.35562C227.1 -1.21057 237.58 1.81546 249.587 7.03461Z" fill="#5015E0"/>
<path d="M304.674 0.024704C318.985 0.0802307 329.965 3.71698 339.668 11.0183C345.983 15.7655 352.16 20.6793 358.379 25.5514C370.358 34.9209 383.975 39.807 399.175 39.8486C402.645 39.8625 403.825 41.0562 404.56 44.2488C413.388 81.3937 422.272 118.525 431.336 155.614C432.238 159.306 431.239 160.223 427.88 160.944C419.454 162.777 411.07 164.845 402.756 167.177C399.855 167.982 398.078 167.385 395.94 165.4C360.239 132.281 324.427 99.2999 288.781 66.1249C285.824 63.3487 283.798 63.1128 280.341 64.9589C261.866 74.8004 243.141 84.1699 223.625 91.8043C214.075 95.566 204.233 97.2456 193.934 96.496C175.736 95.1773 165.811 83.1427 167.671 64.9312C168.226 59.5315 170.184 56.3806 175.5 53.9931C211.534 37.9053 247.374 21.3594 283.298 5.00789C290.752 1.62097 298.581 -0.239029 304.674 0.024704Z" fill="#5015E0"/>
<path d="M49.5452 9.45973C52.1131 10.2648 55.0836 11.1393 58.0402 12.1248C71.449 16.5806 84.844 21.0363 98.2389 25.5198C105.207 27.8656 106.609 30.5446 104.291 37.5405C90.8266 78.0862 77.3067 118.618 63.7452 159.136C61.5382 165.785 58.7759 167.09 52.016 164.869C36.8582 159.858 21.7282 154.805 6.61201 149.683C0.14357 147.476 -1.18899 144.853 0.934771 138.426C14.4963 97.5471 28.1272 56.6821 41.7303 15.8032C42.9102 12.222 44.9923 9.70959 49.5452 9.45973Z" fill="#5015E0"/>
<path d="M413.522 38.1329C413.259 32.761 415.854 30.318 419.755 29.3464C435.787 25.432 451.833 21.6009 467.907 17.9086C473.862 16.5344 476.805 18.7415 478.401 25.321C485.161 53.3185 491.879 81.316 498.611 109.327C501.249 120.376 503.942 131.426 506.523 142.488C507.995 148.721 506.121 151.941 499.958 153.468C484.633 157.244 469.309 160.908 453.957 164.517C446.725 166.238 443.824 164.378 442.061 157.119C432.719 118.419 423.392 79.7197 414.064 41.0201C413.772 39.7708 413.592 38.4938 413.522 38.1329Z" fill="#5015E0"/>
<path d="M197.342 266.663C186.293 273.159 177.854 273.242 170.33 267.19C162.321 260.75 160.739 252.949 164.972 239.401C156.241 243.732 147.871 244.245 140.195 237.888C132.783 231.725 131.048 223.674 133.782 213.888C124.857 216.609 117.084 216.373 110.449 210.349C102.217 202.881 101.149 190.943 107.881 181.935C112.059 176.355 116.306 170.816 120.623 165.319C127.467 156.588 137.905 153.951 147.108 158.504C156.186 163.001 160.225 172.301 157.838 183.115C157.727 183.614 157.81 184.156 157.81 185.113C167.179 181.935 175.799 182.768 182.448 190.43C188.875 197.814 189.139 206.282 184.53 215.956C194.955 210.515 204.005 211.07 211.57 218.76C219.218 226.506 218.996 235.653 213.93 245.745C223.785 240.609 232.641 240.484 240.567 247.632C248.41 254.684 249.548 266.663 243.343 275.186C240.345 279.336 237.083 283.334 233.918 287.387C227.117 296.09 216.775 298.714 207.447 294.119C198.258 289.594 194.205 279.739 197.051 268.87C197.176 268.356 197.19 267.829 197.342 266.663Z" fill="#5015E0"/>
</svg>
