<svg width="708" height="601" viewBox="0 0 708 601" fill="none" xmlns="http://www.w3.org/2000/svg">
<path d="M449.052 587.236C444.974 591.895 439.749 596.346 434.704 600.23C402.524 566.889 364.719 530.051 328.655 530.051C306.359 530.051 290.269 547.109 271.663 558.941C245.69 575.611 210.013 584.914 179.382 572.709C162.905 566.502 147.009 557.199 135.176 542.271C159.214 558.941 195.278 561.07 222.412 549.832C252.463 537.419 282.901 520.749 317.209 520.749C367.635 521.122 415.518 555.237 449.052 587.236ZM76.4429 482.542C109.784 520.541 164.26 508.322 208.852 517.832C215.059 519.187 220.878 521.122 227.458 520.154C222.219 516.864 215.045 516.477 209.046 514.141C174.53 501.148 169.111 464.116 150.105 438.724C174.336 454.813 194.31 476.723 216.994 497.471C232.697 511.819 252.283 518.025 272.631 522.089C267.779 523.831 261.393 523.444 256.154 524.799C219.703 533.908 179.188 548.062 140.222 535.263C115.216 526.941 89.0355 507.354 76.4429 482.542ZM22.9346 394.518C43.6827 441.626 96.0299 445.317 130.919 474.387C137.512 479.819 144.106 484.851 151.28 488.348L151.667 487.961C143.719 480.787 134.997 472.064 128.79 462.955C108.816 434.065 115.603 394.518 100.094 363.887C114.055 380.557 127.048 397.808 135.19 416.814C148.184 447.446 152.441 482.542 181.331 506C149.925 495.729 113.861 497.664 85.5522 479.252C56.0818 459.859 28.5467 429.227 22.9346 394.518ZM0.638357 299.14C3.73468 340.816 47.9402 362.919 68.8818 397.048C73.3466 404.415 77.9911 411.783 84.5846 417.796C83.617 413.331 79.9263 409.461 77.9911 405.189C71.204 390.454 68.1077 373.59 69.8494 356.146C71.9781 335.011 80.7004 315.244 77.4105 292.948C95.629 332.108 89.8234 381.165 100.287 423.615C102.61 432.918 108.235 441.253 111.926 450.169C94.0947 436.595 70.6373 424.583 51.0503 409.074C32.0577 394.145 15.567 376.701 7.03834 353.824C0.638357 337.333 -0.909803 317.746 0.638357 299.14ZM1.79948 222.562C3.9282 213.259 5.47636 203.763 9.5541 195.22C1.993 234.38 27.9661 262.69 36.8957 296.611C40.1856 309.411 41.3605 322.971 46.5855 334.803C46.9726 334.997 47.5531 334.61 47.7467 334.223C34.9467 298.159 53.7596 264.818 72.1716 236.316C77.0235 228.754 79.3457 220.226 81.668 211.31C83.6032 227.593 80.1198 246.6 77.2032 263.464C73.3189 285.179 65.9652 305.527 59.9522 326.468C56.068 339.462 57.0494 354.39 59.1782 367.951L57.243 366.402C43.4754 341.203 16.5346 321.423 8.39298 293.902C1.79948 271.992 -2.66531 246.6 1.79948 222.562ZM16.3411 180.485C16.3411 150.821 27.98 126.59 45.2309 104.487C45.8115 104.293 46.005 103.713 46.7791 103.906C27.7865 132.99 45.0374 169.441 42.7013 202.394L39.992 236.122C40.3791 236.316 40.3791 237.283 41.1532 236.896C42.3143 233.219 42.7013 229.142 43.2819 225.257C47.9402 198.109 71.7846 179.117 92.1319 159.917C96.9837 155.452 100.467 150.033 102.789 144.214C101.048 157.788 97.3569 171.749 91.1504 183.955C75.6412 215.554 45.3968 240.946 39.9644 277.01C37.2828 242.729 16.3411 217.129 16.3411 180.485ZM66.5457 80.449C76.042 69.7916 86.9068 61.4564 99.693 58.3463C74.8809 75.4037 76.2356 106.035 68.6745 131.442C65.9652 140.744 61.8874 149.467 59.5652 159.17L60.1458 159.751C64.2235 148.9 71.3837 138.422 80.7004 129.7C98.1448 113.223 124.519 103.34 133.048 79.0944C132.66 112.629 104.158 138.035 77.9911 157.802C66.3522 166.717 56.2754 178.55 50.2624 190.949C51.23 181.646 51.8106 174.085 50.843 164.976C48.1337 135.505 46.5855 102.745 66.5457 80.449ZM167.37 24.2314C148.958 40.3213 136.545 61.2629 122.39 79.8685C110.558 95.3777 94.4679 105.068 80.5207 118.061C88.0818 102.552 89.4364 84.7203 98.9327 69.5981C115.41 44.012 142.35 33.9213 167.37 24.2314Z" fill="#5105E0"/>
<path d="M258.684 587.236C262.761 591.895 267.986 596.346 273.032 600.23C305.211 566.889 343.017 530.051 379.081 530.051C401.377 530.051 417.467 547.109 436.072 558.941C462.046 575.611 497.722 584.914 528.354 572.709C544.831 566.502 560.727 557.199 572.559 542.271C548.521 558.941 512.457 561.07 485.323 549.832C455.272 537.419 424.834 520.749 390.526 520.749C340.1 521.122 292.218 555.237 258.684 587.236ZM631.293 482.542C597.952 520.541 543.476 508.322 498.883 517.832C492.677 519.187 486.858 521.122 480.278 520.154C485.517 516.864 492.691 516.477 498.69 514.141C533.206 501.148 538.624 464.116 557.631 438.724C533.399 454.813 513.425 476.723 490.742 497.471C475.039 511.819 455.452 518.025 435.105 522.089C439.957 523.831 446.343 523.444 451.582 524.799C488.032 533.908 528.547 548.062 567.514 535.263C592.519 526.941 618.7 507.354 631.293 482.542ZM684.801 394.518C664.053 441.626 611.706 445.317 576.817 474.387C570.223 479.819 563.63 484.851 556.456 488.348L556.069 487.961C564.017 480.787 572.739 472.064 578.945 462.955C598.919 434.065 592.132 394.518 607.642 363.887C593.681 380.557 580.687 397.808 572.545 416.814C559.552 447.446 555.295 482.542 526.405 506C557.81 495.729 593.874 497.664 622.183 479.252C651.654 459.859 679.189 429.227 684.801 394.518ZM707.097 299.14C704.001 340.623 659.795 362.919 638.854 397.048C634.389 404.415 629.744 411.783 623.151 417.796C624.118 413.331 627.809 409.461 629.744 405.189C636.531 390.454 639.628 373.59 637.886 356.146C635.757 335.011 627.035 315.244 630.325 292.948C612.106 332.108 617.912 381.165 607.448 423.615C605.126 432.918 599.5 441.253 595.809 450.169C613.641 436.595 637.098 424.583 656.685 409.074C675.678 394.145 692.168 376.701 700.697 353.824C707.097 337.333 708.645 317.746 707.097 299.14ZM705.936 222.562C703.807 213.259 702.259 203.763 698.181 195.22C705.743 234.38 679.769 262.69 670.84 296.611C667.55 309.411 666.375 322.971 661.15 334.803C660.763 334.997 660.182 334.61 659.989 334.223C672.789 298.159 653.976 264.818 635.564 236.316C630.712 228.754 628.39 220.226 626.068 211.31C624.132 227.593 627.616 246.6 630.532 263.464C634.417 285.179 641.77 305.527 647.783 326.468C651.667 339.462 650.686 354.39 648.557 367.951L650.493 366.402C664.26 341.203 691.201 321.423 699.342 293.902C705.936 271.992 710.401 246.6 705.936 222.562ZM691.394 180.485C691.394 150.821 679.756 126.59 662.505 104.487C661.924 104.293 661.731 103.713 660.956 103.906C679.949 132.99 662.698 169.441 665.034 202.394L667.55 236.122C667.163 236.316 667.163 237.283 666.389 236.896C665.228 233.219 664.841 229.142 664.26 225.257C659.602 198.109 635.757 179.117 615.41 159.917C610.558 155.452 607.075 150.033 604.753 144.214C606.494 157.788 610.185 171.749 616.392 183.955C631.901 215.554 662.145 240.946 667.578 277.01C670.453 242.729 691.394 217.129 691.394 180.485ZM641.19 80.449C631.693 69.7916 620.829 61.4564 608.043 58.3463C632.855 75.4037 631.5 106.035 639.061 131.442C641.77 140.744 645.848 149.467 648.17 159.17L647.59 159.751C643.512 148.9 636.352 138.422 627.035 129.7C609.591 113.223 583.217 103.34 574.688 79.0944C575.075 112.629 603.578 138.035 629.744 157.802C641.383 166.717 651.46 178.55 657.473 190.949C656.505 181.646 655.925 174.085 656.893 164.976C659.602 135.505 661.15 102.745 641.19 80.449ZM540.366 24.2314C558.778 40.3213 571.191 61.2629 585.345 79.8685C597.178 95.3777 613.268 105.068 627.215 118.061C619.654 102.552 618.299 84.7203 608.803 69.5981C592.326 44.012 565.385 33.9213 540.366 24.2314Z" fill="#5105E0"/>
<path d="M578.945 359.049L573.513 356.146C561.874 379.99 546.766 401.706 528.34 420.312L496.547 388.519C512.057 372.429 524.663 354.211 533.966 334.624L528.533 331.721C519.424 351.308 507.011 368.946 492.276 384.262L463.386 355.372C475.799 342.572 485.489 327.837 492.663 311.94L487.231 309.038C480.25 324.74 470.754 338.895 459.115 351.101L427.323 319.308C436.238 310.005 443.025 299.141 447.684 287.515L442.251 284.613C437.786 296.044 431.207 306.328 423.051 315.051L394.161 286.161C402.303 277.052 407.155 265.413 407.929 253.207H448.831C448.444 264.252 446.315 274.923 442.431 284.613L447.863 287.515C452.135 276.665 454.65 265.026 455.037 253.207H500.21C499.823 273.181 495.359 291.98 487.798 309.231L493.23 312.134C501.372 293.722 506.03 273.748 506.417 253.193H547.319C546.932 281.309 540.338 307.863 529.294 331.707L534.726 334.61C546.558 309.411 552.945 281.682 553.525 252.986H598.698C598.311 289.824 589.589 324.906 574.467 356.118L578.945 359.049C595.229 325.515 603.951 288.29 603.951 249.903C603.951 217.143 597.745 185.544 585.732 156.074L580.107 158.396C591.345 186.125 597.357 215.982 597.745 246.807H552.571C552.184 222.189 547.333 198.538 538.61 176.241L532.984 178.564C541.513 200.086 546.171 222.963 546.558 246.807H505.657C505.27 228.782 501.772 211.13 495.386 194.847L489.76 197.169C495.773 212.872 499.257 229.542 499.45 246.793H454.277C453.89 235.749 451.955 225.078 448.071 215.001L442.445 217.323C445.928 226.626 447.684 236.523 448.071 246.793H407.169C406.588 234.38 401.736 222.949 393.401 213.84L422.291 184.95C431.207 194.446 437.994 205.504 442.265 217.517L447.891 215.194C443.233 202.588 436.059 190.963 426.562 180.886L458.548 149.093C472.122 163.248 482.586 179.725 489.373 197.556L494.999 195.234C487.825 176.629 476.974 159.557 462.82 144.822L491.709 115.932C509.541 134.344 523.308 155.867 532.611 178.937L538.237 176.615C528.741 152.77 514.586 130.667 496.174 111.675L527.967 79.6888C550.457 102.759 567.901 129.52 579.733 158.783L585.359 156.461C572.946 125.829 554.341 97.5203 530.303 73.4823C506.071 49.2509 477.762 30.6315 446.937 18.2324L444.808 23.8583C473.892 35.6906 500.832 52.9416 523.903 75.6249L492.11 107.611C473.505 89.586 451.789 75.4313 428.332 65.935L426.203 71.561C448.886 80.8637 469.828 94.2443 487.853 111.882L458.963 140.772C445.002 127.198 428.719 116.734 411.274 109.56L409.145 115.186C426.009 121.973 441.325 132.05 454.899 145.043L423.107 176.836C414.191 168.307 403.907 161.714 392.862 157.055L390.733 162.681C401.004 166.952 410.707 173.145 419.043 181.093L390.153 209.983C381.044 201.841 369.405 196.99 357.199 196.215V155.314C369.031 155.701 380.269 158.216 390.927 162.681L393.056 157.055C381.818 152.397 369.598 149.688 357.185 149.301V104.1C375.404 104.487 393.056 108.178 409.532 114.951L411.661 109.325C394.604 102.344 375.984 98.4741 356.992 98.087V57.1852C381.223 57.5722 404.681 62.424 426.59 71.1463L428.719 65.5204C406.229 56.4111 381.997 51.3657 356.992 50.9787V6.01295C387.596 6.39999 417.453 12.3991 445.182 23.6509L447.31 18.025C418.034 6.19264 386.434 0 353.868 0C313.74 0 275.741 9.4963 241.999 26.5537L244.709 31.7926C277.275 15.5092 313.339 6.59351 350.758 6.01295V51.186C320.126 51.5731 291.236 59.1342 265.65 71.9342L268.36 77.173C293.752 64.5666 321.674 57.7795 350.758 57.199V98.1008C328.074 98.4879 306.552 103.92 287.366 113.417L290.075 118.655C308.874 109.546 329.429 104.501 350.758 104.114V149.287C336.603 149.674 323.223 152.964 311.017 158.783L313.726 164.022C325.158 158.59 337.764 155.687 350.758 155.3V196.202C344.358 196.589 338.345 197.943 332.733 200.279L335.442 205.518C341.068 203.196 347.274 202.035 353.66 202.035C366.46 202.035 378.666 207.08 387.582 216.19C396.691 225.299 401.736 237.325 401.736 250.304C401.736 276.858 380.214 298.38 353.66 298.38C340.861 298.38 328.655 293.335 319.546 284.226C310.436 275.116 305.391 263.09 305.391 250.111C305.391 237.311 310.436 225.105 319.546 215.996C324.204 211.338 329.429 207.854 335.248 205.532L332.539 200.293C326.913 202.615 321.882 205.919 317.417 209.79L288.527 180.9C296.088 173.919 304.423 168.1 313.533 164.036L310.823 158.797C301.134 163.455 292.218 169.454 284.463 176.822L252.477 144.836C263.715 134.178 276.322 125.249 289.896 118.669L287.186 113.43C272.838 120.411 259.651 129.714 248.22 140.578L219.33 111.689C233.872 97.5341 250.348 85.9091 268.18 77.173L265.471 71.9342C246.865 81.2369 229.987 93.2628 215.252 107.417L183.266 75.4313C201.485 57.5999 222.233 42.8647 244.529 31.8064L241.82 26.5675C193.163 50.9925 153.409 90.9268 129.371 139.791L134.61 142.693C145.848 119.817 160.776 98.4879 179.009 79.8823L210.995 111.868C196.066 127.184 183.653 144.822 174.35 164.409L179.589 167.312C188.505 148.706 200.531 131.442 215.266 116.319L244.156 145.209C232.517 157.429 222.827 171.376 215.653 186.885L220.892 189.788C227.679 175.053 236.788 161.479 248.427 149.467L280.413 181.453C272.271 190.175 265.678 200.252 260.826 211.31L266.065 214.213C270.336 203.749 276.529 194.239 284.477 185.71L313.367 214.6C305.419 223.516 300.373 234.961 299.599 247.554H258.891C259.278 235.915 261.794 224.677 266.065 214.019L260.826 211.117C255.974 222.355 253.265 234.574 252.878 247.374H207.705C208.092 227.013 212.75 207.44 220.892 189.594L215.653 186.692C207.124 205.297 202.079 225.658 201.692 247.374H160.79C161.177 219.258 167.771 191.93 179.589 167.118L174.35 164.216C162.131 189.415 155.15 217.53 154.763 247.194H109.59C109.977 210.356 118.7 174.887 134.402 142.693L129.163 139.791C112.687 173.131 103.384 210.55 103.384 250.097C103.384 274.328 106.867 297.979 113.461 320.663L119.28 319.115C113.074 297.979 109.59 275.683 109.397 253.193H154.57C154.763 271.992 157.666 290.612 163.099 308.25L168.918 306.702C163.679 289.644 160.776 271.605 160.583 253.193H201.485C201.872 268.122 204.194 282.857 208.659 296.625L214.478 295.077C210.207 281.696 207.691 267.541 207.498 253.014H252.671C253.058 263.671 254.993 274.149 258.49 284.032L264.31 282.484C260.826 273.181 259.071 263.09 258.684 253.014H299.585C300.166 265.427 305.018 276.858 313.353 285.967L284.463 314.857C275.548 305.361 268.76 294.302 264.489 282.484L258.67 284.032C263.328 297.026 270.696 309.038 280.385 319.322L248.593 351.308C233.084 335.218 221.638 316.018 215.059 295.284L209.239 296.832C216.22 318.741 228.038 338.702 244.529 355.773L215.639 384.663C194.117 362.366 178.414 335.813 169.692 306.923L163.873 308.471C172.982 338.522 189.072 366.057 211.561 388.934L179.769 420.92C151.46 392.03 131.306 357.335 120.248 319.529L114.428 321.077C126.067 360.818 147.575 397.269 177.626 427.513C197.987 447.875 221.445 464.351 246.644 476.363L249.547 471.125C225.702 459.693 203.406 444.377 184.013 425.371L215.805 393.578C232.282 409.668 251.288 422.468 271.636 431.771L274.538 426.532C254.564 417.423 236.152 405.01 219.869 389.307L248.759 360.417C262.333 373.411 277.842 383.681 294.706 390.855L297.609 385.616C281.325 378.829 266.203 368.946 253.016 356.339L285.002 324.353C295.273 334.043 307.105 341.217 320.099 345.876L323.195 340.443C310.782 336.172 299.157 329.205 289.274 319.889L318.163 290.999C327.273 299.334 338.911 303.992 351.117 304.766V345.668C341.427 345.281 331.917 343.54 323.001 340.429L319.905 345.862C329.788 349.345 340.266 351.488 351.117 351.681V396.854C332.512 396.467 314.279 392.583 297.609 385.616L294.706 390.855C312.344 398.416 331.544 402.494 351.117 402.881V443.783C324.163 443.396 298.383 437.383 274.538 426.726L271.636 431.964C296.254 443.202 323.402 449.409 351.311 449.796V494.001C315.44 493.614 280.938 485.473 249.533 470.544L246.63 475.783C279.971 491.679 316.615 500.208 354.421 500.208C394.161 500.208 432.548 490.905 467.063 473.461L464.16 467.835C431.981 484.118 395.723 493.614 357.337 494.001V448.828C387.775 448.441 417.052 441.074 443.606 427.693L440.703 422.261C415.504 434.867 387.195 442.235 357.337 442.815V401.913C380.214 401.526 402.123 395.901 422.084 386.017L419.374 380.585C400.575 389.888 379.634 395.32 357.337 395.9V350.727C371.879 350.34 385.84 346.843 398.626 340.651L395.917 335.218C384.278 340.844 371.105 344.327 357.337 344.714V304.006C369.75 303.426 381.182 298.574 390.291 290.239L419.181 319.128C412.2 325.722 404.446 331.154 395.723 335.218L398.433 340.651C407.542 336.186 415.877 330.38 423.438 323.4L455.231 355.192C444.573 365.463 432.354 373.991 419.167 380.585L421.876 386.017C435.45 379.23 448.236 370.314 459.488 359.463L488.378 388.353C474.417 401.927 458.134 413.359 440.689 422.275L443.592 427.707C461.423 418.791 478.108 406.959 492.829 392.611L524.622 424.403C506.79 441.654 486.429 456.389 464.133 467.641L467.036 473.267C490.493 461.435 512.015 445.925 531.201 426.739C550.844 406.931 566.933 383.861 578.945 359.049Z" fill="#5105E0"/>
<path d="M368.216 192.124H366.668V193.866H368.216V192.124Z" fill="#5105E0"/>
<path d="M366.461 189.608H364.525V191.156H366.461V189.608Z" fill="#5105E0"/>
<path d="M360.849 189.221L362.59 189.415L362.784 187.853L361.042 187.659L360.849 189.221Z" fill="#5105E0"/>
<path d="M357.857 186.803L357.636 188.335L359.359 188.584L359.581 187.052L357.857 186.803Z" fill="#5105E0"/>
<path d="M346.693 186.498H344.758V188.046H346.693V186.498Z" fill="#5105E0"/>
<path d="M340.642 188.157L340.421 189.689L342.145 189.937L342.365 188.405L340.642 188.157Z" fill="#5105E0"/>
<path d="M340.487 191.93L338.552 191.543L338.939 189.995L340.874 190.576L340.487 191.93Z" fill="#5105E0"/>
<path d="M337.003 193.866L336.81 192.318L338.164 192.124L338.551 193.672L337.003 193.866Z" fill="#5105E0"/>
<path d="M138.867 350.907V354.39H140.415L140.221 350.52L138.093 349.732V348.377H136.932V350.907H138.867Z" fill="#5105E0"/>
<path d="M149.524 360.21L153.215 361.952L154.57 365.642L156.311 366.803L158.053 370.674L157.086 372.416L154.376 369.9L152.248 367.19L151.28 364.854L149.524 360.21Z" fill="#5105E0"/>
<path d="M213.317 439.111L214.671 442.415L212.93 443.382L211.755 441.834L209.239 441.046L209.046 438.724L207.11 435.821L210.013 436.208L213.317 439.111Z" fill="#5105E0"/>
<path d="M346.113 208.601H343.404L342.823 202.975L344.371 202.007V199.105H335.455L335.262 196.202L336.617 195.428L334.681 194.654L333.133 196.782L332.553 199.105L330.037 199.685V201.04H328.295V204.33L321.315 210.149L307.16 209.568C306.192 211.891 303.677 209.375 303.677 209.375C303.096 207.827 299.599 209.375 299.599 209.375C299.599 212.278 294.747 208.02 294.747 208.02L285.831 201.62C280.786 196.962 273.225 202.975 273.031 204.136C273.225 207.619 267.212 204.91 267.212 204.91C267.212 204.91 262.167 203.362 261.393 205.491C260.618 207.619 257.315 207.039 257.315 207.039L256.734 208.006L254.219 208.587L253.638 210.135L250.542 210.716L258.103 210.522C260.038 210.329 257.329 214.793 256.168 214.6L252.684 214.793L251.33 216.148H248.04L246.492 218.277L241.64 218.083C241.64 218.083 238.93 220.406 239.124 221.18C239.317 221.954 238.543 224.276 237.769 224.276C236.995 224.276 235.447 226.598 236.028 227.372C236.608 228.146 234.479 230.662 234.479 230.662L233.899 233.178L232.351 233.758V240.739L229.254 242.868V245.964L224.79 250.816L225.37 254.894L221.486 258.971L222.067 263.049L219.744 263.823L219.164 265.565L218.196 270.997L220.712 271.191C221.873 270.61 221.679 274.481 220.712 275.075C219.744 275.669 216.828 276.623 218.39 277.591C219.938 278.558 214.312 278.365 214.312 276.817C214.312 275.268 211.216 273.914 210.428 274.494C209.64 275.075 208.492 272.172 208.492 272.172C205.783 269.269 197.061 272.366 197.061 272.366L195.706 276.443C192.997 277.024 191.242 281.489 191.242 281.489C188.919 282.263 187.164 284.972 187.952 285.76C188.726 286.534 186.597 286.728 186.597 286.728V292.354L185.436 294.095L185.629 300.302C187.178 300.302 186.984 303.204 186.984 303.204C184.468 303.398 185.049 306.688 185.049 306.688L179.81 308.429L178.842 309.978L172.249 309.784L170.507 311.526L168.766 309.784H156.159L155.579 308.429L153.063 307.849L152.869 304.946L148.985 305.14L148.211 306.688L144.133 306.881C144.327 309.397 140.056 313.281 139.668 312.314C139.088 311.346 136.379 308.429 137.733 308.042C139.088 307.462 142.198 307.075 142.198 307.075V305.333L132.895 305.14L131.928 306.688L128.043 306.881V310.959L126.302 311.54C124.947 312.314 126.495 315.023 126.495 315.023C128.237 316.765 126.302 319.681 126.302 319.681C124.754 321.229 127.463 323.953 127.463 323.953C129.398 324.533 126.302 326.081 126.302 326.081C126.882 328.597 128.237 329.371 128.237 329.371C126.689 331.887 129.205 333.255 129.205 333.255L129.398 337.527L131.14 338.494V341.204L132.107 342.945H136.185L136.766 336.932C133.282 332.855 139.862 331.887 140.056 333.255C140.249 334.804 143.152 335.578 143.152 335.578C143.732 339.462 148.004 341.784 149.165 337.9C150.519 334.016 151.487 336.352 152.261 338.093C153.035 339.835 157.887 344.3 157.887 344.3H161.771L162.352 347.783C166.623 347.59 167.978 347.977 169.719 353.99C171.461 359.809 176.313 361.357 176.313 361.357L179.796 361.164C179.796 358.067 183.28 361.744 183.28 363.292C183.28 364.841 190.067 370.66 190.067 370.66L196.854 372.208L203.254 377.254L208.105 376.673H210.041C211.202 372.402 217.408 376.866 217.795 378.415C218.376 379.963 222.26 382.492 222.841 381.317C223.421 379.963 226.13 380.737 226.725 384.607C227.305 388.492 229.047 387.704 229.047 387.704L243.395 387.51L248.441 383.239L261.241 383.045C267.834 382.852 263.756 373.742 262.595 373.742C260.273 372.001 263.369 364.44 263.369 364.44L244.957 347.382C240.686 347.382 244.377 341.176 244.377 341.176C247.666 339.047 243.603 335.743 243.603 335.743C244.183 332.647 241.861 329.15 241.861 329.15C237.396 326.054 238.571 320.234 238.571 320.234V316.156C234.687 312.673 240.119 312.079 240.119 312.079C241.861 308.982 238.765 306.646 238.765 306.646L238.571 303.357L234.493 302.776L233.913 290.75L224.803 277.757C223.062 277.176 224.223 274.273 224.223 274.273C226.545 272.919 223.642 270.002 223.642 270.002L223.449 264.376L228.688 263.795L230.042 261.667H232.558L232.365 255.073C233.526 251.783 236.636 253.525 236.636 253.525L240.119 253.719L242.054 249.834L242.635 246.738L239.926 246.545C236.829 244.803 238.378 238.016 238.378 238.016C243.229 230.842 248.648 234.92 248.648 234.92L252.131 234.726C257.37 238.209 252.712 244.996 252.712 244.996C251.744 246.545 252.131 251.396 252.131 251.396L253.292 259.538L250.003 262.441C247.293 263.989 247.293 267.486 250.196 268.26C252.131 268.454 251.357 273.306 248.454 270.002C243.99 270.002 250.97 274.08 249.035 273.098C253.5 275.421 252.518 270.97 252.518 270.97L258.531 266.118C260.853 264.376 264.931 270.002 264.931 270.776C264.931 271.55 275.008 270.97 275.008 270.97C277.717 272.711 278.892 277.37 278.892 277.37C281.602 273.693 287.421 277.176 283.164 279.111C287.241 281.627 287.241 283.963 287.241 283.963C290.531 282.995 290.531 285.511 290.531 286.285C290.531 287.059 291.499 282.401 291.499 282.401C287.615 279.498 296.544 278.517 294.015 283.756L292.466 286.078L294.982 288.207L295.176 294.026C300.802 293.446 299.253 286.659 299.253 286.659L301.769 286.078C301.769 283.756 303.511 285.11 303.511 285.11C301.769 276.388 307.589 274.84 307.589 274.84C310.878 274.066 311.072 267.085 311.072 267.085C308.75 266.118 310.104 262.427 312.62 265.537C315.136 268.633 311.072 259.331 311.072 259.331L309.137 257.589L306.427 257.396L306.234 254.493H301.769L300.995 258.17L299.253 258.75L298.673 257.783L297.899 260.685H293.434L293.24 257.589L295.95 256.815L296.917 255.267L297.691 251.189H300.981L305.253 249.834C305.446 245.563 307.768 246.545 307.768 246.545L309.316 247.899L311.639 249.641L311.832 251.189L310.284 251.963L310.09 254.092L310.865 256.995H312.8C313.574 252.917 318.813 252.917 320.361 255.446L321.909 251.963C318.426 250.221 321.909 247.305 322.877 248.673C323.844 250.042 326.166 245.383 326.166 245.383C326.166 245.383 327.908 247.706 326.166 244.609C324.425 241.513 327.328 239.951 327.328 239.951C326.747 236.855 330.617 237.435 330.617 237.435L330.811 233.358L327.328 233.164C326.554 236.647 323.443 233.745 325.005 232.971C326.554 232.196 328.102 230.648 328.102 230.648V228.133L329.65 227.552L329.843 225.036H333.728L337.017 223.488L337.791 222.133L341.275 221.94L346.32 217.282L345.74 215.153C342.643 215.153 345.74 212.831 345.74 212.831L346.113 208.601Z" fill="#5105E0"/>
<path d="M244.335 259.4L239.87 258.819L240.064 260.561H241.225C243.16 264.238 241.418 272.78 241.418 272.78C241.418 272.78 238.322 272.974 237.935 271.426C237.354 269.877 236.193 274.715 237.161 275.503C238.128 276.277 241.626 275.503 242.013 278.406C242.206 281.309 244.335 276.664 244.335 276.664V259.4Z" fill="#5105E0"/>
<path d="M239.87 280.134V286.147L243.948 291.58L245.303 287.889L245.883 285.76L244.141 284.986L244.335 281.116L245.883 280.908L246.077 278.973L242.386 281.696L239.87 280.134Z" fill="#5105E0"/>
<path d="M246.464 297.205V294.676L244.722 294.869L244.335 297.012L246.464 297.205Z" fill="#5105E0"/>
<path d="M244.142 309.411V307.669L241.999 308.056V309.798L244.142 309.411Z" fill="#5105E0"/>
<path d="M247.045 301.656C247.686 301.656 248.206 301.136 248.206 300.495C248.206 299.854 247.686 299.334 247.045 299.334C246.404 299.334 245.884 299.854 245.884 300.495C245.884 301.136 246.404 301.656 247.045 301.656Z" fill="#5105E0"/>
<path d="M248.786 307.089C249.427 307.089 249.947 306.569 249.947 305.927C249.947 305.286 249.427 304.766 248.786 304.766C248.145 304.766 247.625 305.286 247.625 305.927C247.625 306.569 248.145 307.089 248.786 307.089Z" fill="#5105E0"/>
<path d="M248.979 277.812C249.621 277.812 250.141 277.292 250.141 276.651C250.141 276.01 249.621 275.49 248.979 275.49C248.338 275.49 247.818 276.01 247.818 276.651C247.818 277.292 248.338 277.812 248.979 277.812Z" fill="#5105E0"/>
<path d="M329.83 241.941H331.378L331.571 243.503L330.604 244.471L330.217 245.826L328.088 246.213L323.623 250.678L323.43 252.613L322.075 254.548L320.527 258.239L315.288 258.626L314.32 263.077L315.094 266.961L319.559 268.703L320.14 266.187L321.494 265.399L321.881 262.883L322.849 261.141L324.397 259.4L324.784 257.257L327.314 255.709L330.41 255.128L331.571 253.774L332.152 250.678L332.345 248.341L333.506 246.793L336.423 245.439V240.587H334.875L334.668 238.845L331.958 238.652L331.378 239.813H330.217L329.83 241.941Z" fill="#5105E0"/>
<path d="M341.842 256.29V252.806L341.261 249.516L337.584 247.775L334.875 250.29L334.295 253.774V256.096L331.779 256.677L331.198 263.657L329.263 264.431L329.457 266.947L326.747 267.721L324.038 268.495L323.457 271.785L321.522 273.14L320.555 276.236L319.394 283.604C319.394 283.604 321.716 287.875 322.877 285.926C324.232 283.797 326.167 283.604 326.167 283.604L326.941 281.862L333.728 282.055C334.308 279.153 337.612 280.314 337.612 281.475C337.612 282.829 340.128 281.668 340.128 281.668L341.87 278.766H344.579L344.772 275.669L346.127 274.895V270.237C350.205 268.882 349.61 265.191 349.61 265.191L350.578 263.837L349.997 262.095C348.062 261.321 349.03 259.579 350.191 259.966C351.546 260.547 348.449 257.644 348.449 257.644C346.901 258.999 345.74 256.096 345.74 256.096H341.856V256.29H341.842Z" fill="#5105E0"/>
<path d="M345.726 287.308C345.532 290.404 341.648 291.386 341.648 291.386L338.939 290.612L337.391 289.257L337.197 285.58L339.519 285.387L340.1 286.935L345.726 287.308Z" fill="#5105E0"/>
<path d="M359.494 270.831C360.074 273.154 360.074 267.154 361.042 267.541C362.009 267.735 361.235 264.058 361.235 264.058L356.771 267.348C358.913 267.541 359.107 269.864 359.494 270.831Z" fill="#5105E0"/>
<path d="M372.86 257.451C373.828 259.773 373.634 263.077 377.325 265.593C378.68 266.367 376.551 268.108 375.39 267.334C374.229 266.56 370.538 260.934 370.538 260.934V257.644C371.312 255.709 372.28 256.483 372.86 257.451Z" fill="#5105E0"/>
<path d="M372.86 335.398L373.648 336.172L374.229 337.333L376.164 334.624L374.616 334.029L372.86 335.398Z" fill="#5105E0"/>
<path d="M402.911 327.643L405.053 326.275L404.279 324.92L402.137 326.275L402.911 327.643Z" fill="#5105E0"/>
<path d="M476.006 380.958L478.328 381.925L478.521 386.197C481.618 389.293 491.321 386.777 491.321 386.003C491.321 385.229 490.741 376.507 490.741 376.507L489.386 375.152L489.193 368.752C490.16 365.462 484.341 360.611 483.954 361.578C483.373 362.546 480.07 361.772 480.07 362.933C480.07 363.9 478.134 369.139 479.102 370.881C480.07 372.623 478.328 372.623 478.134 374.364C477.941 376.3 475.425 379.396 476.006 380.958Z" fill="#5105E0"/>
<path d="M470.38 370.674C469.993 372.609 468.058 373.77 467.09 372.996C466.123 372.222 468.252 374.351 468.832 375.318C469.413 376.286 470.767 376.286 471.348 375.318C471.928 374.351 471.541 372.028 472.122 371.047C472.716 369.9 470.767 369.706 470.38 370.674Z" fill="#5105E0"/>
<path d="M460.498 323.759H458.756V328.611H460.498V323.759Z" fill="#5105E0"/>
<path d="M484.728 274.522C483.567 272.974 489.773 270.444 490.741 273.554C491.709 276.651 490.741 276.07 489.773 275.876C488.806 275.489 486.276 276.457 484.728 274.522Z" fill="#5105E0"/>
<path d="M490.161 240.2L489.968 241.555L492.677 242.135L493.064 240.587L490.161 240.2Z" fill="#5105E0"/>
<path d="M483.18 244.471L483.374 245.052L484.729 244.471L484.342 243.117L483.955 242.329L483.18 242.729L481.245 243.891L479.683 242.729L478.909 244.084L480.858 245.439L481.245 245.632L481.632 245.439L483.18 244.471Z" fill="#5105E0"/>
<path d="M492.677 182.24H488.792C488.792 182.24 490.147 182.821 486.47 179.338C482.987 176.048 480.651 180.112 480.651 180.112L476.573 180.692V184.77L474.638 185.544L474.831 188.06L477.541 187.866C477.541 187.866 477.541 190.963 478.315 189.608C479.089 188.253 485.295 189.801 484.908 192.898C484.715 194.252 491.308 197.556 490.534 201.62C493.824 202.201 493.05 205.504 493.05 205.504L497.321 206.085L498.676 203.569L499.837 203.763V202.214L497.128 201.44L496.547 193.299L494.805 191.944L495.386 189.815L493.451 189.041L494.418 185.751L492.677 182.24Z" fill="#5105E0"/>
<path d="M503.735 208.407L501.8 208.214L497.335 208.988L494.819 213.84C494.819 213.84 495.98 214.614 497.141 216.355C498.109 218.097 498.69 228.575 495.593 230.51C492.497 232.252 495.787 231.284 495.787 231.284L495.206 236.91C495.98 239.426 497.141 238.265 497.916 236.91C498.69 235.555 499.464 235.362 500.431 234.007C501.399 232.652 502.947 230.524 503.141 228.575C503.334 226.833 504.689 223.916 503.915 223.142C503.141 222.368 504.689 218.871 504.689 218.871C504.689 218.871 505.656 216.742 504.689 214.793C503.721 212.665 504.882 210.522 505.656 209.361L503.735 208.407Z" fill="#5105E0"/>
<path d="M507.022 216.781L506.756 218.894L508.292 219.087L508.558 216.975L507.022 216.781Z" fill="#5105E0"/>
<path d="M506.638 225.852L505.283 225.271L506.057 223.723L507.412 224.304L506.638 225.852Z" fill="#5105E0"/>
<path d="M504.509 205.504L503.542 203.182C503.542 203.182 503.542 201.053 504.122 200.086C504.703 199.118 503.155 197.957 502.381 197.763C501.607 197.57 501.8 195.441 501.607 194.474C501.413 193.506 499.671 192.732 499.671 192.732C499.671 192.732 499.091 188.848 499.091 188.074C499.091 187.3 496.769 186.332 497.543 185.558C498.317 184.784 498.897 183.816 499.478 183.236C500.252 182.655 498.704 179.158 500.059 179.946C501.413 180.72 501.413 182.075 501.8 183.042C502.381 184.01 501.607 187.7 502.768 188.475C503.929 189.249 502.574 191.764 504.509 191.764C506.445 191.764 505.284 196.616 505.284 196.616C505.284 196.616 504.703 200.1 506.058 200.5C507.412 200.694 506.638 206.9 506.638 206.9L504.509 205.504Z" fill="#5105E0"/>
<path d="M488.032 164.008C488.806 164.976 490.354 165.75 490.354 166.911C490.354 167.879 489.774 168.653 491.322 169.04C492.87 169.233 493.838 168.846 494.418 170.008C494.999 171.362 494.999 173.297 494.612 174.279C494.418 175.246 494.805 176.795 496.16 176.795C497.515 176.795 497.708 176.988 497.708 177.762C497.708 178.536 499.256 174.859 499.256 174.859C497.902 173.892 496.934 171.569 496.934 171.569C496.934 171.569 495.773 168.086 495.773 167.492C495.773 166.897 494.031 166.524 493.257 166.137C492.483 165.944 491.322 163.621 491.322 163.621L488.032 164.008Z" fill="#5105E0"/>
<path d="M490.548 161.686C489.774 160.718 489 159.944 488.032 159.364C487.065 158.783 486.291 158.396 485.323 158.396C484.356 158.396 483.388 157.429 483.775 156.074C484.356 154.719 483.001 154.332 483.001 153.171C483.001 152.203 483.775 152.203 484.936 152.978C486.291 153.752 485.904 153.945 486.871 155.3C487.839 156.654 488.42 157.816 489.387 157.622C490.355 157.429 491.129 159.944 492.096 159.17C493.064 158.396 492.87 160.912 492.87 160.912L490.548 161.686Z" fill="#5105E0"/>
<path d="M461.078 190.769C462.432 192.124 453.517 191.737 453.517 190.769C453.517 189.802 454.291 186.111 456.613 186.885C458.935 187.659 459.129 182.227 459.129 182.227C459.129 182.227 457.194 182.42 458.935 181.453C460.677 180.485 458.935 178.937 458.161 178.163C457.387 177.389 456.613 176.034 456.613 176.034H460.096C461.644 175.066 462.031 170.215 462.031 170.215C465.128 171.182 466.496 169.247 466.496 169.247C466.496 169.247 467.077 170.795 468.044 172.15C469.012 173.504 465.529 173.892 466.69 174.666C468.044 175.44 468.431 177.762 468.044 178.55C467.464 179.324 464.755 178.743 464.755 177.776C464.755 176.808 463.787 179.13 464.755 180.292C465.722 181.646 463.593 183.388 463.013 183.388C462.432 183.388 459.336 183.968 462.045 185.517C464.755 187.065 467.865 186.291 467.865 186.291C467.865 186.291 470.187 186.097 470.961 187.258C471.735 188.613 470.768 188.806 469.413 188.806C468.252 188.806 462.045 188.226 462.045 188.226C462.045 188.226 460.304 189.995 461.078 190.769Z" fill="#5105E0"/>
<path d="M444.988 193.092C446.342 192.898 449.259 192.511 449.84 193.285C450.42 194.059 448.098 195.027 448.098 195.027L445.002 195.607C444.02 194.253 443.633 193.285 444.988 193.092Z" fill="#5105E0"/>
<path d="M477.555 171.569C479.49 170.602 483.955 170.602 483.568 169.054C483.374 167.505 486.083 166.925 486.083 166.925L486.857 170.021L489.18 171.569L489.373 174.472C489.373 174.472 490.147 173.892 487.438 174.666C484.729 175.44 486.47 176.794 486.47 176.794L480.457 176.988L479.683 174.472L477.555 171.569Z" fill="#5105E0"/>
<path d="M467.671 157.608C469.219 157.608 467.09 163.428 471.154 163.041C475.232 162.46 471.348 164.782 474.444 165.169C477.54 165.363 476.766 162.847 477.734 161.092C478.701 159.35 478.314 158.189 476.573 157.802C474.831 157.221 474.831 157.221 474.25 155.286C473.67 153.157 471.735 152.77 471.735 152.77L470.961 149.674L467.671 151.803L464.381 156.074C464.367 159.17 466.123 157.608 467.671 157.608Z" fill="#5105E0"/>
<path d="M474.265 179.324L475.039 177.776L476.393 178.55L475.619 179.905L474.265 179.324Z" fill="#5105E0"/>
<path d="M473.284 176.808H471.735V178.55H473.284V176.808Z" fill="#5105E0"/>
<path d="M473.077 142.732L471.538 142.902L471.793 145.211L473.332 145.041L473.077 142.732Z" fill="#5105E0"/>
<path d="M470.187 166.538H468.639V167.892H470.187V166.538Z" fill="#5105E0"/>
<path d="M467.11 164.837L464.606 165.08L464.756 166.621L467.26 166.378L467.11 164.837Z" fill="#5105E0"/>
<path d="M443.826 191.156L442.472 190.576L443.246 188.82L444.6 189.415L443.826 191.156Z" fill="#5105E0"/>
<path d="M438.375 184.883L435.871 185.127L436.021 186.668L438.525 186.424L438.375 184.883Z" fill="#5105E0"/>
<path d="M392.266 186.193L386.646 186.45L386.716 187.996L392.337 187.739L392.266 186.193Z" fill="#5105E0"/>
<path d="M382.951 188.24L382.37 185.918L383.918 185.724L384.499 188.046L382.951 188.24Z" fill="#5105E0"/>
<path d="M381.79 189.995L381.403 188.433L382.177 188.24L382.564 189.608L381.79 189.995Z" fill="#5105E0"/>
<path d="M394.576 185.53L394.383 187.272L397.092 187.466C397.092 187.466 398.253 188.433 398.253 189.207C398.253 189.981 399.995 190.755 400.963 190.755C401.93 190.755 404.847 188.627 404.847 188.627C404.847 188.627 406.201 185.143 405.04 185.337C404.073 185.53 401.944 187.079 401.75 185.53C401.557 183.982 398.461 184.756 398.461 184.756L394.576 185.53Z" fill="#5105E0"/>
<path d="M407.183 182.821C407.183 183.595 406.602 184.563 408.15 184.95C409.699 185.143 412.422 183.982 412.615 185.53C412.809 187.079 412.809 188.046 414.937 188.82C416.873 189.594 418.227 189.788 419.789 189.788C421.351 189.788 424.641 189.207 424.641 189.207C424.641 189.207 428.124 189.788 428.912 190.562C431.622 193.465 433.377 194.045 434.151 192.884C434.925 191.53 433.958 188.806 433.571 187.839C433.377 186.871 429.686 182.019 428.525 182.987C427.364 183.955 426.977 182.987 424.641 183.761C422.319 184.535 417.661 183.955 417.273 182.987C417.08 182.019 413.389 181.439 413.389 180.471C413.389 179.504 410.874 178.149 411.067 179.697C411.261 181.245 409.325 182.019 408.745 181.439C408.537 180.679 407.183 182.821 407.183 182.821Z" fill="#5105E0"/>
<path d="M465.155 150.047L466.897 144.421C464.381 143.841 464.962 141.131 464.962 141.131C464.768 138.809 461.078 136.279 459.917 137.054C458.755 137.828 459.142 131.621 459.142 131.621C459.142 131.621 461.465 130.073 462.432 130.847C463.4 131.621 453.904 118.047 451.775 119.416C449.84 120.77 445.181 118.061 445.375 115.739C445.568 113.416 436.266 105.662 436.266 105.662C436.266 105.662 433.169 103.533 432.782 105.081C432.202 106.629 431.234 107.597 432.782 108.371C434.33 109.145 433.943 107.017 435.879 108.952C437.62 110.693 440.924 113.029 439.763 114.578C438.408 116.126 437.054 116.706 437.054 116.706L438.795 118.835H441.505L442.085 123.106C442.085 123.106 445.181 124.654 445.969 126.396C446.757 128.138 446.743 129.299 445.969 130.28C445.195 131.262 443.647 133.183 444.034 134.939C444.228 136.68 446.356 137.454 446.356 137.454L448.292 137.648L449.84 138.422V141.712C451.775 141.131 455.079 144.034 454.885 145.79C454.692 147.531 455.466 146.564 457.981 148.305C460.497 150.047 459.723 150.434 461.465 151.595C462.819 152.964 464.368 152.19 465.155 150.047Z" fill="#5105E0"/>
<path d="M423.466 115.158C423.272 114.191 422.692 110.5 424.24 110.887C425.788 111.08 424.82 110.887 426.562 111.661C428.304 112.435 428.497 110.306 428.497 110.306H431.206L434.69 113.209L434.109 115.531L431.594 115.725C430.432 113.596 427.709 114.37 428.304 116.306C428.884 118.047 427.143 121.351 425.981 121.738C425.014 121.931 421.71 121.931 421.904 120.383C422.498 118.642 423.466 115.158 423.466 115.158Z" fill="#5105E0"/>
<path d="M421.53 108.178V106.243C421.53 106.243 421.337 104.114 419.982 104.114C418.821 104.114 416.499 102.566 416.886 101.598C417.466 100.631 412.614 99.4694 412.614 99.4694C412.614 99.4694 408.343 95.3917 409.905 95.9861C411.453 96.5666 410.679 94.2444 410.679 94.2444C410.679 94.2444 407.583 94.825 406.795 94.4379C406.021 94.2444 406.214 91.9222 406.214 91.9222C406.214 91.9222 403.118 91.1481 403.118 91.9222C403.118 92.6962 404.086 92.6962 404.666 94.2444C405.247 95.7926 404.86 98.3221 407.182 98.9027C409.504 99.4833 409.891 99.8703 410.278 101.031C410.472 101.999 413.375 102.386 413.375 102.386L415.31 103.354L421.53 108.178Z" fill="#5105E0"/>
<path d="M394.189 82.2046L393.415 80.062L391.479 79.4814V81.8037L394.189 82.2046Z" fill="#5105E0"/>
<path d="M393.415 71.3395C390.706 69.4043 396.899 72.8877 396.899 72.8877C398.834 72.8877 400.189 74.4359 400.189 75.2099C400.189 75.984 402.898 75.7905 402.898 75.7905L403.091 74.0488L401.156 71.5331L399.414 70.1784C399.414 70.1784 396.705 69.9849 396.705 69.2108C396.719 68.2432 394.576 72.1136 393.415 71.3395Z" fill="#5105E0"/>
<path d="M439.942 72.8878C439.168 75.2101 438.975 78.3202 437.62 78.3202C436.459 78.3202 436.846 81.61 436.846 81.61C436.846 81.61 440.136 81.61 441.117 81.8036C442.085 81.9971 442.085 84.7064 442.085 84.7064C445.969 84.5128 447.324 89.5582 446.937 90.9128C446.356 92.2675 448.485 92.2675 448.485 92.2675C448.485 92.2675 448.485 96.3452 447.904 97.3128C447.324 98.2804 451.194 99.0545 452.176 100.603C453.143 102.151 451.595 107.196 450.821 107.583C450.047 107.777 452.756 108.551 452.563 109.905C452.369 111.26 453.337 109.905 453.53 112.034C453.724 114.163 454.304 118.434 454.304 118.434L457.788 118.628C458.368 115.338 464.768 115.144 465.929 115.531C470.201 117.079 473.491 123.673 473.491 125.221C473.491 126.769 470.781 126.963 470.781 126.963L471.362 134.33C475.633 135.685 479.116 141.698 478.729 142.859C478.149 143.827 481.826 143.633 481.826 143.633C482.406 138.975 486.678 140.537 486.871 142.085C487.065 143.633 487.839 146.937 487.839 146.937L489.193 149.259L490.935 151.001L493.644 150.807L494.418 152.355L497.708 152.936C497.708 152.936 500.417 156.032 500.804 156.82C500.998 157.594 504.882 157.401 505.85 157.594C506.817 157.788 508.366 158.562 508.559 159.917C508.753 161.271 510.301 163.206 510.301 163.206C510.301 163.206 513.397 163.98 513.591 164.948C513.784 165.916 515.139 168.238 515.139 168.238L517.655 170.367L517.848 172.689L520.557 172.882L521.331 175.979L525.796 175.785L528.312 174.043C531.602 172.302 533.938 169.966 534.131 168.998C534.325 168.031 534.905 164.146 537.421 164.92C539.937 165.694 538.195 159.295 538.195 159.295C538.195 159.295 534.712 156.779 534.905 155.41C535.099 154.056 531.422 151.526 531.616 150.558C531.809 149.591 528.326 147.462 528.519 146.481C528.713 145.499 526.778 142.596 526.778 142.596L522.893 139.113L522.313 136.791L519.217 136.597L513.204 129.23L513.397 127.101L511.655 126.908V123.618L509.914 122.65L507.204 122.457L501.579 116.25L500.998 113.347H498.289L498.869 107.915C500.611 105.593 499.643 101.321 499.643 101.321C499.643 101.321 496.16 103.063 494.405 102.289C492.649 101.515 495.179 99.7733 495.179 99.7733V97.6445L493.63 96.0964C493.63 96.0964 489.359 96.6769 489.166 95.9029C488.972 95.1288 488.198 91.8251 488.198 91.8251L488.005 87.5539L486.263 86.7798L486.069 85.2316L483.36 85.4251V82.3979L481.812 81.8174L480.264 81.0433L480.07 77.947L474.444 77.7535L472.703 75.2377L470.767 72.1414L464.367 71.5608L462.819 70.0127L460.304 69.4044L458.562 68.6304L457.788 69.985L452.936 70.1785L452.742 71.7267C450.227 73.0813 440.136 72.1137 439.942 72.8878Z" fill="#5105E0"/>
<path d="M466.317 66.2943C465.93 64.3591 471.362 62.41 472.717 63.972C474.071 65.5202 477.568 65.7137 477.955 73.4683C478.149 76.1776 473.491 70.5655 473.491 70.5655L469.606 69.2109C467.671 68.8238 466.704 67.4692 466.317 66.2943Z" fill="#5105E0"/>
<path d="M392.447 69.4047L391.093 68.8241L392.06 66.488L393.415 67.0824L392.447 69.4047Z" fill="#5105E0"/>
<path d="M379.26 44.2057L375.97 40.9158V38.013L375.002 37.0454L374.035 33.5621L370.745 32.5945L367.455 33.9491L363.972 36.2714L360.088 36.8519L358.152 39.1742L366.294 39.9482L367.842 42.464L373.662 43.0446L377.338 46.9288C380.614 47.4955 381.402 45.9474 379.26 44.2057Z" fill="#5105E0"/>
<path d="M378.873 31.599C378.292 29.2767 374.989 34.5018 378.292 35.4832C381.582 36.4508 384.886 35.4832 384.886 35.4832L385.66 33.935L398.266 34.1286C399.234 33.161 399.815 31.6128 399.815 31.6128C399.815 31.6128 402.911 30.6452 404.086 31.0322C405.44 31.6128 404.279 27.5489 403.118 27.9359C401.957 28.5165 399.234 28.1294 399.234 28.1294H394.769C394.576 26.3878 390.498 27.1618 390.304 28.1294C390.111 29.097 388.563 29.4841 388.563 29.4841L382.743 30.0646C382.177 31.599 379.066 32.7601 378.873 31.599Z" fill="#5105E0"/>
<path d="M353.868 74.837C357.752 75.9981 359.107 75.2241 359.494 74.063C359.687 73.0954 360.074 72.7083 361.429 72.5148C362.977 72.3213 361.235 69.225 359.687 69.4185C358.139 69.612 356.591 68.8379 356.397 67.6768C356.204 66.3221 353.688 63.0185 353.301 65.5481C353.108 68.0638 351.56 68.0638 351.753 69.8193C352.126 71.9204 352.9 74.6435 353.868 74.837Z" fill="#5105E0"/>
<path d="M324.785 77.7397C324.591 76.7721 329.83 76.7721 330.604 77.5462C331.378 78.3203 330.797 79.6749 333.12 79.6749C335.442 79.6749 334.474 81.2231 334.087 81.9971C333.894 82.7712 331.378 82.5777 330.991 81.8036C330.797 81.0295 326.913 80.836 326.913 80.836C326.913 80.836 325.172 79.0943 324.785 77.7397Z" fill="#5105E0"/>
<path d="M408.15 25.9733L408.537 26.5538L409.117 26.1668L411.647 24.0381L410.666 22.877L408.73 24.4251L407.376 23.264L406.408 24.2316L408.15 25.9733Z" fill="#5105E0"/>
<path d="M396.719 19.9603L397.106 19.7667L400.009 18.025L399.235 16.6704L396.719 18.2186L395.157 17.251L394.383 18.4121L396.332 19.7667L396.719 19.9603Z" fill="#5105E0"/>
<path d="M387.789 72.3073L389.351 74.8369L390.512 74.049L388.77 71.1462L388.577 70.9527H388.176L385.66 70.5657V72.1138L387.789 72.3073Z" fill="#5105E0"/>
<path d="M305.211 142.292L305.405 145.195H309.082C310.63 145.195 307.921 143.454 307.921 143.454C307.921 143.454 305.018 143.661 305.211 142.292Z" fill="#5105E0"/>
<path d="M310.049 142.293L311.016 141.132L312.385 142.486L311.403 143.661L310.049 142.293Z" fill="#5105E0"/>
<path d="M264.103 94.4102L265.07 93.4426L266.632 94.9908L265.457 95.9584L264.103 94.4102Z" fill="#5105E0"/>
<path d="M335.262 425.537L336.229 426.518L337.584 425.343L338.165 424.569L337.391 423.989L334.875 422.828L334.087 424.182L335.649 424.956L335.262 425.537Z" fill="#5105E0"/>
<path d="M315.288 406.931L317.029 408.286L317.997 406.931L317.029 406.157L317.804 405.577L316.836 404.416L315.288 405.77L314.514 406.351L315.288 406.931Z" fill="#5105E0"/>
<path d="M505.477 357.1C505.089 355.745 503.735 355.358 503.541 355.165L503.154 356.713C503.348 356.713 503.541 356.906 503.541 356.906L503.928 358.261C503.735 358.454 503.735 358.648 503.541 358.648L504.702 359.616C505.283 358.662 505.67 357.888 505.477 357.1Z" fill="#5105E0"/>
<path d="M507.799 352.262L505.283 352.068L505.477 349.732L507.992 350.133L507.799 352.262Z" fill="#5105E0"/>
<path d="M566.16 332.288C567.321 331.514 568.676 330.353 568.482 333.255C568.289 336.158 567.127 335.191 566.16 336.158C565.192 336.946 564.612 333.255 566.16 332.288Z" fill="#5105E0"/>
<path d="M578.945 321.437V321.05C578.945 320.663 578.945 320.082 578.558 319.501L577.203 320.276C577.397 320.663 577.397 321.05 577.397 321.243C577.397 321.63 577.397 322.211 577.977 322.598C578.171 322.791 578.558 322.791 578.945 322.791L578.751 321.243L578.945 321.437Z" fill="#5105E0"/>
<path d="M575.655 322.598C576.042 324.146 576.623 325.694 576.623 325.694L577.978 325.114C577.978 325.114 577.397 323.566 577.01 322.211L575.655 322.598Z" fill="#5105E0"/>
<path d="M570.223 328.611L568.674 328.417C568.481 329.579 568.868 331.127 570.029 331.32L570.416 329.772C570.223 329.772 570.029 329.192 570.223 328.611Z" fill="#5105E0"/>
<path d="M563.436 298.173C563.436 297.592 563.049 297.205 562.662 297.012C561.5 296.431 559.565 297.399 558.777 297.979L559.551 299.334C560.519 298.753 561.68 298.366 562.067 298.56L563.436 298.173Z" fill="#5105E0"/>
<path d="M493.645 216.355C492.677 217.323 490.355 217.903 490.355 217.903L489.581 220.613L488.419 221.58C488.419 221.58 488.613 222.354 488.419 224.096C488.226 225.838 485.904 226.999 485.904 226.999L484.936 228.353C484.936 228.353 478.923 228.741 478.149 228.353C475.827 227.386 477.375 224.276 478.923 224.469C480.471 224.663 478.73 220.198 478.73 220.198L480.665 220.004C480.665 220.004 480.858 215.346 481.632 215.346C482.407 215.346 481.439 213.798 480.278 213.024C479.31 212.25 477.956 209.734 476.988 209.928C476.02 210.121 471.943 209.928 471.943 209.928L471.169 211.476L468.459 212.056C468.459 212.056 468.653 213.992 468.266 214.572C466.718 216.314 460.898 220.198 463.414 213.798L464.188 212.25V209.928L459.723 209.734C459.723 209.734 457.401 208.96 457.401 207.992C457.401 207.025 457.207 205.67 457.207 205.67L451.969 199.851L445.569 199.077L444.988 197.722L441.311 197.141C436.846 194.819 432.782 196.948 433.557 200.625C434.331 204.509 435.492 206.057 432.976 206.057C430.46 206.057 429.88 203.929 429.88 203.929C429.88 203.929 427.944 203.154 427.944 204.122C427.944 205.09 427.17 207.218 427.944 208.2C428.719 209.181 426.977 210.716 426.203 209.941C425.429 209.167 423.493 206.845 423.881 206.057C424.461 205.283 420.397 200.431 424.461 199.657C428.539 198.883 424.268 196.561 425.816 196.174L427.751 195.206H429.686L431.041 194.239L427.751 193.658L425.816 193.465L421.932 193.271C418.047 195.787 417.467 198.897 417.467 198.897C415.532 202.781 410.68 197.349 412.421 195.414C414.163 193.285 406.796 195.22 405.634 196.188C404.28 197.155 400.589 196.768 400.589 196.768C399.815 199.091 396.318 196.575 397.299 195.027C398.267 193.478 398.267 192.511 398.267 192.511L397.106 192.317L395.558 195.22C392.074 195.22 391.093 197.349 391.673 198.51C392.447 199.865 390.706 198.316 390.125 200.058C389.545 201.8 390.319 201.8 391.867 202.574C393.415 203.348 391.093 203.348 392.06 204.703C393.028 206.057 396.138 204.703 394.383 206.444C392.641 208.186 389.144 207.412 389.144 207.412C388.95 209.734 384.098 209.154 383.518 208.379C382.937 207.605 379.247 202.947 379.247 202.947L374.395 202.754C373.814 199.27 376.717 201.012 377.685 198.095C378.652 195.192 379.233 190.728 379.233 190.728C379.233 190.728 375.155 190.534 374.961 191.695C374.768 193.05 372.252 193.824 372.252 193.824C372.252 193.824 370.317 194.598 370.898 195.566C371.672 196.533 369.349 197.114 369.349 197.114C369.349 197.114 369.736 198.856 369.156 199.436C367.221 201.565 362.175 199.63 361.401 198.856L358.305 197.501L355.209 195.372L351.725 196.92L350.758 197.888H346.873L346.68 200.984L353.467 201.758L354.047 208.158L351.338 207.191H349.597L348.822 205.643L347.274 205.449V211.075L348.822 212.43L350.177 213.784L352.693 213.978L353.273 217.074L359.673 217.268L360.447 218.622L364.332 218.816L371.699 226.183L371.119 228.506L369.764 229.28C370.345 231.021 366.474 230.054 366.474 230.054V231.602L368.216 231.795L369.958 232.763L372.473 228.492C375.183 226.75 376.551 229.266 376.745 230.814C376.938 232.362 375.39 232.169 375.39 232.169V235.845L376.938 236.426C379.454 239.522 375.971 241.278 375.971 241.278L375.196 243.794C374.422 246.116 371.713 245.535 371.713 245.535L370.745 247.083L367.649 247.858L373.662 248.632C374.243 246.503 375.791 246.116 376.565 247.083C377.339 248.051 377.339 249.986 377.339 249.986L378.887 250.18L378.694 253.083L380.242 253.663V261.805L381.983 263.934C385.08 262.579 385.08 264.708 383.532 265.675C381.983 266.643 382.951 271.301 382.951 271.301L381.596 272.656V274.784L380.048 275.752V278.655C377.533 277.3 374.422 277.881 373.648 278.655C371.326 277.107 366.668 277.687 366.668 278.848C368.216 280.977 364.926 281.364 364.926 281.364L363.184 283.493C364.539 286.009 362.023 286.396 362.023 286.396V291.247L358.927 294.15L359.12 300.744C359.12 302.485 363.005 302.873 363.585 301.711C364.359 300.744 367.469 303.84 367.469 303.84H369.792L370.372 299.182L368.824 298.408V291.04L371.34 288.137C374.436 287.17 373.275 294.731 373.275 295.505C373.469 298.408 374.823 298.021 375.984 297.634C378.5 296.666 376.565 300.536 374.436 300.149C372.501 299.956 373.662 302.665 373.662 302.665L375.017 303.246L372.694 304.987L370.759 307.31L368.244 306.536L365.147 306.342L364.18 304.6L362.438 304.407L362.244 307.89L361.083 309.438L357.987 312.535C362.065 312.535 357.406 315.244 356.439 315.244C358.761 316.018 356.245 318.34 350.426 316.599V318.34L348.491 318.534L350.232 320.663L352.168 320.856L351.393 325.127C351.393 328.417 343.058 326.095 342.284 325.321L342.091 329.979L340.543 330.173L340.736 333.269L340.543 337.54L343.252 336.96V338.701L350.039 338.895L359.922 328.431L365.742 327.076C366.322 324.561 368.838 327.657 368.838 327.657C371.354 327.463 371.934 329.205 371.934 329.205L375.224 329.786C377.933 330.56 376.385 330.753 376.385 331.914C376.579 333.463 377.933 332.882 377.933 332.882L378.514 329.592L380.062 329.786L378.514 328.044L375.805 326.689L372.708 325.335C370.773 322.432 373.289 323.012 375.224 323.206H378.514C378.514 323.206 382.398 328.251 382.398 329.606C382.398 330.961 384.14 331.154 384.14 331.154L386.462 330.961L387.236 332.702H389.558L390.332 334.25H394.797L394.991 331.928L390.72 331.154L390.526 328.638L387.43 327.864C386.462 323.593 388.204 322.238 389.365 324.381L390.913 324.574L390.332 320.69L392.074 320.11L391.494 314.677L389.945 314.097V312.355L396.345 312.549C395.765 309.259 396.539 307.697 396.539 307.697H398.281L398.474 309.051L406.229 309.825L411.661 303.619C411.468 303.232 412.242 302.845 411.661 302.264C410.887 301.49 409.919 302.264 408.565 301.49C407.404 300.716 408.565 296.445 408.371 295.284C408.178 294.316 412.643 292.768 411.855 295.09C411.081 297.412 411.855 298.38 411.855 298.38C415.145 295.284 417.868 298.574 417.674 299.348C417.481 300.122 419.416 300.896 420.77 300.122C422.125 299.348 423.48 302.444 423.093 304.006C422.512 305.554 418.047 305.361 417.854 303.812C417.66 302.264 416.886 302.845 416.306 303.619C415.725 304.393 413.596 304.974 412.228 304.2C412.034 304.006 411.841 304.006 411.841 303.812L406.408 310.019H406.796C409.892 311.761 408.344 314.097 407.376 314.677C406.408 315.258 404.667 315.258 404.667 315.258L404.086 316.225L397.493 316.806L396.912 319.322C393.622 318.741 392.447 322.418 393.028 324.174C393.802 325.915 393.028 327.463 393.028 327.463L395.737 328.818L399.221 327.85C399.801 325.335 401.93 324.754 404.072 323.192C406.008 321.644 409.311 325.901 408.344 328.044C407.376 330.173 407.376 330.947 407.376 330.947L407.57 333.269L405.054 334.237L403.119 335.204L402.925 336.559H396.138L394.977 337.913L391.687 338.107L390.72 339.655L388.397 339.849C388.397 339.849 384.513 341.59 386.075 343.733C387.637 345.875 379.675 345.475 377.933 342.765C377.353 345.281 374.644 342.959 374.644 342.959L371.934 342.185L371.741 338.301C371.16 335.785 366.502 335.785 366.695 337.526C366.889 339.268 357.586 338.301 357.586 338.301L354.49 339.849L351.781 341.397L351.587 342.751L347.122 343.332L345.187 344.3L344.413 342.751H342.478L340.543 345.654C335.304 345.848 330.272 348.944 330.659 350.313C331.24 351.667 328.724 352.828 328.724 352.828L326.402 353.602L324.854 355.925L321.757 356.892L321.177 362.325L319.629 363.292V365.615L317.887 366.195V367.55L315.371 367.743L316.919 371.627L318.854 372.595C322.338 373.176 320.79 377.447 320.79 377.447L322.725 377.64L323.692 380.543L325.628 384.621C326.402 387.717 328.724 386.943 329.705 386.75C330.673 386.556 331.641 389.846 331.641 389.846L341.717 390.039C341.717 390.039 341.137 391.007 343.072 391.588C344.814 392.168 356.453 392.555 357.033 391.781C356.453 389.459 363.433 388.878 366.142 391.007C368.852 393.136 372.736 391.781 372.736 391.781L376.62 396.439L379.136 402.065L383.407 403.42L386.504 404.194L387.471 408.465L389.793 408.659L390.567 411.562C393.277 413.69 389.793 417.962 389.793 417.962V423.588L391.729 424.555L391.535 426.684L394.825 429.974L398.709 430.167L408.205 440.438L415.767 442.76L416.928 446.838L418.863 446.644L420.411 445.289L426.424 445.096L429.52 442.193L432.81 441.613L460.732 417.768L458.217 416.22V410.594C462.681 407.304 463.068 401.291 458.797 400.904C455.507 400.517 457.055 397.02 460.152 396.633L461.893 395.859V393.537L467.713 388.104V383.252L455.106 372.789C449.48 370.66 455.106 358.44 458.783 358.634C462.667 358.827 458.59 339.641 458.59 339.641L456.655 338.674L457.235 332.467H454.526L450.061 338.287L448.9 342.364C448.319 347.797 432.81 346.636 432.036 345.848C431.262 345.074 426.023 342.751 426.023 342.751C426.023 342.751 421.945 339.462 421.171 340.429C420.397 341.397 416.9 339.075 416.9 339.849C416.9 340.623 413.61 338.107 413.61 338.107L408.565 336.365L412.449 335.591L411.675 332.495L418.268 335.785C419.043 336.752 422.346 336.559 422.346 336.559L423.314 337.913C423.314 337.913 425.249 337.72 426.604 339.268C427.765 340.816 434.358 339.462 434.358 339.462L436.1 341.01L438.809 341.977L446.564 342.171L446.757 337.319L448.306 335.771L448.112 332.675L449.854 331.126V328.998L451.402 328.417L451.595 322.791L452.757 322.598V310.378L448.872 306.701C448.679 308.056 444.601 308.056 444.601 308.056C444.601 308.056 443.633 309.798 442.859 309.798C442.085 309.798 443.827 312.12 443.44 313.682C442.859 315.23 440.924 315.23 440.924 315.23L437.04 316.198L436.072 317.552H431.995L431.414 314.263L435.879 312.908L438.395 311.553L439.749 309.038C439.943 306.522 443.039 306.715 443.039 306.715C443.039 306.715 448.858 301.863 449.052 299.541C449.245 297.219 451.374 290.819 454.871 290.819H461.465C463.981 289.851 463.207 286.548 463.207 286.548L466.496 285.967L467.077 287.709C467.077 287.709 471.542 288.289 472.122 287.515C472.703 286.741 473.67 285 474.832 285.774C476.186 286.548 480.07 284.032 480.07 284.032C480.264 282.29 486.664 283.064 486.664 283.064L487.438 280.742C487.438 280.742 483.167 274.923 482.393 274.923C481.619 274.923 477.541 271.246 477.154 272.6C473.076 271.633 473.27 266.007 473.27 266.007L471.721 262.524C471.721 260.395 468.045 256.124 467.257 256.704C463.372 253.801 466.289 250.498 467.257 250.304C468.224 250.111 470.74 246.42 470.74 246.42L471.901 242.937L476.172 241.582L476.753 238.292L474.431 238.099C474.431 238.099 476.946 233.44 478.315 233.44C479.683 233.44 487.811 233.44 488.585 232.86C489.359 232.279 490.908 228.201 490.908 227.427C490.908 226.653 492.843 226.46 493.617 226.073C494.391 225.879 496.133 223.75 496.713 222.783C496.368 221.594 494.612 215.194 493.645 216.355Z" fill="#5105E0"/>
<path d="M353.867 308.637C354.254 308.25 354.642 309.798 355.416 309.604C356.19 309.411 356.577 310.959 355.803 310.959C355.029 310.959 355.029 311.927 355.029 312.314C355.029 312.701 355.029 313.668 354.448 314.249C353.867 314.83 353.287 314.442 352.513 314.055C351.739 313.668 351.352 313.668 350.384 313.668C349.416 313.668 350.191 315.217 350.191 315.217C350.191 315.217 346.306 315.023 346.901 314.442C347.675 313.862 348.449 313.668 347.868 313.281C347.288 312.894 347.868 312.507 347.868 311.733C347.868 310.959 349.804 311.346 349.223 310.766C348.642 310.185 349.223 308.056 350.191 309.217L350.771 307.863C350.191 307.282 350.578 307.089 349.416 306.702C348.255 306.315 349.223 303.992 349.223 303.992L349.416 302.444C349.804 300.509 353.494 300.315 353.688 302.057C353.881 303.799 353.688 304.96 353.688 304.96L354.849 305.347C354.849 305.347 354.655 306.508 353.688 306.508C352.72 306.508 353.688 307.089 353.107 307.669L353.867 308.637Z" fill="#5105E0"/>
<path d="M341.455 310.572C342.036 309.411 343.39 304.365 344.938 305.914C346.487 307.462 347.454 305.914 347.454 305.914C347.454 305.914 348.228 306.688 347.841 308.236C347.454 309.784 347.067 311.332 346.1 311.526C345.132 311.719 344.358 312.3 343.197 312.493C342.036 312.714 341.455 310.572 341.455 310.572Z" fill="#5105E0"/>
</svg>
