<svg width="708" height="696" viewBox="0 0 708 696" fill="none" xmlns="http://www.w3.org/2000/svg">
<path d="M449.052 683.005C444.974 687.663 439.749 692.114 434.704 695.999C402.524 662.658 364.719 625.82 328.655 625.82C306.359 625.82 290.269 642.877 271.663 654.71C245.69 671.38 210.013 680.683 179.382 668.477C162.905 662.271 147.009 652.968 135.176 638.039C159.214 654.71 195.278 656.838 222.412 645.6C252.463 633.187 282.901 616.517 317.209 616.517C367.635 616.89 415.518 651.005 449.052 683.005ZM76.4429 578.311C109.784 616.31 164.26 604.09 208.852 613.6C215.059 614.955 220.878 616.89 227.458 615.923C222.219 612.633 215.045 612.246 209.046 609.91C174.53 596.916 169.111 559.885 150.105 534.492C174.336 550.582 194.31 572.491 216.994 593.239C232.697 607.587 252.283 613.794 272.631 617.858C267.779 619.6 261.393 619.213 256.154 620.567C219.703 629.676 179.188 643.831 140.222 631.031C115.216 622.71 89.0355 603.123 76.4429 578.311ZM22.9346 490.287C43.6827 537.395 96.0299 541.086 130.919 570.155C137.512 575.588 144.106 580.619 151.28 584.116L151.667 583.729C143.719 576.555 134.997 567.833 128.79 558.724C108.816 529.834 115.603 490.287 100.094 459.655C114.055 476.326 127.048 493.577 135.19 512.583C148.184 543.214 152.441 578.311 181.331 601.768C149.925 591.498 113.861 593.433 85.5522 575.021C56.0818 555.627 28.5467 524.996 22.9346 490.287ZM0.638357 394.909C3.73468 436.585 47.9402 458.688 68.8818 492.816C73.3466 500.184 77.9911 507.552 84.5846 513.564C83.617 509.1 79.9263 505.229 77.9911 500.958C71.204 486.223 68.1077 469.359 69.8494 451.914C71.9781 430.779 80.7004 411.013 77.4105 388.716C95.629 427.877 89.8234 476.934 100.287 519.384C102.61 528.687 108.235 537.022 111.926 545.938C94.0947 532.364 70.6373 520.351 51.0503 504.842C32.0577 489.913 15.567 472.469 7.03834 449.592C0.638357 433.102 -0.909804 413.515 0.638357 394.909ZM1.79948 318.33C3.9282 309.028 5.47636 299.531 9.5541 290.989C1.993 330.149 27.9661 358.458 36.8957 392.379C40.1856 405.179 41.3605 418.74 46.5855 430.572C46.9726 430.766 47.5531 430.378 47.7467 429.991C34.9467 393.928 53.7596 360.587 72.1716 332.084C77.0235 324.523 79.3457 315.994 81.668 307.079C83.6032 323.362 80.1198 342.368 77.2032 359.232C73.3189 380.948 65.9652 401.295 59.9522 422.237C56.068 435.23 57.0494 450.159 59.1782 463.719L57.243 462.171C43.4754 436.972 16.5346 417.191 8.39298 389.67C1.79948 367.761 -2.66531 342.368 1.79948 318.33ZM16.3411 276.254C16.3411 246.59 27.98 222.358 45.2309 200.256C45.8115 200.062 46.005 199.481 46.7791 199.675C27.7864 228.758 45.0374 265.209 42.7013 298.163L39.992 331.891C40.3791 332.084 40.3791 333.052 41.1532 332.665C42.3143 328.988 42.7013 324.91 43.2819 321.026C47.9402 293.878 71.7846 274.885 92.1319 255.685C96.9837 251.22 100.467 245.802 102.789 239.982C101.048 253.556 97.3569 267.518 91.1504 279.723C75.6412 311.322 45.3968 336.715 39.9644 372.779C37.2828 338.498 16.3411 312.898 16.3411 276.254ZM66.5457 176.218C76.0421 165.56 86.9068 157.225 99.693 154.115C74.8809 171.172 76.2356 201.804 68.6745 227.21C65.9652 236.513 61.8874 245.235 59.5652 254.939L60.1458 255.519C64.2235 244.668 71.3838 234.191 80.7004 225.468C98.1448 208.992 124.519 199.108 133.048 174.863C132.66 208.397 104.158 233.804 77.9911 253.57C66.3522 262.486 56.2754 274.318 50.2624 286.717C51.23 277.415 51.8106 269.854 50.843 260.744C48.1337 231.274 46.5855 198.514 66.5457 176.218ZM167.37 120C148.958 136.09 136.545 157.031 122.39 175.637C110.558 191.146 94.4679 200.836 80.5207 213.83C88.0818 198.32 89.4364 180.489 98.9327 165.367C115.41 139.781 142.35 129.69 167.37 120Z" fill="#5105E0"/>
<path d="M258.684 683.005C262.761 687.663 267.986 692.114 273.032 695.999C305.211 662.658 343.017 625.82 379.081 625.82C401.377 625.82 417.467 642.877 436.072 654.71C462.046 671.38 497.722 680.683 528.354 668.477C544.831 662.271 560.727 652.968 572.559 638.039C548.521 654.71 512.457 656.838 485.323 645.6C455.272 633.187 424.834 616.517 390.526 616.517C340.1 616.89 292.218 651.005 258.684 683.005ZM631.293 578.311C597.952 616.31 543.476 604.09 498.883 613.6C492.677 614.955 486.858 616.89 480.278 615.923C485.517 612.633 492.691 612.246 498.69 609.91C533.206 596.916 538.624 559.885 557.631 534.492C533.399 550.582 513.425 572.491 490.742 593.239C475.039 607.587 455.452 613.794 435.105 617.858C439.957 619.6 446.343 619.213 451.582 620.567C488.032 629.676 528.547 643.831 567.514 631.031C592.519 622.71 618.7 603.123 631.293 578.311ZM684.801 490.287C664.053 537.395 611.706 541.086 576.817 570.155C570.223 575.588 563.63 580.619 556.456 584.116L556.069 583.729C564.017 576.555 572.739 567.833 578.945 558.724C598.919 529.834 592.132 490.287 607.642 459.655C593.681 476.326 580.687 493.577 572.545 512.583C559.552 543.214 555.295 578.311 526.405 601.768C557.81 591.498 593.874 593.433 622.183 575.021C651.654 555.627 679.189 524.996 684.801 490.287ZM707.097 394.909C704.001 436.391 659.795 458.688 638.854 492.816C634.389 500.184 629.744 507.552 623.151 513.564C624.118 509.1 627.809 505.229 629.744 500.958C636.531 486.223 639.628 469.359 637.886 451.914C635.757 430.779 627.035 411.013 630.325 388.716C612.106 427.877 617.912 476.934 607.448 519.384C605.126 528.687 599.5 537.022 595.809 545.938C613.641 532.364 637.098 520.351 656.685 504.842C675.678 489.913 692.168 472.469 700.697 449.592C707.097 433.102 708.645 413.515 707.097 394.909ZM705.936 318.33C703.807 309.028 702.259 299.531 698.181 290.989C705.743 330.149 679.769 358.458 670.84 392.379C667.55 405.179 666.375 418.74 661.15 430.572C660.763 430.766 660.182 430.378 659.989 429.991C672.789 393.928 653.976 360.587 635.564 332.084C630.712 324.523 628.39 315.994 626.068 307.079C624.132 323.362 627.616 342.368 630.532 359.232C634.417 380.948 641.77 401.295 647.783 422.237C651.667 435.23 650.686 450.159 648.557 463.719L650.493 462.171C664.26 436.972 691.201 417.191 699.342 389.67C705.936 367.761 710.401 342.368 705.936 318.33ZM691.394 276.254C691.394 246.59 679.756 222.358 662.505 200.256C661.924 200.062 661.731 199.481 660.956 199.675C679.949 228.758 662.698 265.209 665.034 298.163L667.55 331.891C667.163 332.084 667.163 333.052 666.389 332.665C665.228 328.988 664.841 324.91 664.26 321.026C659.602 293.878 635.757 274.885 615.41 255.685C610.558 251.22 607.075 245.802 604.753 239.982C606.494 253.556 610.185 267.518 616.392 279.723C631.901 311.322 662.145 336.715 667.578 372.779C670.453 338.498 691.394 312.898 691.394 276.254ZM641.19 176.218C631.693 165.56 620.829 157.225 608.043 154.115C632.855 171.172 631.5 201.804 639.061 227.21C641.77 236.513 645.848 245.235 648.17 254.939L647.59 255.519C643.512 244.668 636.352 234.191 627.035 225.468C609.591 208.992 583.217 199.108 574.688 174.863C575.075 208.397 603.578 233.804 629.744 253.57C641.383 262.486 651.46 274.318 657.473 286.717C656.505 277.415 655.925 269.854 656.893 260.744C659.602 231.274 661.15 198.514 641.19 176.218ZM540.366 120C558.778 136.09 571.191 157.031 585.345 175.637C597.178 191.146 613.268 200.836 627.215 213.83C619.654 198.32 618.299 180.489 608.803 165.367C592.326 139.781 565.385 129.69 540.366 120Z" fill="#5105E0"/>
<path d="M387.336 0C390.127 2.14054 391.579 5.39517 393.444 8.26174C403.696 24.7852 413.911 41.3212 424.15 57.8572C431.573 70.5628 440.348 82.3921 448.648 94.5218C474.735 131.449 498.544 169.904 523.604 207.52C531.716 222.792 540.215 237.863 548.039 253.285C552.483 264.701 557.59 275.917 561.032 287.684C564.137 301.691 569.707 315.185 570.709 329.606C572.599 341.373 571.535 353.315 571.81 365.169C572.286 379.89 570.346 394.536 569.081 409.169C566.991 417.931 565.188 426.769 562.76 435.456C560.169 443.205 556.764 450.665 553.847 458.301C550.655 467.076 545.686 475.05 541.354 483.299C535.371 495.216 526.921 505.631 519.536 516.672C513.64 522.442 508.683 529.077 502.574 534.66C494.763 543.234 485.074 549.719 475.999 556.841C466.21 563.013 456.208 568.871 446.257 574.767C438.12 578.409 429.746 581.501 421.472 584.806C409.63 588.073 397.6 590.652 385.658 593.493C372.878 595.058 360.184 598.087 347.279 598.075C350.22 594.858 352.674 591.228 355.866 588.236C361.624 583.254 363.214 575.43 366.706 568.959C369.022 563.776 372.74 558.969 373.053 553.111C373.954 543.485 376.383 533.984 375.882 524.258C375.519 514.969 377.134 505.343 373.553 496.468C371.238 483.625 364.904 472.133 359.734 460.317C344.988 435.582 329.328 411.397 314.056 386.987C305.519 371.716 296.782 356.557 288.533 341.135C284.302 330.507 280.258 319.805 276.328 309.077C269.618 282.827 263.697 255.989 264.398 228.738C265.738 214.805 267.44 200.911 269.143 187.016C271.709 170.793 274.538 154.62 277.166 138.409C277.442 136.356 278.143 134.391 279.019 132.513C280.171 149.149 282.299 165.748 286.405 181.934C290.686 195.578 296.106 208.847 301.363 222.153C306.058 231.529 309.65 241.506 315.471 250.293C326.437 265.515 336.563 281.425 348.718 295.758C352.599 299.488 355.816 303.794 359.571 307.65C371.15 321.469 385.345 332.873 396.899 346.73C401.055 350.786 405.274 354.867 408.541 359.724C413.698 367.948 419.256 375.909 424.589 384.033C431.473 396.138 437.632 408.631 443.766 421.124C448.222 430.587 451.164 440.939 457.448 449.439C458.349 439.45 455.908 429.636 454.969 419.747C453.142 403.824 447.734 388.69 442.451 373.656C440.173 367.447 436.806 361.739 434.002 355.768C427.668 341.222 420.02 327.29 412.697 313.22C407.464 300.815 400.604 289.173 395.372 276.781C389.401 265.427 384.469 253.61 378.561 242.232C371.964 226.897 364.653 211.851 358.845 196.191C355.741 186.941 351.71 178.003 349.069 168.602C346.678 156.46 343.736 144.43 341.483 132.263C338.416 108.992 334.36 85.6467 335.65 62.0757C337.515 65.6558 338.491 69.5739 339.405 73.4794C341.157 81.0277 343.999 88.2629 346.365 95.6359C348.167 100.818 349.119 106.314 351.66 111.221C357.493 122.587 362.838 134.191 369.16 145.294C371.551 151.24 375.994 155.922 379.512 161.192C388.612 173.522 396.724 186.528 405.361 199.171C421.134 220.488 438.533 240.604 453.354 262.611C461.704 274.014 469.027 286.107 476.65 297.999C481.156 305.609 486.852 312.594 489.981 320.944C494.663 330.87 500.146 340.409 504.189 350.623C509.359 363.592 514.917 376.46 518.585 389.954C520.3 396.063 522.014 402.172 523.992 408.205C524.293 400.044 527.522 392.257 527.059 384.046C526.821 370.276 527.572 356.469 526.283 342.725C523.479 319.391 513.915 297.648 504.702 276.255C498.131 259.982 488.955 244.923 482.07 228.8C468.626 202.275 457.035 174.886 443.628 148.348C437.156 136.782 431.26 124.903 424.776 113.336C421.209 106.151 418.492 98.5901 415.25 91.2547C411.044 80.5895 405.975 70.2498 402.783 59.2091C398.752 44.9639 393.131 31.1693 390.34 16.5986C389.263 11.0782 387.148 5.70811 387.336 0Z" fill="#5105E0"/>
<path d="M154.806 280.636C156.622 275.741 158.211 270.772 160.389 266.028C161.153 272.975 159.163 279.76 158.086 286.557C154.569 306.535 153.893 327.34 158.787 347.155C162.242 358.784 166.41 370.188 170.954 381.442C173.345 390.079 179.667 396.676 183.923 404.374C187.954 411.722 194.325 417.23 199.608 423.614C206.956 431.888 216.331 437.822 225.019 444.531C234.144 451.942 245.398 455.872 255.537 461.606C261.133 465.023 267.391 467.126 273.375 469.767C277.043 469.98 275.891 465.661 274.539 463.746C265.176 448.737 257.29 432.865 248.001 417.806C246.274 414.939 244.446 412.098 243.195 408.968C238.438 395.524 233.981 381.942 230.915 367.998C228.198 345.09 229.35 321.995 229.125 298.987C229.312 294.18 228.549 289.286 229.725 284.579C232.429 297.134 232.204 310.215 235.408 322.721C240.691 347.043 249.14 370.689 260.744 392.708C269.882 406.69 279.358 420.497 290.149 433.278C299.337 442.441 308.487 451.654 317.7 460.804C326.037 467.051 331.996 475.701 339.006 483.286C347.142 499.785 351.098 518.411 350.222 536.825C348.482 544.799 346.992 552.973 342.636 560.045C340.896 564.965 337.053 568.445 333.46 572.025C328.766 578.86 321.043 582.49 315.184 588.185C313.307 584.756 313.344 580.675 311.479 577.257C309.301 572.588 305.608 568.921 302.091 565.278C292.001 559.758 281.887 554.212 271.297 549.681C253.234 539.241 234.47 529.777 218.071 516.746C209.872 509.924 200.947 503.903 193.787 495.929C190.031 491.598 184.799 488.807 181.432 484.113C174.91 475.701 167.524 467.915 161.917 458.827C157.898 451.979 152.691 445.758 149.95 438.235C145.381 427.407 139.159 416.98 137.607 405.163C134.302 390.855 135.229 376.059 135.078 361.488C134.365 349.496 138.709 338.067 140.599 326.363C143.265 310.528 150.012 295.857 154.806 280.636Z" fill="#5105E0"/>
</svg>
