<svg width="695" height="600" viewBox="0 0 695 600" fill="none" xmlns="http://www.w3.org/2000/svg">
<path d="M327.251 120.993C254.468 132.632 205.389 173.18 179.345 241.985C177.402 247.116 177.89 248.779 183.936 248.054C228.22 242.748 272.535 237.711 316.837 232.54C323.755 231.732 330.673 230.801 337.54 229.658C339.483 229.337 342.165 229.014 342.758 226.744C343.457 224.061 340.512 223.708 338.977 222.492C336.255 220.33 333.273 218.415 330.882 215.932C320.535 205.189 320.908 188.717 331.543 178.405C341.991 168.276 358.838 168.239 369.393 178.321C380.347 188.782 380.834 204.707 370.546 215.808C367.834 218.735 364.637 221.034 361.217 223.055C359.822 223.881 358.095 224.625 358.443 226.613C358.781 228.549 360.705 228.879 362.223 229.207C366.077 230.033 369.957 230.82 373.867 231.278C421.165 236.812 468.467 242.319 515.772 247.798C524.041 248.766 524.19 248.704 521.382 240.593C496.353 168.301 427.888 119.702 350.895 119.569C342.994 119.705 335.11 119.736 327.251 120.993Z" fill="#5105E0"/>
<path d="M528.383 266.972C526.479 256.855 526.501 257.019 516.356 258.348C484.578 262.512 452.811 266.782 420.985 270.552C390.955 274.11 376.883 286.062 369.373 315.486C366.421 327.05 365.51 338.831 365.467 353.817C365.785 358.397 366.092 366.066 366.889 373.693C370.422 407.447 380.048 439.116 399.029 467.635C401.912 471.958 404.629 472.371 409.246 470.784C493.766 441.744 544.847 354.474 528.383 266.972Z" fill="#5105E0"/>
<path d="M293.361 471.296C297.001 472.631 299.126 472.058 301.351 468.679C305.819 461.878 310.109 454.997 313.674 447.69C327.625 419.086 334.403 388.752 335.545 356.997C335.78 336.247 334.902 315.598 324.717 296.762C316.85 282.22 305.136 272.968 287.914 271.689C279.366 271.052 270.884 269.527 262.371 268.432C235.448 264.953 208.511 261.583 181.614 257.925C176.426 257.219 174.394 258.594 173.399 263.929C168.632 289.38 168.15 314.821 174.433 339.949C190.64 404.794 230.722 448.308 293.361 471.296Z" fill="#5105E0"/>
<path d="M418.964 596.218C420.638 598.152 421.692 600.933 425.605 598.754C433.687 594.253 433.964 593.894 427.599 587.233C425.511 585.049 423.378 582.903 421.179 580.832C402.34 563.108 380.495 550.17 356.596 539.963C362.779 538.006 368.943 538.313 375.126 539.084C391.196 541.086 406.135 546.984 421.014 552.848C449.695 564.152 479.018 570.909 510.111 567.699C530.135 565.629 549.633 561.935 567.113 551.229C569.92 549.51 573.26 548.192 575.119 543.632C565.702 546.971 557.013 548.56 547.891 548.51C528.77 548.406 510.639 543.505 492.746 537.724C444.719 522.204 396.536 521.08 348.034 535.101C344.756 536.049 341.709 535.608 338.484 534.676C321.695 529.824 304.544 527.082 287.11 525.772C254.142 523.295 222.361 528.984 191.081 538.875C175.804 543.709 160.336 547.666 144.135 548.386C133.128 548.876 122.535 547.484 112.047 544.003C120.373 552.433 130.521 557.381 141.424 560.631C179.094 571.858 216.472 571.115 253.574 557.648C270.349 551.559 286.738 544.233 304.306 540.557C313.16 538.707 322.121 537.099 332.239 539.909C324.198 543.644 317.139 546.588 310.387 550.12C290.895 560.318 273.136 572.888 258.327 589.327C257.095 590.695 254.561 591.833 255.877 594.387C258.352 599.175 265.735 599.842 269.314 595.694C282.265 580.68 295.846 566.167 313.007 555.996C343.782 537.756 344.002 537.733 374.798 555.996C392.171 566.301 405.832 581.056 418.964 596.218Z" fill="#5105E0"/>
<path d="M156.884 524.895C172.542 523.567 187.955 519.341 203.885 521.429C206.065 521.717 208.497 521.742 210.742 518.916C197.575 511.408 189.419 499.677 184.481 485.925C173.934 456.549 154.18 433.517 133.974 410.718C133.755 410.367 133.514 410.03 133.253 409.709C133.195 409.643 132.793 409.728 132.767 409.811C131.95 412.429 132.306 414.927 133.603 417.315C133.88 428.494 135.272 439.548 138.037 450.37C144.666 476.309 156.689 498.357 182.36 510.267C183.647 510.865 185.546 511.32 184.912 513.649C182.201 513.964 179.953 512.848 177.714 511.669C156.096 500.285 133.008 493.08 108.822 491.082C85.588 489.17 66.7378 479.243 49.6863 464.49C44.4704 459.978 39.3496 455.358 33.7129 450.367C33.9003 451.654 33.8498 452.347 34.102 452.905C58.2272 506.21 105.842 529.222 156.884 524.895Z" fill="#5105E0"/>
<path d="M96.9005 448.278C77.9221 426.353 59.9756 403.488 35.7308 386.684C23.1818 377.988 15.5777 365.076 9.73198 351.166C9.01135 349.436 8.2374 347.737 6.94027 344.775C6.29747 354.894 6.59149 363.466 8.25037 371.934C15.3644 408.261 34.2737 436.348 67.6805 453.055C83.5891 461.012 101.151 465.448 117.157 473.471C118.826 474.307 120.923 475.165 122.281 473.46C123.391 472.065 121.898 470.419 121.272 468.98C115.128 454.987 111.691 440.574 112.691 425.083C113.708 409.331 114.292 393.505 110.032 378.005C106.365 364.668 102.037 351.605 94.4071 338.809C89.7418 350.376 86.6921 361.296 85.6385 372.559C83.5646 394.714 83.3787 416.655 96.1078 436.529C99.0826 441.174 100.997 446.5 103.398 451.516C102.813 452.125 102.228 452.736 101.644 453.348C100.055 451.654 98.4109 450.025 96.9005 448.278Z" fill="#5105E0"/>
<path d="M537.841 526.242C553.314 527.488 568.027 525.691 582.149 519.842C610.699 508.017 632.315 487.581 650.429 463.123C653.662 458.759 655.932 453.702 657.446 447.772C655.986 448.124 655.14 448.06 654.783 448.452C637.391 467.586 614.572 477.142 590.617 484.458C571.271 490.366 552.205 496.81 534.408 506.628C529.552 509.307 524.334 511.337 519.244 513.584C515.641 515.169 511.919 515.256 507.742 514.016C523.757 503.213 536.554 489.646 546.134 473.314C555.919 456.65 556.249 437.342 560.858 417.751C539.421 435.531 524.737 456.567 513.635 480.048C506.311 495.542 498.686 510.483 484.303 520.746C483.833 521.082 483.635 521.801 482.51 523.673C501.965 518.525 519.76 524.786 537.841 526.242Z" fill="#5105E0"/>
<path d="M61.5442 383.828C62.4608 385.381 63.3328 387.801 67.07 386.952C63.1944 368.972 70.3186 352.931 76.4381 336.66C80.4405 326.031 84.6201 315.456 87.0703 304.309C90.9804 286.453 93.0241 268.459 91.7687 248.283C85.6405 256.578 82.6326 264.772 76.7451 270.975C69.0402 279.093 64.6717 289.018 61.3237 299.508C55.9536 316.368 58.6415 333.604 58.7294 350.725C58.7424 353.267 59.7873 356.098 57.3516 358.4C54.6319 354.663 54.5916 354.669 54.139 351.483C51.4093 332.284 44.216 315.045 33.0852 299.064C20.4843 280.965 11.4116 261.23 10.9403 238.523C10.8971 236.428 10.727 234.331 8.75247 232.007C3.25409 244.762 0.267808 257.339 0.0184712 270.445C-0.478762 296.502 9.08973 318.903 25.4782 338.721C37.7448 353.555 51.6601 367.07 61.5442 383.828Z" fill="#5105E0"/>
<path d="M41.6547 276.662C42.1203 279.034 42.1318 281.694 45.2867 283.002C46.0073 281.019 46.7193 279.325 47.2497 277.575C51.8329 262.48 58.931 249.386 71.261 238.617C87.096 224.783 99.7041 207.987 107.889 188.325C110.254 182.643 112.985 176.953 112.835 169.334C98.1937 180.18 82.7463 188.306 70.487 200.82C58.0303 213.53 52.2494 229.641 48.8091 248.67C46.2754 244.018 47.2079 241.698 47.5408 239.487C50.984 216.575 51.4538 193.638 47.2771 170.807C44.6064 156.212 45.7825 142.263 51.2189 128.453C53.2857 123.205 55.8554 117.883 55.57 111.861C54.8091 111.925 54.2729 111.821 53.9328 112.03C53.3478 112.401 52.8302 112.869 52.4022 113.413C23.4704 149.562 11.3149 189.197 29.1879 234.073C34.7309 247.992 38.7953 262.087 41.6547 276.662Z" fill="#5105E0"/>
<path d="M64.0745 182.054C65.0733 181.09 66.1009 180.111 66.8821 178.977C75.1765 166.947 86.4471 159.036 99.773 153.131C125.835 141.581 147.115 123.209 167.378 103.592C167.696 103.284 168.54 102.79 167.753 102.124C155.688 105.548 143.815 109.632 131.625 112.211C114.021 115.928 100.991 125.91 90.0964 139.501C88.4505 141.553 87.2888 144.287 84.01 144.627C83.1164 141.981 85.1932 140.723 86.3635 139.206C98.6891 123.228 107.765 105.63 113.067 86.1229C115.383 77.5992 118.381 69.3176 122.241 61.3833C125.824 54.0154 129.68 46.78 133.507 39.3082C132.769 39.3082 132.275 39.1641 131.955 39.3342C130.731 39.9956 129.555 40.7464 128.378 41.4871C92.6906 63.9455 76.2171 98.1584 69.645 138.209C67.3793 152.011 70.2546 166.665 62.6779 179.604C62.2874 180.271 62.6275 181.366 62.6275 182.306C63.2458 182.211 63.8223 182.299 64.0745 182.054Z" fill="#5105E0"/>
<path d="M642.818 346.943C641.354 341.914 641.823 337.162 642.488 332.4C644.018 321.433 642.989 310.843 639.549 300.166C633.123 280.217 620.329 263.158 614.641 241.516C611.778 248.651 611.571 254.676 611.112 260.619C608.99 288.04 617.269 313.34 627.35 338.195C632.057 349.798 635.228 361.437 632.266 374.052C631.784 376.104 631.374 378.554 633.94 380.214C637.84 375.794 640.116 370.679 642.844 365.873C646.056 360.212 649.139 354.489 653.846 349.877C665.766 338.205 674.758 324.371 682.275 309.673C693.295 288.126 696.832 265.217 693.092 239.414C686.055 259.689 675.853 276.304 665.531 292.759C654.973 309.579 649.358 328.328 642.818 346.943Z" fill="#5105E0"/>
<path d="M127.763 95.7362C140.878 85.3752 157.056 85.2167 172.285 82.0738C193.442 77.7003 214.447 72.942 234.159 63.7886C236.651 62.6357 239.809 62.0593 241.626 58.4726C214.684 59.2868 187.754 53.6625 163.301 68.3062L161.716 66.7974C175.696 56.7765 189.441 46.5668 199.765 32.4231C207.28 22.1443 214.632 11.6262 225.287 4.14297C225.464 4.01904 225.254 3.34175 225.225 2.90945C223.337 2.27972 221.573 2.8691 219.761 3.30285C194.085 9.46036 173.864 23.5493 158.031 44.607C146.29 60.222 139.472 78.843 127.11 94.0242C126.98 94.1885 127.4 94.8096 127.763 95.7362Z" fill="#5105E0"/>
<path d="M633.575 197.317C624.87 188.959 615.892 180.889 607.037 172.694C606.275 171.341 604.674 169.255 603.822 170.358C602.62 171.916 604.044 174.282 605.185 176.079C605.596 177.879 605.891 179.715 606.438 181.473C613.478 204.172 625.356 224.36 639.859 242.894C647.097 252.144 652.711 261.483 652.914 273.46C652.914 273.764 653.437 274.059 653.835 274.486C657.099 273.427 657.265 270.429 657.859 267.82C659.616 260.096 662.314 252.725 665.611 245.528C680.548 212.948 683.461 180.036 668.04 146.69C667.11 144.887 665.848 142.209 665.523 146.783C665.199 151.357 665.569 155.98 665.634 160.581C665.408 162.887 665.438 165.26 664.914 167.498C660.391 187.035 657.843 206.779 657.951 226.868C657.981 232.692 657.265 238.519 656.856 244.907C654.483 243.002 654.594 241.016 654.499 239.287C653.571 222.266 645.513 208.776 633.575 197.317Z" fill="#5105E0"/>
<path d="M612.407 121.154C599.335 112.851 583.806 109.007 572.165 97.9971L570.594 99.6932C571.829 102.079 572.976 104.515 574.312 106.841C586.632 128.279 604.205 144.74 624.487 158.298C632.999 163.992 639.826 170.946 645.817 179.019C646.979 180.582 647.476 182.9 649.89 183.351C659.267 147.816 639.666 82.8475 615.097 69.6924C617.332 76.4897 619.653 82.8418 620.071 89.4907C621.153 106.754 626.039 122.695 634.946 137.559C637.916 142.518 639.202 148.319 639.114 154.328C637.036 151.776 635.61 148.966 634.069 146.224C628.536 136.406 622.041 127.27 612.407 121.154Z" fill="#5105E0"/>
<path d="M215.941 40.5015C229.378 38.4293 241.437 42.9772 253.781 47.4285C274.413 54.8657 295.818 55.6741 317.629 52.0874C304.638 48.4329 293.543 40.526 280.602 36.8586C267.508 33.1465 253.897 35.6885 240.613 33.4419C268.331 26.6518 292.016 9.30038 322.459 5.29576C309.744 0.409235 298.893 -0.805552 287.58 0.474082C257.529 3.87203 235.744 22.8432 212.504 40.1283C213.802 40.2825 214.909 40.66 215.941 40.5015Z" fill="#5105E0"/>
<path d="M329.101 41.8676C341.946 55.1683 359.142 58.5591 376.028 62.6775C377.06 62.9297 378.321 63.0882 379.366 60.967C372.105 54.5933 364.8 47.9617 357.247 41.6097C349.344 34.9579 338.268 35.494 329.681 29.8005C341.245 29.5742 352.674 31.0974 364.013 28.5352C375.111 26.0336 386.454 25.3808 399.656 26.3045C376.596 9.64192 336.021 11.2213 307.051 28.7802C316.187 30.6089 323.067 35.6208 329.101 41.8676Z" fill="#5105E0"/>
<path d="M588.902 74.8024C579.495 68.0641 570.491 60.2682 559.089 57.51C548.033 54.834 536.636 53.5703 523.402 51.354C537.769 62.7121 551.191 71.7964 566.973 76.3745C580.962 80.4325 594.254 85.3536 605.4 97.9366C604.711 87.7226 599.656 80.7884 598.523 72.7186C597.082 62.434 592.702 53.2201 587.259 44.5091C581.766 35.7188 562.802 24.1502 554.398 24.2655C566.407 40.6615 578.414 57.0585 590.421 73.4564L588.902 74.8024Z" fill="#5105E0"/>
<path d="M447.129 78.961C444.454 62.7783 410.997 42.1586 384.096 42.1817C404.337 58.3457 426.382 68.3262 447.129 78.961Z" fill="#5105E0"/>
<path d="M489.49 12.5485C508.866 23.9095 525.644 39.7364 549.494 41.2869C540.39 25.4586 511.116 11.5095 489.49 12.5485Z" fill="#5105E0"/>
<path d="M690.489 334.282C688.481 336.234 687.027 338.683 686.277 341.381C683.215 352.265 676.289 360.473 668.815 368.616C647.314 392.036 624.155 413.996 606.077 440.462C599.925 449.47 595.542 452.203 587.785 454.666C615.219 417.75 613.696 378.463 604.476 338.231C602.458 339.067 602.026 341.266 601.111 343.019C592.829 358.96 587.589 375.937 582.936 393.261C575.866 419.596 582.315 447.224 573.777 475.201C591.202 461.411 611.481 456.467 629.103 446.184C631.504 444.782 633.728 443.079 636.021 441.499C671.891 416.8 684.659 379.737 690.799 339.129C692.169 337.588 692.368 335.614 691.841 333.895C691.349 332.265 690.689 333.171 690.489 334.282Z" fill="#5105E0"/>
</svg>
