<svg width="508" height="600" viewBox="0 0 508 600" fill="none" xmlns="http://www.w3.org/2000/svg">
<path d="M226.96 84.7981C189.192 83.0166 153.207 78.0285 121.14 69.8337V0H226.96V84.7981ZM77.3159 56.2945V0H0.356208V13.8955C11.7576 23.5154 26.3658 33.1354 42.7553 41.3301C53.0879 46.6746 64.8455 51.6627 77.3159 56.2945ZM226.96 128.622C189.549 126.841 153.919 122.565 121.14 115.083V207.007C153.563 223.753 189.192 234.085 226.96 237.648V128.622ZM77.3159 179.216V102.969C48.456 93.3491 22.8028 81.5914 0.356208 67.696V90.4988C19.5961 124.703 45.9619 154.988 77.3159 179.216ZM120.428 513.777V464.252H226.96V453.563V414.727H120.428V365.202H226.96V281.473C136.461 274.347 55.9382 231.235 0 166.39V599.287H226.96V513.42H120.428V513.777Z" fill="#5105E0"/>
<path d="M280.047 0H381.591V70.9026C350.593 78.3848 316.389 83.3729 280.047 84.7981V0ZM484.204 80.5225C466.389 89.4299 446.436 97.2684 425.059 104.038V182.423C458.551 157.838 486.341 126.128 506.65 89.7862V67.3397C499.881 71.9715 492.042 76.247 484.204 80.5225ZM381.591 209.145C381.235 208.789 381.591 208.789 381.591 209.145V115.796C349.881 122.565 315.676 127.197 280.047 128.622V237.648C316.033 234.442 350.237 224.466 381.591 209.145ZM425.059 0V57.7197C458.907 45.6057 486.698 30.6413 506.65 13.8955V0H425.059ZM280.047 281.829V365.558H381.947V415.083H280.047V453.919V464.608H381.947V514.133H280.047V600H507.007V166.39C451.068 231.235 370.546 274.703 280.047 281.829Z" fill="#5105E0"/>
</svg>
