<?xml version="1.0" encoding="UTF-8"?>
<svg width="145px" height="103px" viewBox="0 0 145 103" version="1.1" xmlns="http://www.w3.org/2000/svg" xmlns:xlink="http://www.w3.org/1999/xlink">
    <!-- Generator: sketchtool 53.2 (72643) - https://sketchapp.com -->
    <title>9643ADDC-4238-492C-871D-682ACE5B1A22</title>
    <desc>Created with sketchtool.</desc>
    <g id="01---Homepage" stroke="none" stroke-width="1" fill="none" fill-rule="evenodd">
        <g id="01_01_1" transform="translate(-180.000000, -4840.000000)" fill="#191A1A">
            <g id="Footer" transform="translate(0.000000, 4680.000000)">
                <g id="Logos/black/corwin" transform="translate(180.000000, 160.000000)">
                    <path d="M-4.03711737e-13,90.2223346 C-4.03711737e-13,82.9350847 5.5819858,78.0158047 12.7877659,78.0158047 C19.1441134,78.0158047 22.2528723,81.6249247 23.6668794,84.8797247 L17.5213475,87.7472446 C16.9207801,85.9066346 15.0830851,84.3152847 12.7877659,84.3152847 C9.53812054,84.3152847 7.24177303,86.9314846 7.24177303,90.2223346 C7.24177303,93.5121545 9.53812054,96.1293845 12.7877659,96.1293845 C15.0830851,96.1293845 16.9207801,94.5390645 17.5213475,92.6974245 L23.6668794,95.5278645 C22.2888652,98.6776045 19.1441134,102.428864 12.7877659,102.428864 C5.5819858,102.428864 -4.03711737e-13,97.4755945 -4.03711737e-13,90.2223346" id="Fill-1"></path>
                    <path d="M37.5103683,96.1297929 C34.0838435,96.1297929 31.8574251,93.5135929 31.8574251,90.2227431 C31.8574251,86.9318932 34.0838435,84.3126033 37.5103683,84.3126033 C40.9368932,84.3126033 43.1622833,86.9318932 43.1622833,90.2227431 C43.1622833,93.5135929 40.9368932,96.1297929 37.5103683,96.1297929 M37.5103683,78.0162134 C30.2346592,78.0162134 24.6156522,82.9694834 24.6156522,90.2227435 C24.6156522,97.4760036 30.2346592,102.428244 37.5103683,102.428244 C44.7860775,102.428244 50.4040561,97.4760036 50.4040561,90.2227435 C50.4040561,82.9694834 44.7860775,78.0162134 37.5103683,78.0162134" id="Fill-4"></path>
                    <path d="M64.4237074,88.4882301 L60.0788492,88.4882301 L60.0788492,84.3476301 L64.4237074,84.3476301 C65.6238138,84.3476301 66.7550195,85.1263101 66.7550195,86.4024801 C66.7550195,87.7095501 65.6238138,88.4882301 64.4237074,88.4882301 L64.4237074,88.4882301 Z M69.7578561,93.6536805 C71.6294873,92.7359505 73.9967922,90.5760405 73.9967922,86.5065103 C73.9967922,82.0847202 71.0289199,78.4045301 65.5168632,78.4045301 L52.9440263,78.4045301 L52.9440263,102.003891 L60.078849,102.003891 L60.078849,94.4323606 L62.6569695,94.4323606 L65.9066149,102.003891 L74.0327851,102.003891 L69.7578561,93.6536805 Z" id="Fill-6"></path>
                    <polygon id="Fill-8" points="101.085466 78.4055595 98.0846861 92.84101 94.5141895 78.4055595 89.1471326 78.4055595 85.5797211 92.84101 82.5419196 78.4055595 74.5566356 78.4055595 81.3047919 102.00492 88.7944021 102.00492 91.8322036 88.6303698 94.8689768 102.00492 102.358587 102.00492 109.104686 78.4055595"></polygon>
                    <polygon id="Fill-10" points="110.584606 102.0044 117.718401 102.0044 117.718401 78.4060703 110.584606 78.4060703"></polygon>
                    <polygon id="Fill-12" points="137.076317 78.4055595 137.076317 90.2927899 128.881245 78.4055595 121.53355 78.4055595 121.53355 102.00492 128.667345 102.00492 128.667345 89.3379799 137.357061 102.00492 144.210111 102.00492 144.210111 78.4055595"></polygon>
                    <path d="M105.900904,12.6298601 L105.900904,-4.39115411e-14 L39.6832102,-4.39115411e-14 L39.6832102,66.3196405 L105.900904,66.3196405 L105.900904,28.7648102 L76.168706,29.7618502 C76.168706,29.7618502 84.6558335,25.0918302 105.900904,20.9193002 L105.900904,20.8080602 L74.0862592,21.8741102 C74.0862592,21.8741102 83.1184222,16.9012701 105.900904,12.6298601" id="Fill-13"></path>
                </g>
            </g>
        </g>
    </g>
</svg>