<svg width="2100" height="598" viewBox="0 0 2100 598" fill="none" xmlns="http://www.w3.org/2000/svg">
<path d="M1559.19 401.634C1555.02 397.222 1548.48 393.048 1547.3 375.773C1539.57 262.358 1564.7 80.3648 1564.95 78.5408C1568.14 55.6395 1552.11 34.4115 1529.21 31.2169C1506.31 28.0222 1485.08 44.0529 1481.89 66.9542C1479.16 86.5195 1455.46 261.578 1463.63 381.476C1466.49 423.496 1483.93 456.029 1512.72 473.078C1519.2 476.91 1526.57 478.936 1534.05 478.936C1548.82 478.936 1562.66 471.05 1570.17 458.36C1575.88 448.72 1577.49 437.438 1574.71 426.588C1571.93 415.734 1566.94 409.846 1559.19 401.634Z" fill="black"/>
<path d="M1349.95 327.591C1341.33 364.4 1309.63 391.224 1280.71 386.172C1267.53 383.867 1259.49 375.465 1255.06 368.823C1245.69 354.755 1242.98 335.309 1247.62 315.479C1255.53 281.669 1282.92 256.284 1309.74 256.284C1312.12 256.284 1314.5 256.485 1316.86 256.897C1330.04 259.204 1338.08 267.605 1342.5 274.248C1351.88 288.317 1354.59 307.76 1349.95 327.591ZM1329.51 177.48C1294.17 171.297 1257.87 180.897 1227.28 204.504C1198.45 226.755 1177.84 259.229 1169.25 295.951C1159.54 337.46 1166.49 380.071 1188.32 412.855C1207.18 441.168 1235.49 459.896 1268.06 465.591C1275.05 466.816 1282.09 467.42 1289.11 467.42C1317.55 467.42 1345.76 457.497 1370.28 438.564C1399.12 416.317 1419.72 383.841 1428.32 347.12V347.119C1438.03 305.609 1431.08 262.999 1409.25 230.215C1390.39 201.903 1362.07 183.173 1329.51 177.48Z" fill="black"/>
<path d="M1027.91 324.037C1021.84 356.905 995.509 382.027 970.379 378.877C959.103 377.467 951.877 370.532 947.799 364.961C938.929 352.845 935.741 335.607 939.05 317.664C944.771 286.659 968.533 262.557 992.291 262.557C993.721 262.557 995.153 262.644 996.578 262.823C1007.85 264.233 1015.08 271.169 1019.16 276.737C1028.03 288.853 1031.22 306.093 1027.91 324.037ZM1137.88 402.829C1134.17 400.437 1130.65 396.803 1130.01 386.496C1122.6 267.916 1145.69 115.397 1145.97 113.52C1149.39 91.3227 1134.16 70.5627 1111.96 67.148C1089.76 63.7334 1069 78.9627 1065.59 101.157C1065.09 104.42 1059.02 144.404 1053.99 199.428C1039.82 190.215 1023.78 184.264 1006.68 182.123C972.617 177.863 938.35 188.803 910.173 212.927C883.751 235.547 865.603 267.503 859.071 302.905C851.717 342.772 860.138 382.899 882.175 413.003C901.301 439.127 929.038 455.667 960.279 459.576C965.098 460.177 969.919 460.477 974.731 460.477C1003.91 460.477 1032.59 449.484 1056.78 428.773C1056.99 428.592 1057.19 428.399 1057.4 428.216C1065 445.829 1077.33 460.552 1093.77 471.161C1100.59 475.563 1108.23 477.665 1115.79 477.664C1129.14 477.664 1142.21 471.097 1149.99 459.045C1162.17 440.176 1156.75 415.008 1137.88 402.829Z" fill="black"/>
<path d="M2098.91 358.017C2094.3 300.651 2039.27 288.175 2009.64 281.461C2009.11 281.35 1998.48 279.201 1992.7 278.253C1975.87 275.457 1960.07 270.573 1961.42 260.523C1962.24 254.48 1974.13 249.537 1989.95 250.917C2008.73 252.555 2017.55 255.822 2037.49 263.082C2057.44 270.345 2077.16 264.423 2086.97 247.175C2097.62 228.435 2090.5 204.655 2071.24 194.729C2065.44 191.735 2060.12 189.146 2056.47 187.677C2040.16 181.113 2014.8 174.886 1981.25 178.525C1965.04 180.266 1924.56 187.555 1898.71 217.607C1883.92 234.798 1877.19 255.91 1879.25 278.667C1884.12 332.373 1937.61 344.707 1966.34 350.882C1966.34 350.882 1976.97 352.973 1989.41 356.515C1995.67 358.301 2010.13 361.161 2014.9 368.655C2019.31 375.575 2015.14 385.955 2001.2 389.402C1994.09 391.159 1982.2 391.427 1973.95 389.806C1960.69 387.198 1947.49 384.143 1928.17 374.593C1908.84 365.041 1887.35 370.958 1876.74 388.498C1865.81 406.554 1871.7 429.97 1889.89 440.834C1889.89 440.834 1899.35 446.533 1904.9 449.082C1923.1 457.447 1949.73 465.342 1979.66 465.61C2020.71 465.979 2053.06 452.389 2075.83 427.621C2093.08 408.843 2101.07 384.775 2098.91 358.017Z" fill="black"/>
<path d="M1769.84 284.272C1762.51 287.143 1746.5 288.428 1735.01 288.657C1712.97 289.136 1692.57 285.641 1678.72 279.141C1682.94 273.883 1690.19 266.676 1701.83 260.033C1712.86 253.741 1729.15 250.313 1745.57 250.895C1758.5 251.345 1774.61 256.617 1777.43 269.991C1778.92 277.071 1778.16 281.015 1769.84 284.272ZM1798.72 193.673C1760.6 172.489 1708.32 172.904 1668.63 194.701C1614.93 224.192 1587.51 273.12 1589.34 336.199C1590.16 364.384 1600.61 392.888 1618 414.403C1633.67 433.775 1662.44 458.077 1710.54 463.839C1716.98 464.613 1723.69 465 1730.56 465C1732.98 465 1735.41 464.953 1737.87 464.857C1766.75 463.723 1794.07 456.696 1815.51 444.455C1833.06 434.443 1839.61 411.545 1830.13 393.413C1825.53 384.616 1817.89 378.239 1808.61 375.449C1799.33 372.657 1789.52 373.8 1781 378.659C1767.55 386.339 1743.09 391.98 1719.44 389.163C1690.53 385.696 1675.63 370.197 1668.22 357.805C1667.02 355.793 1665.56 352.879 1664.46 350.557C1683.58 359.332 1723.08 361.255 1739.21 360.752C1762.39 360 1818.7 355.325 1841.15 328.189C1853.62 313.108 1856.67 290.987 1850.21 262.439C1843.41 232.395 1825.61 208.615 1798.72 193.673Z" fill="black"/>
<path d="M130.904 196.669C131.82 196.617 132.74 196.552 133.66 196.472H133.664C134.268 196.419 134.856 196.353 135.448 196.276C154.803 193.657 168.649 176.352 166.971 156.879C166.132 147.144 161.553 138.316 154.073 132.024C146.593 125.733 137.113 122.716 127.379 123.571C116.96 124.456 107.812 116.743 106.916 106.356C106.48 101.329 108.035 96.4306 111.291 92.5599C114.501 88.7359 119.177 86.3093 124.137 85.8973C144.232 84.1066 159.172 66.3466 157.445 46.3079C155.712 26.2106 137.979 11.2266 117.857 12.9933C93.3493 15.1066 71.1306 26.6333 55.2973 45.4479C39.4626 64.2693 31.9026 88.1319 34.012 112.641C38.2973 162.304 81.4653 199.457 130.904 196.669Z" fill="black"/>
<path d="M754.114 284.272C746.79 287.143 730.778 288.428 719.29 288.657C697.246 289.136 676.843 285.641 662.996 279.141C667.215 273.883 674.463 266.676 686.11 260.033C697.139 253.741 713.431 250.313 729.844 250.895C742.779 251.345 758.887 256.617 761.704 269.991C763.195 277.071 762.439 281.015 754.114 284.272ZM782.996 193.673C744.876 172.489 692.591 172.904 652.908 194.701C599.208 224.192 571.79 273.12 573.619 336.199C574.435 364.384 584.882 392.888 602.278 414.403C617.944 433.775 646.716 458.077 694.815 463.839C701.259 464.613 707.967 465 714.835 465C717.254 465 719.691 464.953 722.146 464.857C751.03 463.723 778.347 456.696 799.79 444.455C817.334 434.443 823.89 411.545 814.407 393.413C809.804 384.616 802.163 378.239 792.883 375.449C783.602 372.657 773.796 373.8 765.279 378.659C751.82 386.339 727.367 391.98 703.719 389.163C674.806 385.696 659.903 370.197 652.495 357.805C651.291 355.793 649.832 352.879 648.73 350.557C667.854 359.332 707.356 361.255 723.488 360.752C746.66 360 802.976 355.325 825.419 328.189C837.895 313.108 840.947 290.987 834.488 262.439C827.691 232.395 809.887 208.615 782.996 193.673Z" fill="black"/>
<path d="M372.247 4.52143C361.467 0.418759 349.721 0.765416 339.171 5.50275C328.625 10.2361 320.561 18.7774 316.463 29.5561C312.361 40.3348 312.71 52.0801 317.445 62.6281C322.178 73.1761 330.719 81.2427 341.497 85.3401C429.074 118.66 474.267 200.663 453.957 289.392C443.21 336.347 418.811 371.653 381.441 394.329C380.885 394.667 380.322 394.981 379.763 395.311C354.637 369.007 318.311 341.311 274.778 324.653C299.591 233.719 300.097 139.301 276.951 34.4188C274.459 23.1401 267.73 13.5081 257.997 7.29075C248.302 1.10675 236.731 -0.942593 225.401 1.51874C202.123 6.66407 187.363 29.7894 192.501 53.0668C213.027 146.052 212.015 229.331 188.823 309.497C165.514 310.352 142.953 315.481 121.482 324.701C110.433 329.447 98.1473 333.387 90.1393 332.252C79.7873 330.785 72.6326 321.163 74.1152 310.844C74.8326 305.848 77.4566 301.431 81.5059 298.401C85.5019 295.405 90.6046 294.103 95.5299 294.827C115.506 297.643 134.087 283.736 136.951 263.828C139.825 243.861 125.953 225.245 105.954 222.4C81.6059 218.897 57.3512 225.083 37.6632 239.813C17.9712 254.551 5.19389 276.076 1.68722 300.425C-3.35144 335.476 12.1632 368.815 39.0539 388.244C34.9859 393.409 31.0299 398.979 27.4232 404.913C7.3139 439.029 2.25526 477.473 14.2499 513.448C29.1859 558.249 67.4072 590.768 111.621 596.296C118.133 597.111 124.358 597.496 130.341 597.496C194.622 597.491 229.581 552.784 260.726 512.94C261.421 512.052 262.15 511.231 262.867 510.388C323.925 510.296 381.133 495.689 426.297 468.272C483.609 433.496 522.323 378.309 538.255 308.677C568.603 176.073 501.89 53.8428 372.247 4.52143Z" fill="black"/>
<path d="M208.317 471.97C172.463 517.833 155.554 534.745 119.871 530.285C101.218 527.953 84.1326 512.729 77.3553 492.404C68.9686 467.252 77.7673 440.441 102.129 416.913C130.371 389.637 161.879 375.888 196.013 375.888C202.197 375.888 208.467 376.34 214.821 377.244C219.399 377.894 223.923 378.778 228.394 379.834C195.387 385.066 157.302 401.442 124.518 442.566C116.502 452.621 118.155 467.272 128.21 475.285C132.498 478.705 137.621 480.364 142.709 480.364C149.551 480.364 156.333 477.36 160.93 471.593C196.261 427.273 239.545 421.542 270.986 425.166C248.678 433.996 226.629 448.545 208.317 471.97Z" fill="white"/>
</svg>
