<svg width="335" height="99" viewBox="0 0 335 99" fill="none" xmlns="http://www.w3.org/2000/svg">
<path d="M51.293 4.81372H0.17334V93.2093L24.6295 93.3294L24.7317 71.6H52.7364C64.3561 71.6 73.7729 62.8477 73.7729 52.5333V25.8112C73.7732 14.2195 62.9094 4.81372 51.293 4.81372ZM49.994 44.1558C49.994 48.0737 48.0832 50.0092 44.0983 50.0092H24.6295L24.5273 26.4086H44.3492C48.0835 26.4086 49.9943 28.539 49.9943 32.2718L49.994 44.1558Z" fill="black"/>
<path d="M131.085 4.53204H79.9653V92.9234L104.421 93.0481L104.532 71.3233H132.523C144.148 71.3233 153.561 62.571 153.561 52.2521V25.5347C153.56 13.9383 142.701 4.53204 131.085 4.53204ZM129.786 43.8694C129.786 47.7919 127.875 49.7326 123.885 49.7326H104.421L104.324 26.1274H124.15C127.875 26.1274 129.786 28.2624 129.786 31.9905V43.8694Z" fill="black"/>
<path d="M176.221 10.568C176.221 8.67336 175.658 6.82133 174.604 5.24605C173.55 3.67077 172.051 2.44299 170.298 1.71798C168.545 0.992969 166.615 0.803282 164.754 1.17291C162.893 1.54253 161.183 2.45487 159.841 3.79455C158.499 5.13423 157.586 6.84108 157.215 8.69927C156.845 10.5575 157.035 12.4835 157.761 14.2339C158.488 15.9843 159.717 17.4804 161.295 18.533C162.873 19.5856 164.728 20.1474 166.626 20.1474C167.886 20.1477 169.134 19.9001 170.298 19.4188C171.462 18.9375 172.52 18.2318 173.411 17.3423C174.302 16.4527 175.009 15.3965 175.491 14.2342C175.973 13.0718 176.221 11.826 176.221 10.568ZM159.009 10.568C159.009 9.06386 159.455 7.59339 160.292 6.34254C161.128 5.09169 162.318 4.11663 163.709 3.54069C165.101 2.96475 166.633 2.8138 168.11 3.10693C169.588 3.40006 170.945 4.1241 172.011 5.18748C173.076 6.25086 173.802 7.60582 174.096 9.08098C174.39 10.5561 174.24 12.0852 173.663 13.4749C173.087 14.8646 172.111 16.0523 170.858 16.888C169.605 17.7237 168.133 18.1697 166.626 18.1697C164.606 18.17 162.669 17.3692 161.241 15.9436C159.812 14.518 159.009 12.5844 159.009 10.568H159.009Z" fill="black"/>
<path d="M167.554 12.3594C167.668 12.943 167.839 13.5141 168.064 14.0646H169.76C169.525 13.388 169.326 12.6996 169.163 12.0022C169.119 11.7136 169.008 11.4393 168.838 11.2017C168.668 10.9642 168.444 10.7701 168.185 10.6353V10.6044C168.559 10.4719 168.883 10.2283 169.114 9.90633C169.346 9.58438 169.473 9.1995 169.478 8.80335C169.494 8.51319 169.441 8.2235 169.323 7.95767C169.206 7.69184 169.027 7.45734 168.802 7.2731C168.1 6.8209 167.266 6.61787 166.435 6.69676C165.696 6.69195 164.959 6.74366 164.228 6.85144V14.0646H165.868V11.1892H166.37C167.044 11.2007 167.356 11.4482 167.554 12.3594ZM165.868 9.99668V7.97662C166.116 7.93737 166.367 7.91942 166.618 7.92298C167.381 7.93434 167.835 8.272 167.835 8.9446C167.835 9.58277 167.345 9.99668 166.522 9.99668H165.868Z" fill="black"/>
<path d="M166.338 38.1235V59.2696H171.149V51.5725C171.695 51.6717 172.25 51.7153 172.805 51.7024C175.676 51.7024 178.126 50.9705 179.782 49.4422C180.451 48.781 180.972 47.9863 181.313 47.1102C181.653 46.234 181.805 45.296 181.758 44.3574C181.782 43.4101 181.588 42.4699 181.189 41.6097C180.791 40.7494 180.2 39.9923 179.462 39.3968C178.028 38.253 175.899 37.6788 172.902 37.6788C170.706 37.6481 168.51 37.7968 166.338 38.1235ZM176.947 44.5142C176.947 46.6769 175.356 47.9831 172.777 47.9831C172.231 48.002 171.685 47.9584 171.149 47.8532V41.5271C171.799 41.3986 172.463 41.3457 173.125 41.3695C175.579 41.3697 176.947 42.5459 176.947 44.5144V44.5142Z" fill="black"/>
<path d="M191.129 59.6199C195.299 59.6199 199.345 57.0124 199.345 51.3162C199.345 46.6153 196.157 43.3366 191.417 43.3366C186.384 43.3366 183.072 46.5509 183.072 51.6079C183.071 56.6283 186.573 59.6199 191.129 59.6199ZM191.254 46.8056C193.453 46.8056 194.343 49.1582 194.343 51.4461C194.343 54.2805 193.165 56.1512 191.254 56.1512C189.185 56.1512 188.072 54.1508 188.072 51.4782C188.072 49.1859 188.963 46.8056 191.254 46.8056Z" fill="black"/>
<path d="M207.188 59.2688V51.3818C207.186 51.0199 207.218 50.6586 207.286 50.303C207.443 49.5616 207.867 48.9032 208.477 48.4519C209.087 48.0007 209.841 47.7877 210.597 47.8531C211.035 47.8558 211.472 47.8993 211.901 47.983V43.4344C211.567 43.3653 211.226 43.3326 210.885 43.337C209.931 43.3675 209.012 43.6978 208.257 44.2808C207.502 44.8638 206.951 45.6697 206.682 46.5837H206.552L206.363 43.7215H202.22C202.318 45.0555 202.35 46.5472 202.35 48.8393V59.2688H207.188Z" fill="black"/>
<path d="M222.996 59.2687H227.356C227.154 58.0289 227.069 56.773 227.101 55.5174V50.0805C227.101 46.3939 225.478 43.3416 220.286 43.3416C218.186 43.304 216.109 43.7828 214.237 44.7358L215.128 47.8522C216.436 47.0967 217.917 46.6917 219.428 46.6765C221.817 46.6765 222.258 47.8522 222.258 48.714V48.9033C216.751 48.9033 213.119 50.8115 213.119 54.85C213.119 55.4984 213.25 56.1401 213.506 56.736C213.762 57.332 214.137 57.8695 214.608 58.316C215.079 58.7624 215.636 59.1082 216.245 59.3324C216.855 59.5566 217.504 59.6545 218.152 59.62C218.991 59.6558 219.827 59.5029 220.599 59.1727C221.37 58.8425 222.058 58.3434 222.61 57.7123H222.703L222.996 59.2687ZM222.421 53.6092C222.421 53.8866 222.39 54.1631 222.328 54.4334C222.143 54.9535 221.802 55.404 221.351 55.7232C220.9 56.0425 220.361 56.2148 219.809 56.2168C219.557 56.2425 219.302 56.2131 219.063 56.1305C218.823 56.0479 218.605 55.9142 218.422 55.7387C218.24 55.5632 218.098 55.3501 218.007 55.1142C217.915 54.8784 217.876 54.6255 217.893 54.3731C217.893 52.5257 219.874 51.9237 222.421 51.9237V53.6092Z" fill="black"/>
<path d="M241.699 57.0133L241.894 59.2683H246.189C246.124 58.2219 246.064 56.3741 246.064 54.6282V36.691H241.221V45.0871H241.161C240.67 44.4837 240.039 44.0089 239.323 43.7039C238.606 43.3989 237.826 43.2728 237.05 43.3366C233.322 43.3366 230.046 46.3931 230.074 51.6357C230.074 56.4711 233.038 59.6198 236.73 59.6198C237.702 59.6597 238.666 59.4389 239.523 58.9803C240.379 58.5218 241.097 57.8424 241.602 57.0128L241.699 57.0133ZM241.221 52.3356C241.222 52.7095 241.191 53.0829 241.128 53.4516C241 54.1081 240.646 54.6993 240.128 55.123C239.609 55.5467 238.959 55.7762 238.289 55.7721C236.285 55.7721 234.977 54.1185 234.977 51.4789C234.977 49.0337 236.095 47.0559 238.322 47.0559C238.994 47.0624 239.643 47.2999 240.16 47.7284C240.677 48.1569 241.031 48.7502 241.161 49.4085C241.21 49.7038 241.23 50.0031 241.221 50.3023V52.3356Z" fill="black"/>
<path d="M257.314 59.5863C258.793 59.6327 260.266 59.3838 261.647 58.8543L261.072 55.2932C260.194 55.6543 259.251 55.8278 258.302 55.8024C257.17 55.7771 256.091 55.3132 255.295 54.5088C254.499 53.7043 254.047 52.6223 254.035 51.4913C254.023 50.3603 254.451 49.269 255.231 48.4479C256.01 47.6267 257.078 47.1401 258.21 47.0909C259.135 47.0597 260.056 47.2225 260.914 47.5686L261.679 43.9744C260.49 43.5702 259.242 43.3667 257.987 43.3724C252.188 43.3724 249.066 47.0912 249.066 51.6395C249.066 56.5018 252.286 59.5863 257.314 59.5863Z" fill="black"/>
<path d="M263.44 54.8504C263.44 55.4988 263.571 56.1405 263.827 56.7364C264.083 57.3324 264.458 57.8699 264.929 58.3163C265.4 58.7627 265.958 59.1086 266.567 59.3328C267.176 59.557 267.825 59.6548 268.474 59.6203C269.312 59.6562 270.149 59.5034 270.92 59.1732C271.692 58.843 272.379 58.3438 272.931 57.7127H273.024L273.317 59.2687H277.677C277.476 58.0289 277.39 56.773 277.422 55.5174V50.0805C277.422 46.3939 275.799 43.3416 270.608 43.3416C268.507 43.304 266.43 43.7828 264.559 44.7358L265.449 47.8522C266.757 47.0967 268.238 46.6917 269.749 46.6765C272.138 46.6765 272.579 47.8522 272.579 48.714V48.9033C267.073 48.9037 263.44 50.8119 263.44 54.8504ZM272.741 51.9237V53.6093C272.742 53.8867 272.711 54.1632 272.648 54.4335C272.464 54.9536 272.123 55.4042 271.672 55.7234C271.221 56.0427 270.683 56.215 270.13 56.2169C269.878 56.2427 269.623 56.2132 269.384 56.1306C269.145 56.0481 268.926 55.9144 268.744 55.7388C268.561 55.5633 268.419 55.3502 268.328 55.1144C268.236 54.8785 268.198 54.6256 268.214 54.3732C268.214 52.5257 270.195 51.9237 272.741 51.9237Z" fill="black"/>
<path d="M175.734 76.1704C174.728 76.1252 173.727 76.331 172.821 76.7693C171.914 77.2076 171.132 77.8644 170.544 78.6805H170.478L170.255 76.5178H166.057C166.118 77.9857 166.183 79.699 166.183 81.7324V98.3632H171.021V90.6384H171.086C171.571 91.2337 172.191 91.7054 172.894 92.0146C173.597 92.3238 174.364 92.4616 175.131 92.4167C178.601 92.4167 182.201 89.7446 182.201 84.0851C182.201 79.1254 179.144 76.1704 175.734 76.1704ZM173.953 88.6976C173.291 88.6921 172.649 88.4624 172.135 88.0461C171.62 87.6297 171.262 87.0513 171.119 86.4054C171.051 86.0716 171.018 85.7317 171.021 85.3911V83.2608C171.02 82.9724 171.052 82.6848 171.119 82.4041C171.251 81.7281 171.609 81.1172 172.135 80.6719C172.661 80.2265 173.324 79.9732 174.013 79.9537C176.18 79.9537 177.298 81.8299 177.298 84.3073C177.298 86.9472 176.055 88.6976 173.953 88.6976H173.953Z" fill="black"/>
<path d="M192.788 76.1362C187.755 76.1362 184.443 79.3505 184.443 84.4074C184.443 89.428 187.945 92.4195 192.501 92.4195C196.671 92.4195 200.716 89.8118 200.716 84.1157C200.716 79.4148 197.529 76.1362 192.788 76.1362ZM192.626 88.9505C190.557 88.9505 189.444 86.9501 189.444 84.2781C189.444 81.9854 190.335 79.6051 192.626 79.6051C194.825 79.6051 195.715 81.9577 195.715 84.2456C195.715 87.0794 194.537 88.9505 192.626 88.9505H192.626Z" fill="black"/>
<path d="M218.882 69.4952H214.039V77.8869H213.979C213.488 77.2834 212.857 76.8085 212.141 76.5033C211.424 76.1982 210.644 76.0721 209.868 76.1359C206.139 76.1359 202.859 79.1926 202.892 84.435C202.892 89.2704 205.856 92.4193 209.548 92.4193C210.52 92.4591 211.484 92.2383 212.34 91.7798C213.197 91.3212 213.915 90.6418 214.419 89.8121H214.517L214.712 92.0672H219.007C218.942 91.0209 218.882 89.173 218.882 87.4271V69.4952ZM214.039 85.1347C214.04 85.5086 214.009 85.8819 213.946 86.2506C213.818 86.9071 213.464 87.4983 212.946 87.922C212.427 88.3457 211.777 88.5753 211.107 88.5711C209.103 88.5711 207.795 86.9177 207.795 84.278C207.795 81.8328 208.913 79.8551 211.14 79.8551C211.812 79.8615 212.461 80.099 212.978 80.5275C213.495 80.956 213.849 81.5494 213.979 82.2076C214.028 82.5029 214.048 82.8023 214.039 83.1014V85.1347Z" fill="black"/>
<path d="M231.982 76.1706C231.033 76.1473 230.093 76.3655 229.251 76.8048C228.41 77.244 227.694 77.8898 227.172 78.6813H227.079L226.856 76.5232H222.649C222.713 77.917 222.778 79.5428 222.778 81.4781V92.0699H227.617V83.1038C227.598 82.6929 227.653 82.282 227.779 81.8905C227.953 81.3689 228.286 80.9143 228.731 80.5898C229.175 80.2654 229.71 80.0871 230.261 80.0797C232.014 80.0797 232.715 81.4462 232.715 83.4508V92.0696H237.558V82.8817C237.558 78.3015 235.164 76.1706 231.982 76.1706Z" fill="black"/>
<path d="M246.288 76.5215H241.45V92.0683H246.288V76.5215Z" fill="black"/>
<path d="M243.901 69.7785C243.427 69.8029 242.97 69.9656 242.588 70.2464C242.206 70.5272 241.914 70.9139 241.75 71.3584C241.585 71.8029 241.555 72.2859 241.663 72.7474C241.77 73.2089 242.011 73.6288 242.356 73.955C242.7 74.2812 243.132 74.4994 243.6 74.5827C244.067 74.6659 244.549 74.6104 244.985 74.4232C245.421 74.236 245.792 73.9252 246.053 73.5293C246.314 73.1334 246.453 72.6698 246.452 72.1959C246.456 71.8663 246.391 71.5397 246.262 71.2362C246.134 70.9328 245.944 70.6591 245.704 70.4323C245.465 70.2054 245.181 70.0303 244.871 69.9178C244.56 69.8053 244.23 69.7579 243.901 69.7785Z" fill="black"/>
<path d="M265.188 76.5203H259.357L256.207 81.1938C255.799 81.7973 255.426 82.4232 255.089 83.0687H255.024V69.4902H250.186V92.0676H255.024V87.205L256.235 85.6768L260.025 92.0675H265.981L259.612 82.8143L265.188 76.5203Z" fill="black"/>
<path d="M280.575 82.879C280.575 79.1924 278.951 76.1402 273.76 76.1402C271.66 76.1027 269.583 76.5815 267.711 77.5345L268.602 80.6514C269.91 79.8954 271.391 79.4902 272.902 79.4751C275.291 79.4751 275.732 80.6514 275.732 81.5127V81.7019C270.226 81.7019 266.594 83.6101 266.594 87.6487C266.593 88.297 266.724 88.9388 266.98 89.5347C267.236 90.1307 267.611 90.6682 268.082 91.1146C268.553 91.5611 269.11 91.9069 269.72 92.1311C270.329 92.3553 270.978 92.4531 271.626 92.4185C272.465 92.4543 273.301 92.3015 274.073 91.9713C274.845 91.6411 275.532 91.142 276.085 90.5109H276.177L276.47 92.067H280.83C280.628 90.8271 280.543 89.5712 280.575 88.3156L280.575 82.879ZM275.894 86.4077C275.895 86.6851 275.864 86.9616 275.802 87.2319C275.617 87.7521 275.276 88.2025 274.825 88.5218C274.374 88.841 273.836 89.0134 273.283 89.0154C273.031 89.0411 272.776 89.0116 272.537 88.9291C272.298 88.8466 272.079 88.7129 271.897 88.5374C271.714 88.362 271.572 88.1489 271.481 87.9132C271.389 87.6774 271.351 87.4245 271.367 87.1722C271.367 85.3244 273.348 84.7223 275.894 84.7223V86.4077Z" fill="black"/>
<path d="M289.6 72.3224L284.85 73.6285V76.5232H282.781V80.0798H284.85V86.4383C284.85 88.6335 285.3 90.1293 286.19 91.0463C287.189 91.9559 288.505 92.4368 289.856 92.3849C290.91 92.4095 291.962 92.2704 292.973 91.9725L292.945 88.314C292.475 88.4159 291.993 88.4595 291.512 88.4438C290.078 88.4438 289.6 87.5825 289.6 85.7068V80.0798H293.07V76.5232H289.6L289.6 72.3224Z" fill="black"/>
<path d="M302.729 76.1714C297.316 76.1714 294.862 80.5243 294.862 84.4659C294.862 89.3333 297.886 92.3851 303.175 92.3851C305.099 92.4255 307.014 92.092 308.811 91.4032L308.171 88.1244C306.786 88.5895 305.332 88.8149 303.871 88.7909C301.611 88.7909 299.607 87.8368 299.477 85.8364H309.512C309.617 85.2059 309.67 84.5676 309.669 83.9282C309.669 80.08 307.762 76.1714 302.729 76.1714ZM299.445 82.5298C299.575 81.2562 300.401 79.3805 302.441 79.3805C304.668 79.3805 305.178 81.3536 305.178 82.5298H299.445Z" fill="black"/>
<path d="M320.857 76.33C321.499 75.7315 322.011 75.0081 322.362 74.2046C322.713 73.401 322.895 72.5342 322.898 71.6576C322.918 71.1851 322.838 70.7137 322.662 70.2745C322.486 69.8354 322.219 69.4386 321.878 69.1102L318.853 69.62C319.256 70.2692 319.476 71.0148 319.489 71.7782C319.465 72.9171 319.159 74.0323 318.598 75.0245L320.857 76.33Z" fill="black"/>
<path d="M317.417 69.4948H312.579V92.0675H317.417V69.4948Z" fill="black"/>
<path d="M334.626 88.3159V82.879C334.626 79.1924 333.002 76.1402 327.811 76.1402C325.711 76.1027 323.633 76.5815 321.762 77.5345L322.652 80.6514C323.96 79.8953 325.442 79.4901 326.953 79.4751C329.342 79.4751 329.782 80.6514 329.782 81.5127V81.7019C324.276 81.7019 320.644 83.6101 320.644 87.6486C320.643 88.2971 320.774 88.9388 321.03 89.5348C321.286 90.1307 321.661 90.6683 322.132 91.1147C322.603 91.5611 323.161 91.9069 323.77 92.1311C324.38 92.3553 325.028 92.4531 325.677 92.4185C326.516 92.4543 327.352 92.3015 328.123 91.9713C328.895 91.6411 329.583 91.142 330.135 90.5109H330.227L330.52 92.067H334.881C334.679 90.8273 334.593 89.5715 334.626 88.3159ZM329.945 86.4077C329.946 86.6851 329.915 86.9617 329.852 87.2319C329.667 87.7521 329.326 88.2026 328.875 88.5219C328.424 88.8411 327.886 89.0135 327.333 89.0154C327.081 89.0411 326.826 89.0116 326.587 88.9291C326.348 88.8466 326.129 88.7129 325.947 88.5374C325.764 88.362 325.623 88.1489 325.531 87.9132C325.44 87.6774 325.401 87.4245 325.417 87.1722C325.417 85.3244 327.398 84.7223 329.945 84.7223L329.945 86.4077Z" fill="black"/>
</svg>
