<svg width="357" height="68" viewBox="0 0 357 68" fill="none" xmlns="http://www.w3.org/2000/svg">
<path d="M29.3495 14.7096C28.5807 14.7096 27.8118 14.3251 26.2737 14.3251C20.8917 14.3251 15.125 17.7872 12.4342 25.0958L12.0496 15.4791H0.900879C1.28551 20.0952 1.28551 25.0958 1.28551 31.635V65.4858H13.9719V39.7132C13.9719 38.1746 14.3561 37.0206 14.3561 35.8666C15.5096 30.0965 19.7386 26.2499 25.5048 26.2499C27.0429 26.2499 28.196 26.6344 29.3495 26.6344V14.7096ZM53.1846 14.3251C37.0381 14.3251 28.5807 27.4039 28.5807 41.2518C28.5807 56.6386 38.1916 66.6399 54.3381 66.6399C61.6425 66.6399 67.4087 65.1013 72.0223 63.5627L70.0999 55.1C66.2556 56.6386 62.0267 57.4081 56.26 57.4081C48.1868 57.4081 41.2671 53.5615 40.8824 44.3293H74.3289C74.7131 43.1753 74.7131 41.2518 74.7131 38.9437C74.7131 27.7884 69.7157 14.3251 53.1846 14.3251ZM40.8824 35.482C41.2671 30.481 44.7271 23.1723 52.4158 23.1723C60.8736 23.1723 62.7956 30.866 62.7956 35.482H40.8824ZM98.9328 35.8666C92.3973 33.5585 90.0907 32.02 90.0907 28.9424C90.0907 25.8653 92.3973 23.5573 97.0109 23.5573C101.624 23.5573 105.468 25.0958 107.775 26.2499L110.082 17.4026C107.391 15.8637 102.393 14.3251 96.6262 14.3251C85.0929 14.3251 77.7889 21.2492 77.7889 30.0965C77.7889 35.8666 81.6333 41.2518 91.6284 44.7138C97.7797 47.0219 99.7017 48.5604 99.7017 52.0225C99.7017 55.4846 97.3951 57.4081 91.6284 57.4081C87.0153 57.4081 81.6333 55.4846 78.9421 53.946L76.6355 63.1782C80.4798 65.1013 85.8622 66.6399 92.0131 66.6399C105.468 66.6399 112.388 60.1007 112.388 50.8685C112.388 43.9447 108.16 38.9437 98.9328 35.8666ZM142.759 24.3264C147.372 24.3264 150.448 25.4804 152.37 26.2499L154.677 17.0177C151.985 15.8637 146.988 14.7096 142.374 14.7096C124.69 14.7096 114.31 26.6344 114.31 41.6367C114.31 57.0231 124.69 67.4093 140.068 67.4093C146.219 67.4093 151.601 65.8708 154.292 64.7168L152.754 54.7155C150.448 55.8691 147.372 56.6386 142.759 56.6386C134.301 56.6386 127.381 50.8685 127.381 40.4827C127.381 31.635 133.148 24.3264 142.759 24.3264ZM180.434 14.3251C165.441 14.3251 154.677 24.3264 154.677 40.8672C154.677 57.0231 165.441 66.6399 179.665 66.6399C192.352 66.6399 205.423 58.5621 205.423 40.0977C205.423 25.0958 195.427 14.3251 180.434 14.3251ZM180.05 57.7926C172.361 57.7926 167.748 50.4839 167.748 40.8672C167.748 32.4045 171.208 23.9418 180.434 23.9418C188.892 23.9418 192.736 32.7891 192.736 40.8672C192.352 50.4839 187.354 57.7926 180.05 57.7926ZM215.802 48.9454C211.189 48.9454 208.114 52.4075 208.114 57.0231C208.114 61.6392 211.189 65.1013 215.802 65.1013C220.416 65.1013 223.491 61.6392 223.491 57.0231C223.491 52.0225 220.416 48.9454 215.802 48.9454ZM256.169 12.7865C247.711 12.7865 242.329 17.4026 240.022 21.6338H239.638L238.869 13.9405H227.72C228.105 18.1717 228.105 23.1723 228.105 28.9424V64.3318H240.791V34.328C240.791 32.7891 241.176 31.2505 241.56 30.481C242.713 26.6344 246.558 23.1723 251.555 23.1723C258.475 23.1723 261.166 28.5579 261.166 35.8666V64.3318H273.853V34.328C274.237 18.1717 265.011 12.7865 256.169 12.7865ZM303.839 12.7865C287.693 12.7865 279.235 25.8653 279.235 39.7132C279.235 55.1 288.846 65.1013 304.992 65.1013C312.297 65.1013 318.063 63.9473 322.677 62.0242L320.755 53.1765C316.91 54.3306 312.681 55.4846 306.915 55.4846C298.841 55.4846 291.922 51.638 291.537 42.4058H324.983C325.368 41.2518 325.368 39.3287 325.368 37.0206C325.368 25.8653 319.986 12.7865 303.839 12.7865ZM291.537 33.5585C291.922 28.5579 295.381 21.2492 303.07 21.2492C311.528 21.2492 313.45 28.9424 313.45 33.5585H291.537ZM356.892 23.1723V13.5556H344.974V0.861755L332.672 4.32383V13.5556H325.752V23.1723H332.672V46.6373C332.672 53.1765 333.826 57.7926 336.516 60.8701C338.823 63.5627 342.668 65.1013 347.281 65.1013C351.124 65.1013 354.585 64.3318 356.506 63.9473L356.124 54.3305C354.585 54.7155 353.431 54.7155 351.124 54.7155C346.127 54.7155 344.59 51.638 344.59 45.4833V23.1723H356.892Z" fill="#0066CC"/>
</svg>
