<svg width="384" height="147" viewBox="0 0 384 147" fill="none" xmlns="http://www.w3.org/2000/svg">
<path fill-rule="evenodd" clip-rule="evenodd" d="M120.889 19.8312L120.889 73.9775L120.895 74.6393L120.894 75.2365L120.887 75.8334L120.875 76.4298L120.857 77.0258L120.833 77.6212L120.803 78.216L120.767 78.8102L120.725 79.4037L120.678 79.9964L120.625 80.5884L120.566 81.1793L120.501 81.7694L120.431 82.3583L120.354 82.9462L120.272 83.5331L120.184 84.1188L120.091 84.7031L119.992 85.2863L119.887 85.868L119.777 86.4482L119.661 87.0272L119.539 87.6045L119.411 88.1803L119.279 88.7542L119.14 89.3267L118.996 89.8973L118.846 90.4661L118.691 91.0331L118.531 91.5981L118.365 92.1612L118.193 92.7221L118.017 93.2812L117.834 93.838L117.647 94.3925L117.454 94.9448L117.256 95.495L117.052 96.0425L116.843 96.588L116.629 97.1307L116.41 97.6712L116.185 98.2086L115.956 98.7439L115.721 99.2765L115.481 99.8062L115.236 100.333L114.987 100.857L114.731 101.379L114.472 101.897L114.207 102.412L113.937 102.925L113.663 103.434L113.383 103.94L113.099 104.444L112.81 104.943L112.516 105.44L112.218 105.933L111.915 106.423L111.606 106.91L111.294 107.393L110.978 107.872L110.656 108.348L110.33 108.821L110 109.29L109.665 109.755L109.326 110.217L108.982 110.675L108.635 111.128L108.282 111.579L107.926 112.025L107.566 112.467L107.201 112.906L106.833 113.34L106.46 113.771L106.083 114.197L105.702 114.62L105.318 115.037L104.929 115.451L104.537 115.861L104.141 116.266L103.741 116.668L103.338 117.064L102.93 117.457L102.52 117.845L102.106 118.228L101.688 118.608L101.267 118.982L100.842 119.353L100.414 119.718L99.9824 120.079L99.5475 120.435L99.1096 120.787L98.6687 121.134L98.2245 121.476L97.7769 121.814L97.3261 122.147L96.8734 122.474L96.417 122.797L95.9574 123.116L95.496 123.429L95.0308 123.738L94.563 124.041L94.0927 124.34L93.6196 124.633L93.1444 124.922L92.666 125.205L92.1862 125.484L91.7023 125.757L91.218 126.025L90.7296 126.289L90.239 126.547L89.7473 126.799L89.2536 127.047L88.7563 127.29L88.258 127.527L87.7576 127.759L87.2548 127.985L86.7502 128.207L86.2433 128.423L85.7357 128.634L85.2262 128.839L84.7136 129.04L84.2013 129.234L83.6858 129.424L83.1694 129.608L82.652 129.787L82.1322 129.96L81.612 130.128L81.0893 130.291L80.5669 130.448L80.0414 130.6L79.5167 130.746L78.9894 130.886L78.4617 131.022L77.9319 131.152L77.4032 131.276L76.8726 131.395L76.3408 131.508L75.8085 131.616L75.2762 131.718L74.7419 131.815L74.2073 131.906L73.6732 131.992L73.1374 132.072L72.6015 132.147L72.0661 132.216L71.5287 132.28L70.9927 132.338L70.4549 132.391L69.9181 132.438L69.3813 132.48L68.8432 132.516L68.3058 132.547L67.7687 132.572L67.2315 132.591L66.6941 132.606L66.1568 132.614L65.6199 132.617L65.0842 132.615L64.5481 132.607L64.0127 132.594L63.4771 132.575L62.9431 132.551L62.4088 132.521L61.8752 132.486L61.3431 132.446L60.8107 132.4L60.279 132.349L59.7501 132.292L59.2197 132.23L58.6909 132.163L58.1637 132.09L57.6373 132.012L57.1128 131.928L56.5876 131.84L56.065 131.746L55.5433 131.646L55.0231 131.542L54.5034 131.432L53.9864 131.317L53.4703 131.197L52.9547 131.071L52.4424 130.94L51.9308 130.805L51.4213 130.664L50.9135 130.518L50.4067 130.366L49.9016 130.21L49.3996 130.049L48.899 129.883L48.3997 129.711L47.9034 129.535L47.4082 129.354L46.916 129.168L46.4251 128.977L45.9371 128.781L45.4515 128.58L44.967 128.374L44.4857 128.164L44.0064 127.948L43.5305 127.729L43.0559 127.504L42.5845 127.274L42.1155 127.04L41.6488 126.802L41.1845 126.558L40.7244 126.311L40.2648 126.057L39.8104 125.801L39.357 125.539L38.907 125.273L38.4607 125.003L38.016 124.728L37.5753 124.449L37.1367 124.166L36.7022 123.878L36.27 123.586L35.8417 123.29L35.4153 122.989L34.9943 122.686L34.5745 122.376L34.1591 122.064L33.7461 121.747L33.3382 121.427L32.9321 121.102L32.5296 120.773L32.1311 120.44L31.7368 120.104L31.3449 119.764L30.9566 119.42L30.573 119.072L30.1918 118.72L29.8155 118.366L29.4419 118.007L29.0728 117.645L28.707 117.279L28.3456 116.91L27.9873 116.537L27.634 116.161L27.2835 115.781L26.9376 115.398L26.595 115.012L26.2575 114.623L25.9232 114.23L25.5936 113.835L25.2675 113.435L24.9463 113.034L24.6288 112.629L24.3148 112.22L24.0059 111.81L23.7015 111.397L23.4006 110.98L23.1048 110.561L22.8126 110.139L22.525 109.714L22.2411 109.285L21.9632 108.857L21.6881 108.423L21.4185 107.988L21.153 107.551L20.8922 107.111L20.6353 106.668L20.3835 106.224L20.1356 105.776L19.893 105.327L19.6546 104.876L19.4211 104.423L19.1917 103.967L18.9672 103.509L18.7474 103.049L18.5323 102.588L18.3222 102.125L18.1161 101.659L17.915 101.192L17.7189 100.723L17.5272 100.252L17.3404 99.7804L17.1582 99.306L16.9812 98.8315L16.8089 98.3551L16.6408 97.8756L16.4783 97.397L16.32 96.9151L16.1673 96.4342L16.0186 95.9495L15.8752 95.465L15.7367 94.9793L15.6032 94.4932L15.4741 94.0043L15.3501 93.5152L15.2311 93.0258L15.1171 92.5354L15.0078 92.0434L14.9034 91.5512L14.8041 91.0584L14.7095 90.5642L14.6199 90.0693L14.5353 89.5751L14.4556 89.0795L14.3809 88.584L14.3109 88.0869L14.2461 87.5909L14.186 87.0929L14.131 86.5963L14.0808 86.0976L14.0357 85.6006L13.9955 85.1035L13.9601 84.6047L13.9297 84.1065L13.9042 83.6089L13.8836 83.1117L13.8679 82.613L13.8572 82.1156L13.8513 81.6194L13.8504 81.1218L13.8543 80.6242L13.8631 80.1292L13.8768 79.6331L13.8954 79.1373L13.9188 78.6429L13.9471 78.1488L13.9803 77.655L14.0182 77.1621L14.061 76.6696L14.1086 76.1782L14.161 75.6885L14.2182 75.198L14.2802 74.7097L14.3469 74.2219L14.4184 73.7348L14.4947 73.249L14.5756 72.765L14.6613 72.281L14.7516 71.7992L14.8468 71.3179L14.9463 70.8392L15.0509 70.3599L15.1597 69.8836L15.2732 69.4089L15.3916 68.9341L15.5144 68.4619L15.6417 67.9914L15.7738 67.5216L15.9099 67.0551L16.051 66.5887L16.1963 66.125L16.3462 65.6628L16.5006 65.2024L16.6591 64.7447L16.8225 64.2873L16.9898 63.8335L17.1615 63.3814L17.3381 62.9302L17.5181 62.4831L17.7031 62.0365L17.8921 61.5927L18.0853 61.1515L18.283 60.7115L18.4843 60.2753L18.6903 59.8403L18.9002 59.4084L19.1141 58.9788L19.3322 58.5517L19.5544 58.1268L19.7807 57.7046L20.0106 57.2855L20.2449 56.8686L20.4829 56.4545L20.7249 56.043L20.9706 55.6346L21.2205 55.2284L21.4736 54.826L21.7312 54.4255L21.9918 54.029L22.2572 53.6339L22.5249 53.2435L22.7973 52.855L23.0732 52.4696L23.352 52.0882L23.6349 51.7093L23.9217 51.333L24.2113 50.9607L24.5043 50.5919L24.8012 50.2256L25.1012 49.8631L25.405 49.5033L25.7113 49.1478L26.0219 48.7946L26.3348 48.4458L26.6513 48.1002L26.9709 47.7579L27.2938 47.4191L27.6196 47.084L27.9483 46.7526L28.2809 46.424L28.6154 46.1001L28.9531 45.7796L29.2943 45.4623L29.638 45.1489L29.984 44.8398L30.3339 44.5336L30.6853 44.2321L31.0408 43.9333L31.3974 43.6397L31.7577 43.349L32.1206 43.0623L32.4854 42.78L32.8534 42.5011L33.2237 42.2263L33.596 41.9558L33.9712 41.6889L34.3485 41.4263L34.7281 41.1676L35.1097 40.9133L35.4937 40.6629L35.8803 40.4163L36.2687 40.1741L36.6592 39.936L37.0516 39.7022L37.4467 39.4722L37.8428 39.247L38.2412 39.0257L38.6415 38.8086L39.0441 38.5956L39.4477 38.3873L39.8535 38.183L40.2607 37.9831L40.6698 37.7875L41.0808 37.596L41.4929 37.4092L41.9066 37.2266L42.3221 37.0483L42.7387 36.8745L43.1568 36.705L43.5762 36.5399L43.9972 36.3792L44.4191 36.223L44.8423 36.0712L45.2668 35.9238L45.6925 35.7808L46.1189 35.6425L46.5467 35.5084L46.9753 35.3789L47.4051 35.2538L47.8356 35.1333L48.2669 35.0172L48.6993 34.9056L49.1321 34.7985L49.5659 34.696L50.0002 34.5979L50.4353 34.5044L50.8709 34.4153L51.3071 34.3308L51.7436 34.2508L52.1809 34.1753L52.6182 34.1044L53.0561 34.038L53.4944 33.9761L53.9329 33.9187L54.3715 33.8659L54.8105 33.8176L55.2495 33.7738L55.6887 33.7345L56.1278 33.6998L56.567 33.6695L57.0061 33.6438L57.4452 33.6226L57.8841 33.6058L58.323 33.5936L58.7615 33.5859L59.1998 33.5826L59.6377 33.5839L60.0753 33.5896L60.5126 33.5998L60.9494 33.6144L61.3857 33.6335L61.8215 33.6571L62.2567 33.685L62.6914 33.7174L63.1253 33.7543L63.5585 33.7955L63.9912 33.8411L64.4229 33.8911L64.8538 33.9455L65.2838 34.0042L65.7131 34.0674L66.1412 34.1348L66.5684 34.2065L66.9946 34.2826L67.4197 34.363L67.8436 34.4476L68.2664 34.5365L68.6881 34.6297L69.1084 34.7271L69.5274 34.8287L69.9453 34.9346L70.3617 35.0446L70.7766 35.1588L71.19 35.2771L71.6022 35.3996L72.0126 35.5262L72.4217 35.6569L72.8289 35.7916L73.2347 35.9305L73.6387 36.0733L74.0409 36.2202L74.4417 36.3712L74.8402 36.5259L75.2372 36.6848L75.6321 36.8475L76.0253 37.0142L76.4165 37.1847L76.8056 37.3591L77.1929 37.5374L77.5779 37.7194L77.961 37.9054L78.342 38.095L78.7204 38.2883L79.0971 38.4855L79.4713 38.6862L79.8435 38.8908L80.213 39.0988L80.5805 39.3105L80.9456 39.5259L81.308 39.7447L81.6681 39.9671L82.0259 40.1931L82.381 40.4224L82.7335 40.6552L83.0838 40.8916L83.431 41.1311L83.7759 41.3742L84.1183 41.6207L84.4574 41.8701L84.7942 42.1231L85.1283 42.3794L85.4595 42.6388L85.788 42.9015L86.1134 43.167L86.436 43.4358L86.7557 43.7077L87.0726 43.9828L87.3863 44.2607L87.6974 44.5419L88.0051 44.8256L88.3099 45.1125L88.6116 45.4022L88.9102 45.6947L89.2057 45.9901L89.4982 46.2884L89.7874 46.5894L90.0734 46.893L90.3561 47.1993L90.6357 47.5083L90.912 47.82L91.1849 48.134L91.4548 48.451L91.7209 48.77L91.984 49.0917L92.2435 49.4158L92.4998 49.7424L92.7526 50.0714L93.002 50.4025L93.2478 50.7359L93.4901 51.0716L93.7289 51.4094L93.9645 51.7498L94.1962 52.0918L94.4245 52.4362L94.6492 52.7825L94.8703 53.131L95.0877 53.4811L95.3016 53.8336L95.5118 54.1878L95.7184 54.544L95.9212 54.9017L96.1205 55.2615L96.3158 55.6227L96.5077 55.986L96.6957 56.3508L96.88 56.7172L97.0604 57.0851L97.2373 57.4548L97.4101 57.8256L97.5794 58.1983L97.7446 58.5721L97.9062 58.9474L98.0639 59.3242L98.2178 59.702L98.3678 60.0814L98.5139 60.4616L98.6563 60.8436L98.7946 61.226L98.9291 61.6099L99.0598 61.9949L99.1865 62.3808L99.3093 62.7677L99.4282 63.1554L99.5432 63.5445L99.6542 63.9337L99.7614 64.3242L99.8646 64.7155L99.9638 65.1073L100.059 65.5L100.15 65.8931L100.238 66.2869L100.321 66.6813L100.401 67.0764L100.476 67.4716L100.548 67.8677L100.616 68.2636L100.679 68.6606L100.739 69.0571L100.795 69.4546L100.846 69.8517L100.894 70.2497L100.938 70.6473L100.978 71.0451L101.014 71.4431L101.046 71.8411L101.074 72.2393L101.098 72.6369L101.118 73.0348L101.134 73.4325L101.147 73.8299L101.155 74.2274L101.16 74.6245L101.16 75.0211L101.157 75.4174L101.149 75.8138L101.138 76.2093L101.123 76.6044L101.104 76.999L101.081 77.3932L101.055 77.7869L101.024 78.1798L100.99 78.572L100.951 78.9637L100.909 79.3546L100.864 79.7448L100.814 80.1341L100.76 80.5225L100.703 80.91L100.642 81.2967L100.577 81.6826L100.509 82.067L100.437 82.4509L100.361 82.8332L100.281 83.2148L100.198 83.5952L100.11 83.9744L100.02 84.352L99.9254 84.7289L99.8275 85.1043L99.7259 85.4781L99.6207 85.8509L99.5119 86.2222L99.3996 86.5918L99.2838 86.9601L99.1643 87.3273L99.0415 87.6923L98.9151 88.0559L98.7852 88.4181L98.6518 88.7785L98.515 89.1374L98.3749 89.4942L98.2313 89.8495L98.0843 90.2032L97.9342 90.5545L97.7804 90.9045L97.6235 91.2525L97.4633 91.5984L97.2998 91.9424L97.1331 92.2846L96.9631 92.6246L96.79 92.9626L96.6136 93.2987L96.4341 93.6325L96.2516 93.964L96.0658 94.2936L95.8771 94.6209L95.6851 94.9462L95.4904 95.2688L95.2924 95.5894L95.0915 95.9078L94.8877 96.2237L94.681 96.5371L94.4714 96.8481L94.2588 97.1568L94.0434 97.4632L93.8251 97.7671L93.6043 98.0681L93.3805 98.3668L93.1538 98.6632L92.9249 98.9564L92.6928 99.2476L92.4582 99.536L92.2211 99.8215L91.9814 100.104L91.739 100.385L91.4941 100.662L91.247 100.937L90.9968 101.209L90.7445 101.478L90.4896 101.744L90.2327 102.008L89.9728 102.269L89.7115 102.526L89.4473 102.781L89.1808 103.033L88.9118 103.282L88.6414 103.527L88.3685 103.77L88.0931 104.01L87.8159 104.247L87.5364 104.481L87.2556 104.711L86.9719 104.939L86.6862 105.164L86.3993 105.385L86.11 105.603L85.8188 105.818L85.5262 106.03L85.2311 106.239L84.9343 106.444L84.6365 106.646L84.3367 106.845L84.0343 107.041L83.7317 107.233L83.4259 107.423L83.1198 107.609L82.8117 107.791L82.5024 107.97L82.1911 108.146L81.8789 108.319L81.5644 108.488L81.2499 108.654L80.9328 108.816L80.6151 108.975L80.296 109.131L79.9754 109.283L79.6535 109.432L79.331 109.577L79.0074 109.719L78.6828 109.857L78.356 109.993L78.029 110.124L77.7006 110.252L77.373 110.376L77.0414 110.498L76.7119 110.615L76.3793 110.73L76.0479 110.84L75.7136 110.948L75.3804 111.051L75.0458 111.151L74.7106 111.247L74.374 111.341L74.0382 111.43L73.7 111.516L73.3637 111.598L73.025 111.677L72.6861 111.753L72.3476 111.824L72.0079 111.893L71.6681 111.958L71.3286 112.019L70.9884 112.076L70.6469 112.131L70.3072 112.181L69.9659 112.228L69.6253 112.272L69.2838 112.312L68.9424 112.348L68.6014 112.381L68.2598 112.41L67.9191 112.436L67.5772 112.459L67.2371 112.477L66.8958 112.493L66.5559 112.504L66.2148 112.513L65.8746 112.518L65.5345 112.519L65.1954 112.517L64.8557 112.511L64.517 112.502L64.1789 112.49L63.8403 112.474L63.5027 112.454L63.166 112.431L62.8305 112.405L62.4936 112.375L62.1584 112.342L61.8246 112.306L61.4902 112.266L61.1571 112.222L60.8245 112.176L60.4934 112.126L60.1617 112.072L59.8326 112.016L59.5032 111.955L59.1758 111.892L58.8478 111.825L58.5221 111.756L58.1966 111.682L57.873 111.606L57.5488 111.526L57.2281 111.443L56.9063 111.357L56.5869 111.268L56.2685 111.175L55.9513 111.079L55.6359 110.981L55.3207 110.879L55.0073 110.773L54.6953 110.665L54.3848 110.554L54.0754 110.44L53.7677 110.322L53.4611 110.202L53.1564 110.078L52.853 109.952L52.5512 109.822L52.2513 109.69L51.9534 109.555L51.6555 109.416L51.3604 109.275L51.0671 109.131L50.775 108.984L50.4843 108.834L50.1969 108.682L49.91 108.526L49.6251 108.368L49.3429 108.207L49.0612 108.043L48.7817 107.877L48.5056 107.708L48.2298 107.536L47.9564 107.362L47.6856 107.185L47.4158 107.005L47.1492 106.823L46.8829 106.638L46.6209 106.451L46.3595 106.261L46.1012 106.069L45.844 105.874L45.5902 105.677L45.3373 105.477L45.0875 105.275L44.84 105.071L44.5943 104.865L44.3511 104.656L44.1103 104.445L43.872 104.231L43.635 104.015L43.4017 103.798L43.1697 103.577L42.9415 103.356L42.7145 103.131L42.4901 102.904L42.2692 102.677L42.0492 102.445L41.8326 102.213L41.6188 101.979L41.4065 101.742L41.1979 101.504L40.9913 101.263L40.7874 101.021L40.5859 100.777L40.3871 100.531L40.191 100.284L39.9977 100.035L39.8071 99.7839L39.6187 99.5307L39.4335 99.2767L39.2509 99.0207L39.0705 98.7626L38.8935 98.5037L38.7188 98.2427L38.5472 97.9807L38.3783 97.717L38.2121 97.4519L38.0486 97.185L37.8878 96.9166L37.7302 96.6477L37.5755 96.3774L37.423 96.1047L37.2741 95.8321L37.1275 95.5571L36.9839 95.2813L36.8431 95.0043L36.7053 94.7262L36.5705 94.4472L36.4389 94.1677L36.3094 93.8855L36.1833 93.6034L36.0601 93.32L35.9398 93.0359L35.8221 92.7499L35.7079 92.4643L35.5966 92.178L35.4878 91.8895L35.3824 91.6011L35.2796 91.3114L35.18 91.0212L35.0835 90.731L34.9897 90.4391L34.899 90.147L34.8114 89.8548L34.7266 89.561L34.6446 89.2665L34.566 88.9726L34.4903 88.6781L34.4175 88.3822L34.3479 88.0873L34.2809 87.7903L34.2172 87.4939L34.1564 87.1973L34.0985 86.8991L34.0439 86.603L33.992 86.3044L33.9434 86.0075L33.8974 85.7085L33.8548 85.4113L33.8149 85.1126L33.7781 84.8144L33.7442 84.5155L33.7135 84.2181L33.6855 83.9186L33.6607 83.6208L33.6388 83.3222L33.6199 83.025L33.6039 82.7263L33.5909 82.4285L33.5809 82.1301L33.5738 81.8342L33.5697 81.5361L33.5685 81.2391L33.5702 80.9429L33.5748 80.6467L33.5824 80.3512L33.5929 80.0553L33.6063 79.7605L33.6226 79.4662L33.6418 79.1725L33.6639 78.8788L33.6888 78.5858L33.7166 78.2939L33.7473 78.0022L33.7809 77.7104L33.8172 77.4207L33.8564 77.1309L33.8983 76.8425L33.9432 76.5536L33.9907 76.267L34.0412 75.98L34.0942 75.6949L34.1503 75.4092L34.2089 75.1258L34.2703 74.8428L34.3343 74.5612L34.4015 74.279L34.4706 74.0007L34.5432 73.7201L34.618 73.4429L34.6954 73.1664L34.7756 72.891L34.8586 72.6157L34.9439 72.3429L35.0321 72.0702L35.1225 71.8L35.216 71.5295L35.3117 71.2614L35.4098 70.9947L35.5109 70.7282L35.6142 70.4639L35.7197 70.2016L35.8284 69.9391L35.9388 69.6796L36.0522 69.4203L36.1679 69.1629L36.2858 68.9073L36.4062 68.653L36.5289 68.4005L36.6544 68.1486L36.7818 67.899L36.9113 67.6516L37.0436 67.4047L37.1778 67.1604L37.3145 66.9172L37.4533 66.6758L37.5944 66.4361L37.7374 66.1986L37.8833 65.9617L38.0305 65.7281L38.1806 65.495L38.3321 65.2647L38.4863 65.0355L38.6422 64.8087L38.8003 64.5835L38.9608 64.3596L39.1224 64.139L39.2869 63.9191L39.4529 63.7018L39.6207 63.4866L39.7904 63.2733L39.9626 63.0614L40.1367 62.8515L40.3117 62.6448L40.4891 62.4395L40.6688 62.2357L40.8497 62.0346L41.0326 61.8354L41.2169 61.6386L41.4029 61.4441L41.5913 61.251L41.7806 61.0608L41.9725 60.8718L42.1649 60.6862L42.3589 60.5027L42.5555 60.3205L42.7532 60.141L42.952 59.9642L43.1529 59.7891L43.3552 59.6162L43.5585 59.4462L43.7637 59.278L43.9701 59.1123L44.1775 58.9491L44.387 58.7878L44.5969 58.6295L44.8091 58.4729L45.0224 58.3188L45.2363 58.1674L45.4519 58.0182L45.6685 57.8715L45.8866 57.727L46.1056 57.585L46.3254 57.4457L46.5472 57.3084L46.7693 57.1739L46.9927 57.0417L47.2171 56.912L47.4424 56.7848L47.6691 56.6599L47.896 56.5378L48.1245 56.4179L48.3534 56.3008L48.5835 56.1859L48.8145 56.0736L49.046 55.9639L49.2785 55.8566L49.5115 55.752L49.7457 55.6497L49.98 55.5502L50.2155 55.453L50.4512 55.3586L50.688 55.2665L50.9252 55.177L51.1629 55.0902L51.4011 55.0058L51.6402 54.924L51.8794 54.8448L52.1192 54.7681L52.3594 54.694L52.6002 54.6225L52.841 54.5536L53.0826 54.4871L53.3244 54.4233L53.5665 54.362L53.8086 54.3034L54.0513 54.2472L54.2943 54.1936L54.5373 54.1427L54.7804 54.0942L55.024 54.0483L55.2674 54.0051L55.511 53.9643L55.7548 53.9261L55.9985 53.8905L56.2425 53.8574L56.4861 53.8269L56.7302 53.7989L56.9736 53.7735L57.2172 53.7506L57.461 53.7302L57.7043 53.7124L57.9476 53.6971L58.1907 53.6843L58.4337 53.674L58.6764 53.6662L58.9187 53.661L59.1608 53.6582L59.4027 53.658L59.6442 53.6602L59.8854 53.6649L60.1264 53.6721L60.3668 53.6817L60.6064 53.6938L60.8463 53.7083L61.0853 53.7253L61.3237 53.7447L61.5619 53.7666L61.7993 53.7909L62.0364 53.8176L62.2726 53.8466L62.5088 53.8781L62.7436 53.9119L62.9781 53.9482L63.2119 53.9867L63.445 54.0277L63.6773 54.0709L63.9091 54.1166L64.1399 54.1645L64.3697 54.2147L64.599 54.2672L64.8275 54.3221L65.055 54.3791L65.2815 54.4385L65.5075 54.5001L65.7324 54.5639L65.956 54.6299L66.1792 54.6983L66.4008 54.7686L66.622 54.8414L66.842 54.9162L67.0607 54.9931L67.2786 55.0723L67.4951 55.1535L67.7108 55.2369L67.9252 55.3224L68.1384 55.4099L68.3505 55.4995L68.5618 55.5913L68.7715 55.685L68.9799 55.7807L69.1871 55.8784L69.3934 55.9783L69.5979 56.0798L69.8016 56.1837L70.0036 56.2893L70.2044 56.3968L70.4038 56.5063L70.602 56.6178L70.7985 56.7309L70.9938 56.846L71.1878 56.9631L71.3803 57.0819L71.5711 57.2024L71.7607 57.3249L71.9487 57.449L72.1351 57.5749L72.3203 57.7027L72.5037 57.832L72.6856 57.9631L72.8662 58.0961L73.0448 58.2304L73.2218 58.3663L73.3977 58.5042L73.5716 58.6435L73.7439 58.7844L73.9147 58.9269L74.0838 59.071L74.2511 59.2166L74.4166 59.3635L74.5808 59.5123L74.7429 59.6622L74.9036 59.8138L75.062 59.9664L75.2193 60.1209L75.3745 60.2766L75.528 60.4337L75.6798 60.5921L75.8297 60.7519L75.9778 60.913L76.1242 61.0754L76.2686 61.239L76.4111 61.4037L76.5521 61.57L76.6911 61.7373L76.8279 61.9055L76.9634 62.0756L77.0965 62.246L77.2279 62.418L77.3575 62.591L77.4852 62.7652L77.6107 62.9402L77.7344 63.1163L77.8564 63.2936L77.9763 63.4718L78.094 63.6507L78.2101 63.8308L78.3241 64.0118L78.436 64.1935L78.5462 64.3765L78.6541 64.5598L78.7603 64.7445L78.8644 64.9296L78.9666 65.1159L79.0667 65.3027L79.1645 65.4898L79.2608 65.6785L79.3547 65.8672L79.4469 66.0571L79.5368 66.2472L79.6247 66.438L79.7108 66.6299L79.7947 66.822L79.8766 67.0147L79.9563 67.2077L80.0342 67.4017L80.1098 67.5955L80.1838 67.791L80.2552 67.9855L80.3249 68.1816L80.3923 68.3773L80.4579 68.5739L80.5214 68.7707L80.5828 68.9679L80.642 69.165L80.6994 69.3631L80.7545 69.5607L80.8078 69.7595L80.8587 69.9574L80.9079 70.1566L80.9548 70.3553L80.9998 70.5544L81.0427 70.7538L81.0835 70.9528L81.1223 71.1524L81.1591 71.3522L81.1937 71.5512L81.2265 71.7512L81.2571 71.9508L81.2857 72.1498L81.3123 72.3499L81.3368 72.5493L81.3594 72.7488L81.3799 72.9482L81.3983 73.1472L81.4149 73.3468L81.4293 73.5449L81.4418 73.7445L81.4523 73.9427L81.4608 74.1408L81.4673 74.3389L81.4718 74.5371L81.4743 74.7346L81.4749 74.9315L81.4735 75.1283L81.4702 75.3254L81.4649 75.521L81.4577 75.7176L81.4486 75.9122L81.4374 76.1079L81.4245 76.3018L81.4095 76.4962L81.3927 76.6898L81.3739 76.8831L81.3534 77.0751L81.3309 77.2673L81.3065 77.4591L81.2803 77.65L81.2523 77.8397L81.2223 78.0299L81.1906 78.2186L81.1569 78.4073L81.1216 78.5947L81.0843 78.7819L81.0454 78.968L81.0046 79.1537L80.962 79.3387L80.9177 79.5225L80.8717 79.7057L80.8238 79.8884L80.7743 80.0699L80.7231 80.2507L80.67 80.4308L80.6154 80.6098L80.559 80.7881L80.501 80.9654L80.4413 81.1418L80.3799 81.3176L80.3171 81.4915L80.2522 81.6659L80.1862 81.8381L80.1185 82.0094L80.0489 82.1803L79.9779 82.3499L79.9054 82.5184L79.8316 82.6853L79.7557 82.8524L79.6786 83.0176L79.6 83.1817L79.5199 83.3448L79.4384 83.5066L79.3552 83.6677L79.2708 83.8271L79.1846 83.9861L79.0976 84.1429L79.0088 84.299L78.9183 84.4546L78.8269 84.6081L78.7343 84.7601L78.6398 84.9117L78.5444 85.0614L78.4472 85.2106L78.3492 85.3578L78.2497 85.5038L78.149 85.6487L78.0469 85.7924L77.944 85.9341L77.8392 86.0754L77.7337 86.2147L77.6268 86.3529L77.5186 86.4899L77.4097 86.625L77.2992 86.7592L77.188 86.8916L77.0752 87.0231L76.9617 87.1527L76.8472 87.2809L76.7312 87.408L76.6144 87.5335L76.4965 87.6577L76.3777 87.7802L76.2578 87.9014L76.1371 88.0209L76.0155 88.1389L75.8926 88.2557L75.7688 88.371L75.6446 88.4844L75.519 88.5967L75.3927 88.7073L75.2656 88.8164L75.1376 88.924L75.0085 89.0302L74.8795 89.1342L74.7486 89.2376L74.6176 89.3389L74.4859 89.4386L74.3533 89.5368L74.2195 89.6337L74.0859 89.7285L73.9509 89.8223L73.8153 89.9143L73.6795 90.0045L73.5429 90.0933L73.4057 90.1805L73.2674 90.2663L73.1296 90.3499L72.9901 90.4325L72.8509 90.5131L72.7104 90.5925L72.5702 90.6699L72.4289 90.7459L72.2876 90.8201L72.1457 90.8928L72.0033 90.9639L71.8604 91.0334L71.7171 91.1012L71.5737 91.1674L71.4296 91.232L71.2856 91.2948L71.1405 91.3563L70.9957 91.416L70.8505 91.474L70.7053 91.5304L70.5591 91.5853L70.4132 91.6385L70.2671 91.69L70.1207 91.7399L69.9739 91.7883L69.8273 91.8349L69.6799 91.8801L69.5332 91.9235L69.3859 91.9653L69.2388 92.0055L69.0909 92.0442L68.9436 92.0811L68.7966 92.1164L68.6485 92.1503L68.5009 92.1825L68.3533 92.213L68.2062 92.2419L68.0581 92.2694L67.9112 92.2951L67.7629 92.3194L67.6161 92.342L67.4686 92.363L67.3217 92.3825L67.1748 92.4004L67.0275 92.4167L66.881 92.4315L66.7342 92.4448L66.5883 92.4564L66.442 92.4665L66.296 92.4751L66.1501 92.4821L66.0047 92.4877L65.8596 92.4917L65.7152 92.4941L65.57 92.4951L65.4257 92.4946L65.2818 92.4925L65.1383 92.489L64.9954 92.484L64.8523 92.4775L64.7094 92.4696L64.5677 92.4602L64.4259 92.4493L64.2846 92.437L64.1441 92.4232L64.0032 92.408L63.8638 92.3914L63.7245 92.3734L63.5854 92.354L63.4471 92.3331L63.309 92.3109L63.1717 92.2873L63.0352 92.2623L62.899 92.236L62.7632 92.2082L62.6283 92.1792L62.4942 92.1489L62.3598 92.1171L62.2272 92.0842L62.0942 92.0497L61.9624 92.0141L61.8314 91.9772L61.701 91.9391L61.5711 91.8996L61.4418 91.8588L61.3135 91.8169L61.1858 91.7737L61.0589 91.7292L60.9328 91.6837L60.8071 91.6367L60.6822 91.5886L60.5588 91.5396L60.4356 91.4891L60.3128 91.4373L60.1921 91.3849L60.071 91.3309L59.9508 91.2758L59.8323 91.2199L59.7143 91.1628L59.5969 91.1045L59.4801 91.0449L59.3645 90.9844L59.2504 90.9232L59.1368 90.8608L59.0237 90.7971L58.9115 90.7323L58.8005 90.6668L58.6908 90.6004L58.5813 90.5326L58.4736 90.4643L58.3661 90.3946L58.2602 90.3245L58.1547 90.253L58.0502 90.1805L57.9473 90.1076L57.8446 90.0332L57.7436 89.9585L57.6433 89.8827L57.5441 89.8061L57.4457 89.7284L57.3483 89.65L57.2524 89.571L57.1575 89.4913L57.063 89.4101L56.97 89.3287L56.8781 89.2465L56.7872 89.1635L56.6972 89.0796L56.6086 88.9953L56.5211 88.9102L56.4343 88.8242L56.3489 88.7377L56.2643 88.6504L56.1814 88.5629L56.0988 88.474L56.0179 88.385L55.9378 88.2952L55.859 88.2049L55.7814 88.1141L55.7049 88.0228L55.6291 87.9304L55.5546 87.8377L55.4815 87.7448L55.4096 87.6514L55.3384 87.557L55.2688 87.4626L55.2001 87.3675L55.1325 87.2719L55.0662 87.1761L55.0008 87.0795L54.9368 86.9827L54.8738 86.8853L54.8122 86.788L54.7516 86.6901L54.6921 86.5917L54.6338 86.4929L54.5769 86.3943L54.5207 86.2946L54.4657 86.1947L54.4123 86.0952L54.3597 85.9949L54.3084 85.8944L54.2583 85.7938L54.2092 85.6927L54.1614 85.5917L54.1146 85.4901L54.0691 85.3886L54.0248 85.2871L53.9815 85.1849L53.9394 85.0827L53.8985 84.9807L53.8588 84.8785L53.8202 84.7758L53.7827 84.6734L53.7463 84.5703L53.7112 84.4678L53.6773 84.3654L53.6443 84.2624L53.6125 84.1591L53.582 84.0567L53.5524 83.9534L53.5241 83.8508L53.4968 83.7478L53.4707 83.6449L53.4458 83.5422L53.4219 83.4396L53.3992 83.3369L53.3775 83.2342L53.357 83.1317L53.3375 83.029L53.3192 82.9271L53.3019 82.8249L53.2857 82.7222L53.2706 82.6209L53.2567 82.5194L53.2437 82.4178L53.2318 82.3162L53.2211 82.2151L53.2113 82.114L53.2027 82.0137L53.195 81.9129L53.1884 81.8132L53.1828 81.7129L53.1783 81.6131L53.1748 81.5139L53.1723 81.4146L53.1708 81.3162L53.1704 81.2175L53.1704 81.0758L53.1704 80.9051L53.1704 80.7677L39.6404 80.7677L39.6372 80.9722L39.6359 81.2127L39.637 81.4532L39.6406 81.6941L39.6467 81.9355L39.6552 82.1768L39.6661 82.4185L39.6796 82.66L39.6955 82.902L39.7139 83.1443L39.7348 83.3863L39.7582 83.6286L39.7841 83.8709L39.8124 84.1129L39.8432 84.355L39.8766 84.5978L39.9125 84.84L39.9508 85.0816L39.9917 85.3238L40.0351 85.5659L40.0809 85.8073L40.1293 86.0489L40.1803 86.2902L40.2337 86.5311L40.2896 86.7719L40.3481 87.0125L40.409 87.2526L40.4724 87.4922L40.5384 87.7316L40.6069 87.9707L40.6779 88.2093L40.7513 88.4471L40.8273 88.6847L40.9058 88.9219L40.9868 89.1585L41.0703 89.3944L41.1562 89.6297L41.2446 89.8642L41.3356 90.0985L41.4291 90.332L41.5249 90.5646L41.6233 90.7965L41.7242 91.0278L41.8275 91.2582L41.9332 91.4878L42.0414 91.7164L42.1521 91.9445L42.2652 92.1715L42.3806 92.3974L42.4986 92.6226L42.619 92.8468L42.7417 93.0698L42.8669 93.2919L42.9945 93.5131L43.1244 93.733L43.2567 93.9519L43.3915 94.1697L43.5286 94.3864L43.668 94.6017L43.8096 94.8157L43.9538 95.0287L44.1001 95.2403L44.2488 95.4507L44.3999 95.6598L44.5531 95.8675L44.7088 96.074L44.8666 96.2789L45.0267 96.4825L45.189 96.6845L45.3535 96.885L45.5203 97.0841L45.6893 97.2819L45.8606 97.478L46.0339 97.6725L46.2094 97.8653L46.387 98.0566L46.5669 98.2463L46.7489 98.4343L46.9329 98.6205L47.1188 98.8049L47.3071 98.9879L47.4975 99.1691L47.6896 99.3482L47.8839 99.5256L48.0804 99.7014L48.2788 99.8752L48.4789 100.047L48.6812 100.217L48.8855 100.385L49.0916 100.551L49.2995 100.715L49.5096 100.877L49.7214 101.038L49.935 101.196L50.1506 101.352L50.3679 101.506L50.587 101.657L50.8078 101.807L51.0303 101.955L51.2549 102.1L51.4809 102.243L51.7085 102.384L51.9381 102.523L52.1694 102.66L52.4019 102.794L52.636 102.926L52.8722 103.056L53.1098 103.183L53.3488 103.308L53.5893 103.431L53.8313 103.551L54.075 103.669L54.32 103.785L54.5663 103.898L54.8142 104.008L55.0634 104.116L55.3138 104.222L55.5658 104.325L55.8193 104.426L56.0735 104.524L56.3292 104.619L56.5864 104.712L56.8445 104.803L57.1041 104.89L57.3647 104.976L57.6261 105.058L57.889 105.138L58.153 105.215L58.4181 105.29L58.6841 105.362L58.9509 105.431L59.219 105.497L59.488 105.561L59.7577 105.622L60.0286 105.68L60.3003 105.736L60.5727 105.789L60.8461 105.838L61.1202 105.886L61.3949 105.93L61.6705 105.971L61.9469 106.01L62.2238 106.046L62.5016 106.079L62.7798 106.109L63.0584 106.136L63.338 106.161L63.618 106.182L63.8985 106.201L64.1795 106.216L64.4606 106.229L64.7426 106.239L65.0248 106.246L65.3073 106.25L65.5903 106.251L65.8733 106.249L66.157 106.244L66.4406 106.236L66.7244 106.226L67.0088 106.212L67.2928 106.195L67.5771 106.175L67.8619 106.153L68.1464 106.127L68.4309 106.098L68.7153 106.067L68.9999 106.032L69.2846 105.994L69.5688 105.954L69.8533 105.91L70.1373 105.864L70.4211 105.814L70.705 105.761L70.9886 105.706L71.2718 105.647L71.5545 105.585L71.8371 105.521L72.1194 105.453L72.4013 105.382L72.6826 105.308L72.9635 105.232L73.244 105.152L73.5241 105.069L73.8033 104.984L74.0821 104.895L74.3604 104.803L74.638 104.709L74.9147 104.611L75.1909 104.511L75.4663 104.407L75.741 104.3L76.015 104.191L76.2879 104.078L76.56 103.963L76.8314 103.845L77.1018 103.723L77.3711 103.599L77.6395 103.472L77.9071 103.342L78.1734 103.209L78.4388 103.073L78.703 102.934L78.9661 102.793L79.228 102.648L79.4887 102.501L79.7482 102.351L80.0063 102.198L80.2634 102.042L80.5191 101.883L80.7733 101.722L81.0262 101.557L81.2779 101.39L81.5281 101.22L81.7766 101.048L82.0236 100.873L82.2692 100.694L82.5135 100.513L82.756 100.33L82.9969 100.144L83.2361 99.9549L83.4738 99.7633L83.7097 99.569L83.9439 99.3722L84.1764 99.1728L84.4071 98.9707L84.636 98.766L84.863 98.5588L85.0882 98.3491L85.3115 98.1367L85.5328 97.922L85.7523 97.7046L85.97 97.4846L86.1853 97.2625L86.3987 97.0379L86.6103 96.8106L86.8196 96.5811L87.0269 96.3491L87.232 96.1149L87.4349 95.8783L87.6358 95.6392L87.8345 95.3979L88.0308 95.1543L88.2249 94.9086L88.4168 94.6604L88.6063 94.4102L88.7935 94.1578L88.9785 93.903L89.161 93.6462L89.341 93.3873L89.5188 93.1262L89.6941 92.863L89.8668 92.5979L90.0371 92.3306L90.2049 92.0614L90.3701 91.7902L90.5329 91.5169L90.6929 91.2418L90.8505 90.9647L91.0054 90.6858L91.1575 90.4051L91.3072 90.1224L91.4541 89.838L91.5982 89.5518L91.7397 89.2637L91.8785 88.974L92.0144 88.6826L92.1476 88.3896L92.2779 88.0948L92.4055 87.7984L92.5302 87.5006L92.652 87.2011L92.771 86.8999L92.8871 86.5974L93.0002 86.2934L93.1104 85.9879L93.2177 85.681L93.322 85.3728L93.4233 85.0632L93.5217 84.7521L93.617 84.4398L93.7093 84.1264L93.7985 83.8116L93.8847 83.4955L93.9678 83.1784L94.0478 82.8602L94.1247 82.5407L94.1985 82.2201L94.2692 81.8985L94.3367 81.576L94.4011 81.2525L94.4623 80.9279L94.5203 80.6024L94.5751 80.2761L94.6267 79.9489L94.6751 79.6208L94.7203 79.2921L94.7622 78.9625L94.8009 78.6321L94.8363 78.3011L94.8685 77.9694L94.8974 77.6372L94.923 77.3042L94.9453 76.9707L94.9643 76.6368L94.9799 76.3023L94.9923 75.9673L95.0013 75.6319L95.007 75.2962L95.0094 74.9601L95.0084 74.6237L95.0041 74.2869L94.9963 73.9499L94.9853 73.6128L94.9708 73.2754L94.953 72.9378L94.9318 72.6002L94.9073 72.2624L94.8793 71.9246L94.8479 71.5868L94.8132 71.2491L94.7751 70.9114L94.7335 70.5739L94.6886 70.2363L94.6402 69.899L94.5885 69.562L94.5333 69.2251L94.4748 68.8885L94.4128 68.5521L94.3475 68.2163L94.2787 67.8808L94.2065 67.5456L94.131 67.2109L94.052 66.8767L93.9697 66.5431L93.8839 66.21L93.7947 65.8774L93.7022 65.5456L93.6063 65.2143L93.507 64.8838L93.4043 64.5541L93.2982 64.225L93.1888 63.8968L93.076 63.5696L92.9599 63.243L92.8404 62.9175L92.7175 62.5929L92.5914 62.2693L92.4619 61.9467L92.329 61.6251L92.1929 61.3047L92.0534 60.9854L91.9107 60.6673L91.7647 60.3504L91.6153 60.0346L91.4627 59.7202L91.3069 59.4071L91.1478 59.0953L90.9854 58.7849L90.8199 58.4759L90.6511 58.1683L90.4791 57.8622L90.3039 57.5576L90.1255 57.2546L89.944 56.9532L89.7593 56.6533L89.5714 56.3552L89.3805 56.0587L89.1864 55.764L88.9892 55.4709L88.789 55.1797L88.5857 54.8903L88.3793 54.6027L88.1699 54.3171L87.9575 54.0333L87.742 53.7515L87.5236 53.4717L87.3022 53.1938L87.0779 52.9181L86.8506 52.6444L86.6204 52.3729L86.3874 52.1035L86.1515 51.8363L85.9126 51.5712L85.6709 51.3084L85.4265 51.048L85.1792 50.7897L84.9292 50.5339L84.6764 50.2804L84.4209 50.0293L84.1627 49.7806L83.9017 49.5344L83.6381 49.2906L83.3719 49.0493L83.103 48.8107L82.8316 48.5746L82.5576 48.3411L82.2811 48.1103L82.0019 47.8821L81.7203 47.6566L81.4362 47.4338L81.1497 47.2137L80.8608 46.9965L80.5694 46.782L80.2757 46.5703L79.9797 46.3615L79.6813 46.1556L79.3806 45.9526L79.0777 45.7526L78.7725 45.5555L78.4651 45.3613L78.1555 45.1702L77.8438 44.9821L77.53 44.7971L77.214 44.6152L76.896 44.4363L76.5759 44.2607L76.2539 44.0881L75.9299 43.9188L75.6039 43.7526L75.276 43.5897L74.9463 43.4301L74.6146 43.2736L74.281 43.1205L73.9459 42.9708L73.6089 42.8243L73.2701 42.6812L72.9297 42.5415L72.5877 42.4052L72.2439 42.2722L71.8986 42.1428L71.5517 42.0167L71.2033 41.8942L70.8535 41.7752L70.5021 41.6596L70.1493 41.5476L69.7951 41.4391L69.4396 41.3342L69.0827 41.2329L68.7245 41.1352L68.3651 41.0411L68.0045 40.9506L67.6426 40.8638L67.2796 40.7806L66.9155 40.7011L66.5504 40.6253L66.1842 40.5532L65.817 40.4848L65.4488 40.4201L65.0797 40.3592L64.7097 40.3021L64.3388 40.2487L63.9671 40.1991L63.5947 40.1532L63.2215 40.1112L62.8476 40.073L62.4729 40.0386L62.0977 40.0081L61.722 39.9814L61.3456 39.9585L60.9686 39.9395L60.5912 39.9244L60.2135 39.9131L59.8352 39.9058L59.4566 39.9023L59.0778 39.9027L58.6985 39.907L58.319 39.9152L57.9394 39.9274L57.5595 39.9435L57.1796 39.9634L56.7996 39.9873L56.4194 40.0152L56.0393 40.047L55.6592 40.0827L55.2791 40.1224L54.8992 40.166L54.5194 40.2136L54.1398 40.2651L53.7605 40.3205L53.3813 40.3799L53.0024 40.4433L52.624 40.5106L52.2459 40.5818L51.8682 40.657L51.491 40.7361L51.1143 40.8192L50.7381 40.9062L50.3625 40.9972L49.9875 41.0921L49.6133 41.1909L49.2397 41.2937L48.8668 41.4004L48.4946 41.511L48.1234 41.6255L47.753 41.7439L47.3834 41.8662L47.0149 41.9924L46.6473 42.1226L46.2807 42.2565L45.9152 42.3944L45.5507 42.5361L45.1875 42.6817L44.8253 42.8311L44.4645 42.9844L44.1048 43.1415L43.7464 43.3024L43.3895 43.4671L43.0338 43.6356L42.6795 43.8079L42.3267 43.9839L41.9755 44.1638L41.6256 44.3474L41.2774 44.5347L40.9308 44.7257L40.5858 44.9204L40.2425 45.1188L39.901 45.3209L39.5611 45.5267L39.2231 45.7361L38.8869 45.9492L38.5526 46.1658L38.2201 46.3861L37.8896 46.6099L37.5612 46.8373L37.2347 47.0682L36.9102 47.3027L36.5879 47.5407L36.2677 47.7821L35.9496 48.0271L35.6337 48.2755L35.3201 48.5273L35.0088 48.7825L34.6998 49.041L34.393 49.303L34.0887 49.5683L33.7868 49.837L33.4874 50.1089L33.1904 50.384L32.8959 50.6625L32.6039 50.9442L32.3146 51.2291L32.0279 51.5171L31.7438 51.8084L31.4624 52.1027L31.1838 52.4001L30.9078 52.7007L30.6347 53.0043L30.3644 53.3108L30.0969 53.6205L29.8323 53.933L29.5706 54.2485L29.3118 54.5669L29.0561 54.8882L28.8033 55.2124L28.5535 55.5394L28.3069 55.8692L28.0633 56.2018L27.8228 56.537L27.5855 56.875L27.3514 57.2157L27.1204 57.5591L26.8928 57.9051L26.6684 58.2536L26.4473 58.6047L26.2295 58.9582L26.015 59.3144L25.804 59.6729L25.5963 60.0339L25.3921 60.3972L25.1913 60.7629L24.994 61.131L24.8002 61.5013L24.61 61.8738L24.4233 62.2487L24.2402 62.6256L24.0607 63.0046L23.8848 63.3859L23.7126 63.7692L23.5441 64.1545L23.3792 64.5418L23.2181 64.9311L23.0607 65.3224L22.9071 65.7155L22.7573 66.1104L22.6112 66.5071L22.469 66.9057L22.3306 67.3061L22.1962 67.7079L22.0656 68.1115L21.9389 68.5169L21.8162 68.9237L21.6974 69.332L21.5825 69.742L21.4716 70.1534L21.3648 70.566L21.2619 70.9802L21.1631 71.3957L21.0683 71.8126L20.9776 72.2305L20.8909 72.6499L20.8083 73.0704L20.7299 73.4919L20.6556 73.9146L20.5854 74.3383L20.5193 74.7631L20.4574 75.1888L20.3997 75.6155L20.3462 76.043L20.2968 76.4714L20.2517 76.9007L20.2108 77.3306L20.1741 77.7612L20.1417 78.1924L20.1135 78.6244L20.0895 79.0571L20.0699 79.4901L20.0545 79.9236L20.0433 80.3577L20.0365 80.7923L20.034 81.2269L20.0357 81.662L20.0418 82.0975L20.0522 82.5332L20.0669 82.9689L20.0859 83.4049L20.1093 83.841L20.1369 84.2772L20.169 84.7134L20.2053 85.1494L20.246 85.5855L20.2911 86.0214L20.3405 86.4572L20.3942 86.8927L20.4523 87.328L20.5147 87.763L20.5815 88.1976L20.6526 88.6318L20.7281 89.0656L20.8079 89.4989L20.892 89.9317L20.9806 90.364L21.0734 90.7956L21.1705 91.2265L21.272 91.6567L21.3778 92.0862L21.488 92.5149L21.6024 92.9428L21.7212 93.3697L21.8442 93.7957L21.9716 94.2208L22.1033 94.6448L22.2392 95.0677L22.3794 95.4896L22.5239 95.9103L22.6727 96.3298L22.8257 96.748L22.9829 97.165L23.1444 97.5807L23.3101 97.9948L23.4799 98.4076L23.654 98.8189L23.8323 99.2288L24.0148 99.6371L24.2013 100.044L24.3921 100.449L24.587 100.852L24.7861 101.254L24.9892 101.654L25.1964 102.052L25.4077 102.448L25.623 102.842L25.8423 103.234L26.0658 103.625L26.2933 104.013L26.5246 104.399L26.76 104.783L26.9994 105.165L27.2427 105.545L27.4898 105.922L27.7409 106.297L27.9959 106.67L28.2546 107.041L28.5174 107.409L28.7839 107.774L29.0541 108.137L29.3281 108.498L29.6059 108.856L29.8875 109.212L30.1726 109.564L30.4615 109.914L30.7541 110.262L31.0502 110.606L31.3499 110.948L31.6532 111.287L31.9602 111.623L32.2706 111.956L32.5845 112.286L32.9018 112.613L33.2226 112.937L33.5469 113.258L33.8745 113.576L34.2054 113.89L34.5397 114.202L34.8773 114.51L35.2181 114.815L35.5623 115.117L35.9096 115.415L36.26 115.71L36.6137 116.001L36.9704 116.29L37.3303 116.574L37.6932 116.855L38.0589 117.133L38.4277 117.407L38.7997 117.678L39.1742 117.944L39.5519 118.207L39.9324 118.467L40.3157 118.722L40.7016 118.974L41.0903 119.222L41.4818 119.467L41.876 119.707L42.2727 119.944L42.672 120.176L43.0741 120.405L43.4784 120.63L43.8852 120.85L44.2946 121.067L44.7063 121.279L45.1204 121.488L45.5369 121.692L45.9556 121.892L46.3765 122.088L46.7997 122.28L47.225 122.468L47.6524 122.651L48.0819 122.83L48.5136 123.005L48.9472 123.176L49.3826 123.342L49.82 123.504L50.2594 123.661L50.7005 123.814L51.1435 123.963L51.5882 124.107L52.0345 124.247L52.4827 124.382L52.9322 124.512L53.3834 124.639L53.8363 124.76L54.2905 124.877L54.7461 124.99L55.2033 125.097L55.6617 125.201L56.1213 125.299L56.5825 125.393L57.0447 125.482L57.5079 125.567L57.9725 125.647L58.4382 125.722L58.9045 125.792L59.3723 125.858L59.8408 125.919L60.3101 125.975L60.7805 126.026L61.2515 126.073L61.7232 126.115L62.1957 126.152L62.669 126.184L63.1427 126.211L63.617 126.234L64.0918 126.251L64.5672 126.264L65.0429 126.272L65.5188 126.275L65.9953 126.273L66.472 126.266L66.9489 126.254L67.4259 126.238L67.903 126.216L68.3805 126.19L68.8577 126.159L69.3348 126.123L69.8121 126.082L70.2892 126.036L70.7661 125.985L71.2428 125.929L71.7192 125.868L72.1953 125.802L72.6711 125.732L73.1463 125.656L73.6212 125.576L74.0957 125.49L74.5694 125.4L75.0426 125.305L75.5152 125.205L75.987 125.1L76.458 124.99L76.9282 124.875L77.3976 124.755L77.8662 124.631L78.3335 124.501L78.8003 124.367L79.2658 124.228L79.73 124.084L80.1933 123.935L80.6554 123.781L81.1163 123.622L81.5757 123.459L82.0338 123.291L82.4906 123.118L82.946 122.94L83.3998 122.758L83.8519 122.57L84.3027 122.378L84.7518 122.182L85.1992 121.98L85.6449 121.774L86.0887 121.563L86.5308 121.347L86.971 121.127L87.4092 120.902L87.8455 120.673L88.2799 120.439L88.7121 120.2L89.1421 119.957L89.5703 119.709L89.996 119.457L90.4194 119.2L90.8407 118.939L91.2596 118.673L91.676 118.403L92.0901 118.128L92.5018 117.849L92.9108 117.566L93.3174 117.278L93.7212 116.986L94.1225 116.689L94.5211 116.389L94.9168 116.084L95.3099 115.774L95.7002 115.461L96.0875 115.143L96.4719 114.822L96.8533 114.496L97.2317 114.166L97.6072 113.832L97.9795 113.494L98.3487 113.152L98.7148 112.806L99.0776 112.456L99.4371 112.102L99.7934 111.744L100.146 111.383L100.496 111.017L100.842 110.648L101.185 110.275L101.524 109.898L101.86 109.518L102.192 109.134L102.521 108.746L102.845 108.355L103.167 107.96L103.484 107.562L103.798 107.16L104.108 106.755L104.414 106.346L104.716 105.934L105.015 105.518L105.309 105.1L105.599 104.678L105.886 104.253L106.168 103.825L106.447 103.393L106.721 102.959L106.991 102.521L107.257 102.081L107.519 101.637L107.776 101.191L108.029 100.741L108.278 100.289L108.523 99.834L108.763 99.3763L108.999 98.9157L109.231 98.4526L109.458 97.9868L109.68 97.5184L109.898 97.0475L110.112 96.5741L110.321 96.0983L110.525 95.62L110.725 95.1394L110.92 94.6565L111.111 94.1713L111.297 93.6839L111.478 93.1943L111.654 92.7026L111.826 92.2088L111.992 91.713L112.154 91.2152L112.312 90.7154L112.464 90.2138L112.612 89.7103L112.754 89.205L112.892 88.6981L113.025 88.1894L113.153 87.6791L113.275 87.1671L113.393 86.6537L113.506 86.1388L113.614 85.6224L113.717 85.1046L113.815 84.5854L113.907 84.065L113.995 83.5434L114.077 83.0206L114.155 82.4966L114.227 81.9716L114.294 81.4456L114.356 80.9185L114.413 80.3905L114.465 79.8617L114.511 79.332L114.552 78.8016L114.588 78.2705L114.619 77.7387L114.645 77.2063L114.665 76.6733L114.68 76.1399L114.69 75.606L114.694 75.0717L114.694 74.537L114.688 74.0021L114.677 73.467L114.66 72.9317L114.638 72.3962L114.611 71.8607L114.579 71.3251L114.541 70.7897L114.498 70.2543L114.449 69.719L114.396 69.1839L114.337 68.6492L114.273 68.1147L114.203 67.5806L114.128 67.0469L114.048 66.5137L113.962 65.981L113.872 65.4489L113.775 64.9174L113.674 64.3867L113.567 63.8567L113.455 63.3275L113.338 62.7991L113.216 62.2717L113.088 61.7452L112.955 61.2198L112.816 60.6954L112.673 60.1722L112.524 59.6501L112.37 59.1294L112.211 58.6099L112.046 58.0917L111.877 57.5749L111.702 57.0596L111.522 56.5458L111.336 56.0336L111.146 55.523L110.951 55.0141L110.75 54.5069L110.544 54.0015L110.333 53.4979L110.117 52.9962L109.896 52.4964L109.67 51.9987L109.439 51.503L109.203 51.0093L108.962 50.5179L108.716 50.0286L108.465 49.5416L108.209 49.0569L107.948 48.5746L107.682 48.0946L107.412 47.6172L107.136 47.1423L106.856 46.6698L106.571 46.2001L106.281 45.733L105.986 45.2686L105.687 44.807L105.383 44.3482L105.074 43.8923L104.76 43.4393L104.442 42.9892L104.119 42.5422L103.792 42.0983L103.46 41.6574L103.124 41.2198L102.783 40.7853L102.437 40.3541L102.088 39.9262L101.733 39.5017L101.375 39.0805L101.012 38.6628L100.645 38.2486L100.273 37.8379L99.8972 37.4308L99.5172 37.0274L99.1331 36.6276L98.7447 36.2316L98.3523 35.8393L97.9558 35.4508L97.5552 35.0662L97.1507 34.6855L96.7422 34.3087L96.3297 33.9359L95.9133 33.5671L95.4931 33.2024L95.0691 32.8418L94.6413 32.4854L94.2098 32.1331L93.7745 31.7851L93.3356 31.4413L92.8931 31.1019L92.447 30.7668L91.9973 30.4361L91.5442 30.1098L91.0876 29.788L90.6276 29.4708L90.1643 29.158L89.6975 28.8498L89.2275 28.5463L88.7543 28.2474L88.2779 27.9532L87.7983 27.6637L87.3157 27.3789L86.8299 27.099L86.3412 26.8239L85.8495 26.5537L85.3549 26.2883L84.8574 26.0279L84.3571 25.7724L83.8539 25.5219L83.3481 25.2764L82.8396 25.036L82.3284 24.8007L81.8147 24.5704L81.2984 24.3454L80.7797 24.1254L80.2585 23.9107L79.7349 23.7012L79.209 23.497L78.6808 23.298L78.1504 23.1043L77.6178 22.916L77.0831 22.733L76.5463 22.5554L76.0074 22.3832L75.4666 22.2165L74.9239 22.0551L74.3793 21.8993L73.8329 21.7489L73.2847 21.6041L72.7348 21.4648L72.1833 21.331L71.6302 21.2029L71.0755 21.0803L70.5194 20.9633L69.9618 20.852L69.4028 20.7463L68.8425 20.6463L68.2809 20.552L67.7181 20.4634L67.1542 20.3805L66.5892 20.3033L66.0231 20.2318L65.456 20.1661L64.888 20.1062L64.3192 20.0521L63.7495 20.0038L63.179 19.9612L62.6079 19.9245L62.0361 19.8936L61.4637 19.8686L60.8907 19.8494L60.3173 19.836L59.7435 19.8285L59.1694 19.8269L58.5949 19.8311L58.0201 19.8413L57.4452 19.8573L56.8702 19.8792L56.2951 19.907L55.72 19.9407L55.145 19.9803L54.57 20.0258L53.9952 20.0772L53.4206 20.1345L52.8464 20.1977L52.2724 20.2669L51.6989 20.3419L51.1258 20.4229L50.5533 20.5097L49.9813 20.6024L49.4099 20.7011L48.8393 20.8056L48.2694 20.9161L47.7003 21.0324L47.132 21.1546L46.5648 21.2826L45.9985 21.4165L45.4332 21.5563L44.869 21.702L44.306 21.8535L43.7442 22.0108L43.1837 22.1739L42.6246 22.3429L42.0668 22.5176L41.5105 22.6982L40.9557 22.8845L40.4025 23.0766L39.8509 23.2745L39.301 23.478L38.7528 23.6873L38.2064 23.9024L37.6619 24.1231L37.1193 24.3495L36.5787 24.5815L36.0401 24.8192L35.5035 25.0625L34.9692 25.3114L34.437 25.5659L33.9071 25.826L33.3794 26.0916L32.8542 26.3627L32.3314 26.6394L31.811 26.9215L31.2932 27.2091L30.778 27.5021L30.2654 27.8005L29.7555 28.1043L29.2484 28.4135L28.7441 28.728L28.2427 29.0478L27.7441 29.3728L27.2485 29.7032L26.756 30.0388L26.2665 30.3795L25.7802 30.7255L25.297 31.0765L24.817 31.4327L24.3404 31.794L23.8671 32.1603L23.3972 32.5315L22.9307 32.9079L22.4677 33.2891L22.0082 33.6752L21.5523 34.0663L21.1001 34.4622L20.6516 34.8629L20.2068 35.2684L19.7658 35.6786L19.3286 36.0934L18.8953 36.5131L18.466 36.9372L18.0406 37.366L17.6192 37.7994L17.2019 38.2373L16.7888 38.6796L16.3798 39.1264L15.9751 39.5775L15.5746 40.033L15.1783 40.4928L14.7865 40.9569L14.399 41.4252L14.016 41.8976L13.6374 42.3742L13.2633 42.855L12.8939 43.3398L12.529 43.8285L12.1688 44.3212L11.8133 44.8178L11.4625 45.3184L11.1165 45.8227L10.7752 46.3307L10.4388 46.8426L10.1074 47.358L9.7808 47.8772L9.45922 48.3999L9.14267 48.926L8.83108 49.4558L8.52463 49.9889L8.2233 50.5254L7.92704 51.0653L7.63598 51.6085L7.35019 52.1548L7.06966 52.7043L6.79435 53.257L6.52445 53.8126L6.25982 54.3713L6.00059 54.9331L5.74681 55.4977L5.49846 56.0651L5.25557 56.6354L5.01817 57.2084L4.78639 57.784L4.5601 58.3624L4.33941 58.9434L4.1244 59.5267L3.91501 60.1126L3.71125 60.701L3.51326 61.2916L3.32098 61.8845L3.13443 62.4798L2.95367 63.0771L2.77873 63.6766L2.60965 64.278L2.44633 64.8817L2.28891 65.4872L2.13743 66.0946L1.99183 66.7037L1.8522 67.3147L1.71846 67.9275L1.59074 68.5419L1.46904 69.1576L1.35331 69.7751L1.24362 70.394L1.13999 71.0143L1.04241 71.636L0.950908 72.259L0.865504 72.8831L0.786204 73.5084L0.713084 74.1348L0.646052 74.7621L0.58517 75.3906L0.530452 76.02L0.481929 76.6502L0.43957 77.281L0.403422 77.9128L0.373484 78.5451L0.349757 79.1779L0.332255 79.8115L0.320979 80.4453L0.315943 81.0796L0.317149 81.7143L0.324625 82.3493L0.338358 82.9844L0.358347 83.6196L0.384607 84.2551L0.41717 84.8905L0.455957 85.5258L0.501047 86.161L0.552393 86.7961L0.61004 87.4309L0.673959 88.0655L0.74415 88.6996L0.820627 89.3333L0.903375 89.9665L0.99241 90.5992L1.08773 91.2313L1.18932 91.8628L1.29716 92.4932L1.41125 93.1231L1.53159 93.7519L1.65818 94.3798L1.79107 95.007L1.93015 95.6327L2.07545 96.2574L2.22698 96.881L2.38477 97.5034L2.5487 98.1242L2.71883 98.7437L2.89515 99.3618L3.07763 99.9783L3.26629 100.593L3.46105 101.207L3.66196 101.818L3.869 102.428L4.08213 103.036L4.30134 103.642L4.52662 104.246L4.75796 104.848L4.99534 105.448L5.23872 106.046L5.48809 106.642L5.74348 107.235L6.00478 107.826L6.27201 108.414L6.54521 109.001L6.82429 109.584L7.10925 110.165L7.40004 110.743L7.69665 111.319L7.99911 111.892L8.30734 112.462L8.62125 113.029L8.94093 113.593L9.26629 114.154L9.59732 114.712L9.93407 115.267L10.2765 115.819L10.6243 116.367L10.9777 116.913L11.3367 117.454L11.7012 117.993L12.0712 118.528L12.4465 119.059L12.8274 119.587L13.2136 120.111L13.605 120.631L14.0018 121.148L14.4038 121.66L14.811 122.169L15.2236 122.674L15.6412 123.175L16.0639 123.672L16.4918 124.165L16.9246 124.653L17.3625 125.138L17.8054 125.618L18.2531 126.094L18.7058 126.565L19.1633 127.032L19.6256 127.495L20.0927 127.953L20.5644 128.407L21.0408 128.856L21.522 129.3L22.0076 129.739L22.4979 130.174L22.9926 130.604L23.4918 131.029L23.9954 131.449L24.5031 131.864L25.0155 132.274L25.532 132.679L26.0527 133.079L26.5775 133.474L27.1065 133.864L27.6397 134.248L28.1767 134.627L28.7178 135.001L29.2628 135.37L29.8116 135.733L30.3643 136.09L30.9207 136.442L31.4808 136.789L32.0446 137.13L32.612 137.465L33.1829 137.795L33.7574 138.119L34.3353 138.437L34.9166 138.75L35.5011 139.056L36.0889 139.357L36.6801 139.652L37.2743 139.941L37.8717 140.224L38.472 140.502L39.0755 140.773L39.6818 141.038L40.2909 141.297L40.9028 141.549L41.5176 141.796L42.1351 142.037L42.7552 142.271L43.3778 142.499L44.003 142.721L44.6306 142.937L45.2606 143.146L45.893 143.349L46.5276 143.545L47.1642 143.735L47.8033 143.919L48.4444 144.096L49.0874 144.267L49.7324 144.431L50.3793 144.589L51.0281 144.74L51.6786 144.885L52.3307 145.023L52.9845 145.154L53.64 145.279L54.297 145.397L54.9552 145.508L55.6149 145.613L56.2759 145.711L56.9383 145.803L57.6017 145.887L58.2662 145.965L58.9318 146.036L59.5986 146.101L60.2661 146.158L60.9343 146.209L61.6035 146.253L62.2733 146.29L62.9438 146.32L63.6149 146.344L64.2865 146.36L64.9585 146.37L65.6309 146.373L66.3036 146.369L66.9765 146.358L67.6497 146.341L68.323 146.316L68.9962 146.284L69.6694 146.246L70.3426 146.201L71.0155 146.149L71.6883 146.09L72.3607 146.024L73.0328 145.951L73.7044 145.871L74.3755 145.784L75.0461 145.691L75.716 145.59L76.3852 145.483L77.0535 145.369L77.721 145.247L78.3877 145.119L79.0534 144.985L79.718 144.843L80.3813 144.694L81.0437 144.539L81.7047 144.377L82.3643 144.208L83.0227 144.032L83.6795 143.849L84.3348 143.66L84.9884 143.463L85.6405 143.26L86.2908 143.051L86.9392 142.834L87.5859 142.611L88.2306 142.381L88.8733 142.145L89.5139 141.901L90.1523 141.652L90.7886 141.395L91.4227 141.132L92.0544 140.862L92.6836 140.586L93.3105 140.303L93.9347 140.014L94.5563 139.718L95.1754 139.416L95.7917 139.107L96.4052 138.792L97.0158 138.471L97.6236 138.143L98.2284 137.808L98.83 137.468L99.4286 137.121L100.024 136.768L100.616 136.409L101.205 136.043L101.791 135.671L102.373 135.294L102.951 134.91L103.526 134.52L104.098 134.124L104.665 133.722L105.229 133.314L105.79 132.9L106.346 132.48L106.898 132.055L107.447 131.623L107.991 131.186L108.532 130.743L109.068 130.294L109.6 129.84L110.128 129.38L110.651 128.914L111.17 128.443L111.685 127.967L112.195 127.485L112.701 126.998L113.202 126.505L113.698 126.007L114.19 125.504L114.677 124.995L115.159 124.481L115.636 123.963L116.108 123.439L116.575 122.91L117.038 122.376L117.495 121.837L117.947 121.293L118.394 120.745L118.836 120.191L119.272 119.633L119.703 119.07L120.129 118.503L120.549 117.931L120.964 117.355L121.373 116.774L121.777 116.188L122.175 115.599L122.568 115.005L122.955 114.406L123.336 113.804L123.711 113.197L124.08 112.587L124.444 111.972L124.802 111.354L125.153 110.731L125.499 110.105L125.839 109.475L126.173 108.841L126.5 108.203L126.821 107.562L127.137 106.918L127.446 106.27L127.748 105.618L128.045 104.963L128.335 104.305L128.619 103.644L128.896 102.979L129.167 102.312L129.431 101.641L129.689 100.968L129.941 100.291L130.185 99.612L130.424 98.9299L130.655 98.2452L130.88 97.5578L131.099 96.8678L131.31 96.1754L131.515 95.4805L131.713 94.7833L131.905 94.0837L132.089 93.382L132.267 92.6781L132.438 91.9721L132.601 91.2641L132.758 90.5541L132.909 89.8423L133.052 89.1286L133.188 88.4132L133.317 87.6962L133.439 86.9775L133.554 86.2573L133.663 85.5357L133.764 84.8127L133.858 84.0883L133.944 83.3628L134.024 82.636L134.097 81.9082L134.162 81.1794L134.221 80.4496L134.272 79.7189L134.316 78.9874L134.353 78.2552L134.382 77.5223L134.405 76.7888L134.42 76.0548L134.428 75.3204L134.429 74.5857L134.423 73.9147L134.423 19.8312L120.889 19.8312Z" fill="#427BE9"/>
<path d="M127.047 0.900879L149.266 19.8283H104.828L127.047 0.900879Z" fill="#427BE9"/>
<path d="M169.826 38.1822L173.418 34.2939C174.06 34.9852 174.911 35.6641 175.973 36.3307C177.059 36.9972 178.318 37.3305 179.75 37.3305C180.318 37.3305 180.874 37.2318 181.417 37.0343C181.96 36.8121 182.404 36.5035 182.75 36.1085C183.12 35.6888 183.305 35.195 183.305 34.6272C183.305 33.7137 182.861 32.9978 181.972 32.4793C181.083 31.9609 179.676 31.4671 177.75 30.9981C175.874 30.529 174.319 29.702 173.084 28.5169C171.85 27.3319 171.233 25.8013 171.233 23.925C171.233 22.5425 171.566 21.2834 172.233 20.1478C172.899 18.9874 173.899 18.0616 175.232 17.3704C176.565 16.6544 178.244 16.2964 180.269 16.2964C181.947 16.2964 183.355 16.5186 184.49 16.963C185.651 17.3827 186.576 17.8518 187.268 18.3702C187.959 18.8887 188.44 19.3084 188.712 19.6293L185.49 23.1844C184.947 22.7647 184.231 22.2956 183.342 21.7772C182.454 21.234 181.404 20.9625 180.195 20.9625C179.405 20.9625 178.664 21.197 177.973 21.6661C177.306 22.1104 176.973 22.6536 176.973 23.2955C176.973 24.1348 177.417 24.8138 178.306 25.3322C179.195 25.8507 180.417 26.2827 181.972 26.6283C183.182 26.9246 184.342 27.369 185.453 27.9615C186.589 28.554 187.515 29.381 188.23 30.4426C188.946 31.5042 189.304 32.8867 189.304 34.5902C189.304 36.0714 188.885 37.3922 188.045 38.5526C187.206 39.7129 186.07 40.6263 184.638 41.2929C183.207 41.9595 181.602 42.2928 179.824 42.2928C178.195 42.2928 176.751 42.0953 175.492 41.7003C174.232 41.3053 173.134 40.7992 172.196 40.182C171.258 39.5401 170.468 38.8735 169.826 38.1822ZM178.047 15.1114L173.862 9.33447H178.306L180.269 12.1119L182.268 9.33447H186.675L182.491 15.1114H178.047Z" fill="#222222"/>
<path d="M192.075 41.6632V16.963H197.408V29.776L202.703 24.2953H208.739L202.518 30.7018L209.591 41.6632H203.407L198.963 34.3309L197.408 35.9233V41.6632H192.075Z" fill="#222222"/>
<path d="M208.996 32.9608C208.996 31.2573 209.391 29.702 210.181 28.2948C210.971 26.8875 212.057 25.7766 213.44 24.9619C214.847 24.1225 216.476 23.7028 218.328 23.7028C220.18 23.7028 221.797 24.1225 223.179 24.9619C224.586 25.7766 225.673 26.8875 226.438 28.2948C227.228 29.702 227.623 31.2573 227.623 32.9608C227.623 34.6642 227.228 36.2196 226.438 37.6268C225.673 39.034 224.586 40.1573 223.179 40.9967C221.797 41.836 220.18 42.2557 218.328 42.2557C216.476 42.2557 214.847 41.836 213.44 40.9967C212.057 40.1573 210.971 39.034 210.181 37.6268C209.391 36.2196 208.996 34.6642 208.996 32.9608ZM218.328 37.6268C219.242 37.6268 219.995 37.4046 220.587 36.9602C221.204 36.5158 221.673 35.9356 221.994 35.2197C222.315 34.5037 222.476 33.7508 222.476 32.9608C222.476 32.1707 222.315 31.4301 221.994 30.7388C221.673 30.0229 221.204 29.4427 220.587 28.9984C219.995 28.554 219.242 28.3318 218.328 28.3318C217.439 28.3318 216.674 28.554 216.032 28.9984C215.415 29.4427 214.946 30.0229 214.625 30.7388C214.304 31.4301 214.143 32.1707 214.143 32.9608C214.143 33.7508 214.304 34.5037 214.625 35.2197C214.946 35.9356 215.415 36.5158 216.032 36.9602C216.674 37.4046 217.439 37.6268 218.328 37.6268Z" fill="#222222"/>
<path d="M229.859 41.6632V16.963H235.192V41.6632H229.859Z" fill="#222222"/>
<path d="M248.412 41.6632L248.264 40.0338C247.03 41.4657 245.277 42.1817 243.005 42.1817C242.191 42.1817 241.327 42.0212 240.413 41.7003C239.524 41.404 238.759 40.8609 238.117 40.0709C237.475 39.2808 237.154 38.1946 237.154 36.8121C237.154 35.4542 237.5 34.3062 238.191 33.3681C238.907 32.43 239.87 31.7264 241.08 31.2573C242.289 30.7635 243.647 30.5167 245.153 30.5167C245.77 30.5167 246.388 30.529 247.005 30.5537C247.647 30.5784 248.066 30.6154 248.264 30.6648V30.2945C248.264 29.4057 247.918 28.7762 247.227 28.4058C246.56 28.0108 245.795 27.8133 244.931 27.8133C243.771 27.8133 242.796 27.9615 242.006 28.2577C241.216 28.554 240.549 28.8873 240.006 29.2576L237.821 25.9988C238.537 25.431 239.512 24.9125 240.746 24.4434C241.981 23.9497 243.623 23.7028 245.672 23.7028C248.313 23.7028 250.264 24.4188 251.523 25.8507C252.782 27.2579 253.411 29.1588 253.411 31.5536V41.6632H248.412ZM248.264 35.4049V33.9976C248.141 33.973 247.906 33.9483 247.56 33.9236C247.215 33.8742 246.82 33.8495 246.375 33.8495C244.894 33.8495 243.845 34.0594 243.228 34.4791C242.61 34.8988 242.302 35.4913 242.302 36.2566C242.302 37.6885 243.166 38.4044 244.894 38.4044C245.733 38.4044 246.499 38.1452 247.19 37.6268C247.906 37.1083 248.264 36.3677 248.264 35.4049Z" fill="#222222"/>
<path d="M262.088 49.0696V24.2953H267.199C267.248 24.6163 267.285 24.9372 267.31 25.2581C267.335 25.5544 267.359 25.863 267.384 26.1839C267.952 25.468 268.68 24.9249 269.569 24.5545C270.458 24.1595 271.383 23.962 272.346 23.962C274.05 23.962 275.469 24.3817 276.605 25.2211C277.74 26.0605 278.592 27.1591 279.16 28.5169C279.728 29.8748 280.012 31.319 280.012 32.8497C280.012 34.4544 279.74 35.8492 279.197 37.0343C278.679 38.2193 277.975 39.1944 277.086 39.9598C276.197 40.7251 275.222 41.2929 274.161 41.6632C273.099 42.0335 272.025 42.2187 270.939 42.2187C270.1 42.2187 269.408 42.1446 268.865 41.9965C268.322 41.8484 267.828 41.7003 267.384 41.5521V49.0696H262.088ZM267.384 32.4423V37.0713C268.1 37.5404 269.124 37.7749 270.458 37.7749C271.766 37.7749 272.791 37.3305 273.531 36.4417C274.297 35.553 274.679 34.3927 274.679 32.9608C274.679 32.1954 274.556 31.4795 274.309 30.8129C274.087 30.1217 273.704 29.5662 273.161 29.1465C272.642 28.7268 271.939 28.5169 271.05 28.5169C269.865 28.5169 268.952 28.9243 268.31 29.739C267.693 30.5537 267.384 31.4548 267.384 32.4423Z" fill="#222222"/>
<path d="M282.246 41.6632V24.2953H287.356L287.542 26.4802C287.986 25.8877 288.591 25.3199 289.356 24.7767C290.146 24.2336 291.158 23.962 292.393 23.962C292.862 23.962 293.257 23.9867 293.578 24.0361C293.923 24.0855 294.257 24.1719 294.578 24.2953L293.726 28.9984C293.183 28.8255 292.541 28.7391 291.8 28.7391C290.541 28.7391 289.517 29.1218 288.727 29.8871C287.961 30.6278 287.579 31.6893 287.579 33.0719V41.6632H282.246Z" fill="#222222"/>
<path d="M309.355 36.4047L311.54 39.7746C311.293 39.9474 310.849 40.2313 310.207 40.6263C309.59 41.0213 308.763 41.3917 307.726 41.7373C306.689 42.0829 305.417 42.2557 303.911 42.2557C301.936 42.2557 300.233 41.8607 298.801 41.0707C297.369 40.2807 296.271 39.1821 295.505 37.7749C294.74 36.3677 294.357 34.7506 294.357 32.9237C294.357 31.2943 294.703 29.776 295.394 28.3688C296.11 26.9616 297.135 25.8383 298.468 24.9989C299.826 24.1348 301.443 23.7028 303.319 23.7028C305.195 23.7028 306.763 24.1348 308.022 24.9989C309.306 25.8383 310.269 27.011 310.91 28.5169C311.577 29.9982 311.91 31.714 311.91 33.6644V34.5531H299.542C299.566 35.4666 299.986 36.2813 300.801 36.9972C301.615 37.7132 302.714 38.0711 304.097 38.0711C305.479 38.0711 306.602 37.8736 307.466 37.4786C308.331 37.0589 308.96 36.701 309.355 36.4047ZM299.542 31.1462H306.874C306.874 30.6524 306.738 30.1587 306.467 29.6649C306.22 29.1465 305.825 28.7144 305.282 28.3688C304.763 28.0232 304.097 27.8504 303.282 27.8504C302.467 27.8504 301.776 28.0232 301.208 28.3688C300.665 28.7144 300.245 29.1465 299.949 29.6649C299.677 30.1587 299.542 30.6524 299.542 31.1462Z" fill="#222222"/>
<path d="M171.122 73.7575V56.3895H176.232L176.417 58.3152C176.96 57.6486 177.652 57.0931 178.491 56.6488C179.331 56.2044 180.318 55.9822 181.454 55.9822C182.836 55.9822 183.935 56.2414 184.749 56.7599C185.564 57.2783 186.169 57.8214 186.564 58.3893C187.28 57.6239 188.144 57.0314 189.156 56.6117C190.193 56.192 191.267 55.9822 192.378 55.9822C194.575 55.9822 196.266 56.6241 197.451 57.9078C198.636 59.1669 199.229 60.8704 199.229 63.0182V73.7575H193.896V63.87C193.896 62.8578 193.662 62.0677 193.193 61.4999C192.748 60.9074 192.069 60.6112 191.156 60.6112C190.144 60.6112 189.317 60.9691 188.675 61.6851C188.058 62.401 187.749 63.3145 187.749 64.4254V73.7575H182.602V63.87C182.602 62.8578 182.367 62.0677 181.898 61.4999C181.454 60.9074 180.775 60.6112 179.861 60.6112C178.874 60.6112 178.059 60.9691 177.417 61.6851C176.775 62.401 176.454 63.3145 176.454 64.4254V73.7575H171.122Z" fill="#222222"/>
<path d="M202.128 53.8343V49.0572H207.831V53.8343H202.128ZM202.313 73.7575V56.3895H207.646V73.7575H202.313Z" fill="#222222"/>
<path d="M210.786 73.7575V56.3895H215.897L216.082 58.3152C216.625 57.6486 217.316 57.0931 218.156 56.6488C218.995 56.2044 219.983 55.9822 221.118 55.9822C222.501 55.9822 223.599 56.2414 224.414 56.7599C225.229 57.2783 225.834 57.8214 226.229 58.3893C226.945 57.6239 227.809 57.0314 228.821 56.6117C229.858 56.192 230.932 55.9822 232.043 55.9822C234.24 55.9822 235.931 56.6241 237.116 57.9078C238.301 59.1669 238.893 60.8704 238.893 63.0182V73.7575H233.561V63.87C233.561 62.8578 233.326 62.0677 232.857 61.4999C232.413 60.9074 231.734 60.6112 230.821 60.6112C229.808 60.6112 228.981 60.9691 228.339 61.6851C227.722 62.401 227.414 63.3145 227.414 64.4254V73.7575H222.266V63.87C222.266 62.8578 222.032 62.0677 221.563 61.4999C221.118 60.9074 220.439 60.6112 219.526 60.6112C218.538 60.6112 217.724 60.9691 217.082 61.6851C216.44 62.401 216.119 63.3145 216.119 64.4254V73.7575H210.786Z" fill="#222222"/>
<path d="M241.052 65.055C241.052 63.3515 241.447 61.7962 242.237 60.389C243.027 58.9818 244.113 57.8708 245.496 57.0561C246.903 56.2167 248.532 55.797 250.384 55.797C252.235 55.797 253.852 56.2167 255.235 57.0561C256.642 57.8708 257.728 58.9818 258.494 60.389C259.284 61.7962 259.679 63.3515 259.679 65.055C259.679 66.7584 259.284 68.3138 258.494 69.721C257.728 71.1282 256.642 72.2515 255.235 73.0909C253.852 73.9303 252.235 74.35 250.384 74.35C248.532 74.35 246.903 73.9303 245.496 73.0909C244.113 72.2515 243.027 71.1282 242.237 69.721C241.447 68.3138 241.052 66.7584 241.052 65.055ZM250.384 69.721C251.297 69.721 252.05 69.4988 252.643 69.0544C253.26 68.61 253.729 68.0299 254.05 67.3139C254.371 66.598 254.531 65.845 254.531 65.055C254.531 64.265 254.371 63.5243 254.05 62.8331C253.729 62.1171 253.26 61.537 252.643 61.0926C252.05 60.6482 251.297 60.426 250.384 60.426C249.495 60.426 248.73 60.6482 248.088 61.0926C247.471 61.537 247.001 62.1171 246.681 62.8331C246.36 63.5243 246.199 64.265 246.199 65.055C246.199 65.845 246.36 66.598 246.681 67.3139C247.001 68.0299 247.471 68.61 248.088 69.0544C248.73 69.4988 249.495 69.721 250.384 69.721Z" fill="#222222"/>
<path d="M261.915 73.7575V56.3895H267.025L267.21 58.5744C267.655 57.9819 268.26 57.4141 269.025 56.8709C269.815 56.3278 270.827 56.0562 272.062 56.0562C272.531 56.0562 272.926 56.0809 273.247 56.1303C273.592 56.1797 273.925 56.2661 274.246 56.3895L273.395 61.0926C272.852 60.9198 272.21 60.8334 271.469 60.8334C270.21 60.8334 269.185 61.216 268.395 61.9813C267.63 62.722 267.247 63.7836 267.247 65.1661V73.7575H261.915Z" fill="#222222"/>
<path d="M275.49 53.8343V49.0572H281.193V53.8343H275.49ZM275.675 73.7575V56.3895H281.008V73.7575H275.675Z" fill="#222222"/>
<path d="M294.369 73.7575L294.221 72.128C292.987 73.5599 291.234 74.2759 288.962 74.2759C288.148 74.2759 287.284 74.1154 286.37 73.7945C285.481 73.4982 284.716 72.9551 284.074 72.1651C283.432 71.3751 283.111 70.2888 283.111 68.9063C283.111 67.5485 283.457 66.4005 284.148 65.4623C284.864 64.5242 285.827 63.8206 287.037 63.3515C288.247 62.8578 289.604 62.6109 291.11 62.6109C291.728 62.6109 292.345 62.6232 292.962 62.6479C293.604 62.6726 294.023 62.7096 294.221 62.759V62.3887C294.221 61.4999 293.875 60.8704 293.184 60.5001C292.518 60.1051 291.752 59.9076 290.888 59.9076C289.728 59.9076 288.753 60.0557 287.963 60.3519C287.173 60.6482 286.506 60.9815 285.963 61.3518L283.778 58.093C284.494 57.5252 285.469 57.0067 286.704 56.5377C287.938 56.0439 289.58 55.797 291.629 55.797C294.27 55.797 296.221 56.513 297.48 57.9449C298.739 59.3521 299.368 61.253 299.368 63.6478V73.7575H294.369ZM294.221 67.4991V66.0919C294.098 66.0672 293.863 66.0425 293.517 66.0178C293.172 65.9684 292.777 65.9437 292.332 65.9437C290.851 65.9437 289.802 66.1536 289.185 66.5733C288.567 66.993 288.259 67.5855 288.259 68.3508C288.259 69.7827 289.123 70.4987 290.851 70.4987C291.69 70.4987 292.456 70.2394 293.147 69.721C293.863 69.2025 294.221 68.4619 294.221 67.4991Z" fill="#222222"/>
<path d="M314.316 73.7575L314.094 72.017C313.551 72.6342 312.847 73.1649 311.983 73.6093C311.144 74.0537 310.181 74.2759 309.095 74.2759C307.688 74.2759 306.404 73.9179 305.243 73.202C304.108 72.4613 303.194 71.4244 302.503 70.0913C301.837 68.7335 301.503 67.1411 301.503 65.3142C301.503 63.7589 301.775 62.401 302.318 61.2407C302.861 60.0557 303.577 59.0805 304.466 58.3152C305.379 57.5499 306.367 56.982 307.428 56.6117C308.49 56.2167 309.539 56.0192 310.576 56.0192C311.415 56.0192 312.07 56.0809 312.539 56.2044C313.032 56.3031 313.514 56.4389 313.983 56.6117V49.0572H319.278V73.7575H314.316ZM313.983 65.9067V61.1666C313.292 60.7469 312.354 60.5371 311.169 60.5371C309.811 60.5371 308.749 60.9938 307.984 61.9073C307.243 62.8207 306.873 63.9934 306.873 65.4253C306.873 66.6844 307.181 67.7213 307.799 68.536C308.441 69.326 309.366 69.721 310.576 69.721C311.786 69.721 312.65 69.3383 313.168 68.573C313.711 67.783 313.983 66.8942 313.983 65.9067Z" fill="#222222"/>
<path d="M322.331 73.7575V56.3895H327.441L327.59 58.2782C328.157 57.5869 328.91 57.0314 329.848 56.6117C330.787 56.192 331.749 55.9822 332.737 55.9822C334.712 55.9822 336.292 56.5747 337.477 57.7597C338.662 58.9447 339.255 60.6976 339.255 63.0182V73.7575H333.922V63.7589C333.922 62.796 333.675 62.0307 333.181 61.4629C332.712 60.8951 332.046 60.6112 331.182 60.6112C330.021 60.6112 329.133 60.9938 328.515 61.7591C327.923 62.5245 327.627 63.4132 327.627 64.4254V73.7575H322.331Z" fill="#222222"/>
<path d="M356.383 68.4989L358.567 71.8688C358.321 72.0416 357.876 72.3256 357.234 72.7206C356.617 73.1156 355.79 73.4859 354.753 73.8315C353.716 74.1771 352.445 74.35 350.939 74.35C348.964 74.35 347.26 73.955 345.829 73.1649C344.397 72.3749 343.298 71.2763 342.533 69.8691C341.767 68.4619 341.385 66.8448 341.385 65.0179C341.385 63.3885 341.73 61.8702 342.422 60.463C343.138 59.0558 344.162 57.9325 345.495 57.0931C346.853 56.2291 348.47 55.797 350.346 55.797C352.223 55.797 353.79 56.2291 355.049 57.0931C356.333 57.9325 357.296 59.1052 357.938 60.6112C358.605 62.0924 358.938 63.8082 358.938 65.7586V66.6473H346.569C346.594 67.5608 347.014 68.3755 347.828 69.0914C348.643 69.8074 349.742 70.1654 351.124 70.1654C352.507 70.1654 353.63 69.9679 354.494 69.5729C355.358 69.1532 355.988 68.7952 356.383 68.4989ZM346.569 63.2404H353.901C353.901 62.7467 353.766 62.2529 353.494 61.7591C353.247 61.2407 352.852 60.8087 352.309 60.463C351.791 60.1174 351.124 59.9446 350.309 59.9446C349.495 59.9446 348.803 60.1174 348.236 60.463C347.692 60.8087 347.273 61.2407 346.977 61.7591C346.705 62.2529 346.569 62.7467 346.569 63.2404Z" fill="#222222"/>
<path d="M171.159 105.852V88.4838H176.269L176.417 90.3724C176.985 89.6811 177.738 89.1256 178.676 88.706C179.614 88.2863 180.577 88.0764 181.565 88.0764C183.54 88.0764 185.12 88.6689 186.305 89.8539C187.49 91.039 188.082 92.7918 188.082 95.1124V105.852H182.75V95.8531C182.75 94.8903 182.503 94.1249 182.009 93.5571C181.54 92.9893 180.874 92.7054 180.009 92.7054C178.849 92.7054 177.96 93.088 177.343 93.8534C176.751 94.6187 176.454 95.5075 176.454 96.5197V105.852H171.159Z" fill="#222222"/>
<path d="M201.211 105.852L201.063 104.222C199.828 105.654 198.076 106.37 195.804 106.37C194.99 106.37 194.126 106.21 193.212 105.889C192.323 105.592 191.558 105.049 190.916 104.259C190.274 103.469 189.953 102.383 189.953 101.001C189.953 99.6427 190.299 98.4947 190.99 97.5565C191.706 96.6184 192.669 95.9148 193.879 95.4457C195.088 94.952 196.446 94.7051 197.952 94.7051C198.569 94.7051 199.187 94.7174 199.804 94.7421C200.446 94.7668 200.865 94.8039 201.063 94.8532V94.4829C201.063 93.5941 200.717 92.9646 200.026 92.5943C199.359 92.1993 198.594 92.0018 197.73 92.0018C196.57 92.0018 195.595 92.1499 194.804 92.4462C194.014 92.7424 193.348 93.0757 192.805 93.446L190.62 90.1872C191.336 89.6194 192.311 89.101 193.545 88.6319C194.78 88.1381 196.422 87.8913 198.471 87.8913C201.112 87.8913 203.063 88.6072 204.322 90.0391C205.581 91.4463 206.21 93.3473 206.21 95.742V105.852H201.211ZM201.063 99.5933V98.1861C200.939 98.1614 200.705 98.1367 200.359 98.112C200.014 98.0627 199.619 98.038 199.174 98.038C197.693 98.038 196.644 98.2478 196.027 98.6675C195.409 99.0872 195.101 99.6797 195.101 100.445C195.101 101.877 195.965 102.593 197.693 102.593C198.532 102.593 199.298 102.334 199.989 101.815C200.705 101.297 201.063 100.556 201.063 99.5933Z" fill="#222222"/>
<path d="M221.158 105.852L220.936 104.111C220.393 104.728 219.689 105.259 218.825 105.704C217.986 106.148 217.023 106.37 215.937 106.37C214.529 106.37 213.246 106.012 212.085 105.296C210.95 104.556 210.036 103.519 209.345 102.186C208.678 100.828 208.345 99.2353 208.345 97.4084C208.345 95.8531 208.617 94.4953 209.16 93.3349C209.703 92.1499 210.419 91.1747 211.308 90.4094C212.221 89.6441 213.209 89.0763 214.27 88.706C215.332 88.3109 216.381 88.1134 217.418 88.1134C218.257 88.1134 218.912 88.1752 219.381 88.2986C219.874 88.3974 220.356 88.5331 220.825 88.706V81.1515H226.12V105.852H221.158ZM220.825 98.0009V93.2609C220.134 92.8412 219.195 92.6313 218.01 92.6313C216.653 92.6313 215.591 93.088 214.826 94.0015C214.085 94.9149 213.715 96.0876 213.715 97.5195C213.715 98.7786 214.023 99.8155 214.641 100.63C215.282 101.42 216.208 101.815 217.418 101.815C218.628 101.815 219.492 101.433 220.01 100.667C220.553 99.8772 220.825 98.9884 220.825 98.0009Z" fill="#222222"/>
<path d="M239.357 105.852L239.209 104.222C237.974 105.654 236.221 106.37 233.95 106.37C233.135 106.37 232.271 106.21 231.358 105.889C230.469 105.592 229.704 105.049 229.062 104.259C228.42 103.469 228.099 102.383 228.099 101.001C228.099 99.6427 228.445 98.4947 229.136 97.5565C229.852 96.6184 230.815 95.9148 232.024 95.4457C233.234 94.952 234.592 94.7051 236.098 94.7051C236.715 94.7051 237.332 94.7174 237.949 94.7421C238.591 94.7668 239.011 94.8039 239.209 94.8532V94.4829C239.209 93.5941 238.863 92.9646 238.172 92.5943C237.505 92.1993 236.74 92.0018 235.876 92.0018C234.715 92.0018 233.74 92.1499 232.95 92.4462C232.16 92.7424 231.494 93.0757 230.95 93.446L228.766 90.1872C229.481 89.6194 230.457 89.101 231.691 88.6319C232.925 88.1381 234.567 87.8913 236.616 87.8913C239.258 87.8913 241.208 88.6072 242.467 90.0391C243.726 91.4463 244.356 93.3473 244.356 95.742V105.852H239.357ZM239.209 99.5933V98.1861C239.085 98.1614 238.851 98.1367 238.505 98.112C238.159 98.0627 237.764 98.038 237.32 98.038C235.839 98.038 234.789 98.2478 234.172 98.6675C233.555 99.0872 233.246 99.6797 233.246 100.445C233.246 101.877 234.11 102.593 235.839 102.593C236.678 102.593 237.443 102.334 238.135 101.815C238.851 101.297 239.209 100.556 239.209 99.5933Z" fill="#222222"/>
<path d="M247.305 105.852V88.4838H252.416L252.564 90.3724C253.132 89.6811 253.885 89.1256 254.823 88.706C255.761 88.2863 256.724 88.0764 257.711 88.0764C259.686 88.0764 261.266 88.6689 262.451 89.8539C263.636 91.039 264.229 92.7918 264.229 95.1124V105.852H258.896V95.8531C258.896 94.8903 258.65 94.1249 258.156 93.5571C257.687 92.9893 257.02 92.7054 256.156 92.7054C254.996 92.7054 254.107 93.088 253.49 93.8534C252.897 94.6187 252.601 95.5075 252.601 96.5197V105.852H247.305Z" fill="#222222"/>
<path d="M281.357 100.593L283.542 103.963C283.295 104.136 282.851 104.42 282.209 104.815C281.592 105.21 280.765 105.58 279.728 105.926C278.691 106.271 277.419 106.444 275.913 106.444C273.938 106.444 272.235 106.049 270.803 105.259C269.371 104.469 268.272 103.371 267.507 101.963C266.742 100.556 266.359 98.9391 266.359 97.1122C266.359 95.4828 266.705 93.9645 267.396 92.5573C268.112 91.1501 269.137 90.0267 270.47 89.1874C271.828 88.3233 273.445 87.8913 275.321 87.8913C277.197 87.8913 278.765 88.3233 280.024 89.1874C281.308 90.0267 282.271 91.1994 282.912 92.7054C283.579 94.1867 283.912 95.9025 283.912 97.8528V98.7416H271.544C271.568 99.655 271.988 100.47 272.803 101.186C273.617 101.902 274.716 102.26 276.099 102.26C277.481 102.26 278.604 102.062 279.468 101.667C280.333 101.247 280.962 100.889 281.357 100.593ZM271.544 95.3346H278.876C278.876 94.8409 278.74 94.3471 278.469 93.8534C278.222 93.3349 277.827 92.9029 277.284 92.5573C276.765 92.2116 276.099 92.0388 275.284 92.0388C274.469 92.0388 273.778 92.2116 273.21 92.5573C272.667 92.9029 272.247 93.3349 271.951 93.8534C271.679 94.3471 271.544 94.8409 271.544 95.3346ZM273.025 85.8545L274.802 80.596H280.061L276.95 85.8545H273.025Z" fill="#222222"/>
<path d="M303.829 105.852L303.607 104.111C303.063 104.728 302.36 105.259 301.496 105.704C300.656 106.148 299.693 106.37 298.607 106.37C297.2 106.37 295.916 106.012 294.756 105.296C293.62 104.556 292.707 103.519 292.016 102.186C291.349 100.828 291.016 99.2353 291.016 97.4084C291.016 95.8531 291.287 94.4953 291.83 93.3349C292.374 92.1499 293.089 91.1747 293.978 90.4094C294.892 89.6441 295.879 89.0763 296.941 88.706C298.002 88.3109 299.052 88.1134 300.088 88.1134C300.928 88.1134 301.582 88.1752 302.051 88.2986C302.545 88.3974 303.026 88.5331 303.495 88.706V81.1515H308.791V105.852H303.829ZM303.495 98.0009V93.2609C302.804 92.8412 301.866 92.6313 300.681 92.6313C299.323 92.6313 298.262 93.088 297.496 94.0015C296.756 94.9149 296.385 96.0876 296.385 97.5195C296.385 98.7786 296.694 99.8155 297.311 100.63C297.953 101.42 298.879 101.815 300.088 101.815C301.298 101.815 302.162 101.433 302.681 100.667C303.224 99.8772 303.495 98.9884 303.495 98.0009Z" fill="#222222"/>
<path d="M326.027 100.593L328.212 103.963C327.965 104.136 327.52 104.42 326.878 104.815C326.261 105.21 325.434 105.58 324.397 105.926C323.36 106.271 322.089 106.444 320.583 106.444C318.608 106.444 316.904 106.049 315.473 105.259C314.041 104.469 312.942 103.371 312.177 101.963C311.411 100.556 311.029 98.9391 311.029 97.1122C311.029 95.4828 311.374 93.9645 312.066 92.5573C312.782 91.1501 313.806 90.0267 315.139 89.1874C316.497 88.3233 318.114 87.8913 319.99 87.8913C321.867 87.8913 323.434 88.3233 324.694 89.1874C325.977 90.0267 326.94 91.1994 327.582 92.7054C328.249 94.1867 328.582 95.9025 328.582 97.8528V98.7416H316.213C316.238 99.655 316.658 100.47 317.472 101.186C318.287 101.902 319.386 102.26 320.768 102.26C322.151 102.26 323.274 102.062 324.138 101.667C325.002 101.247 325.632 100.889 326.027 100.593ZM316.213 95.3346H323.546C323.546 94.8409 323.41 94.3471 323.138 93.8534C322.891 93.3349 322.496 92.9029 321.953 92.5573C321.435 92.2116 320.768 92.0388 319.953 92.0388C319.139 92.0388 318.447 92.2116 317.88 92.5573C317.337 92.9029 316.917 93.3349 316.621 93.8534C316.349 94.3471 316.213 94.8409 316.213 95.3346Z" fill="#222222"/>
<path d="M331.995 99.223V92.6684H329.254V88.4838H331.995V82.7809H337.327V88.4838H341.808V92.6684H337.327V99.5192C337.327 100.359 337.488 101.013 337.809 101.482C338.154 101.926 338.685 102.148 339.401 102.148C339.944 102.148 340.413 102.062 340.808 101.889C341.203 101.692 341.573 101.47 341.919 101.223L344.067 104.481C342.413 105.815 340.586 106.481 338.586 106.481C336.932 106.481 335.624 106.173 334.661 105.555C333.698 104.938 333.007 104.086 332.587 103C332.192 101.914 331.995 100.655 331.995 99.223Z" fill="#222222"/>
<path d="M345.214 85.9286V81.1515H350.917V85.9286H345.214ZM345.399 105.852V88.4838H350.731V105.852H345.399Z" fill="#222222"/>
<path d="M181.343 137.946L181.194 136.316C179.96 137.748 178.207 138.464 175.936 138.464C175.121 138.464 174.257 138.304 173.344 137.983C172.455 137.687 171.69 137.144 171.048 136.354C170.406 135.564 170.085 134.477 170.085 133.095C170.085 131.737 170.431 130.589 171.122 129.651C171.838 128.713 172.801 128.009 174.01 127.54C175.22 127.046 176.578 126.799 178.084 126.799C178.701 126.799 179.318 126.812 179.935 126.836C180.577 126.861 180.997 126.898 181.194 126.947V126.577C181.194 125.688 180.849 125.059 180.158 124.689C179.491 124.294 178.726 124.096 177.862 124.096C176.701 124.096 175.726 124.244 174.936 124.54C174.146 124.837 173.479 125.17 172.936 125.54L170.751 122.281C171.467 121.714 172.443 121.195 173.677 120.726C174.911 120.232 176.553 119.985 178.602 119.985C181.244 119.985 183.194 120.701 184.453 122.133C185.712 123.541 186.342 125.441 186.342 127.836V137.946H181.343ZM181.194 131.688V130.28C181.071 130.256 180.836 130.231 180.491 130.206C180.145 130.157 179.75 130.132 179.306 130.132C177.825 130.132 176.775 130.342 176.158 130.762C175.541 131.181 175.232 131.774 175.232 132.539C175.232 133.971 176.096 134.687 177.825 134.687C178.664 134.687 179.429 134.428 180.121 133.909C180.836 133.391 181.194 132.65 181.194 131.688Z" fill="#222222"/>
<path d="M208.239 128.873V124.355H217.756V135.057C216.473 136.144 214.967 136.995 213.239 137.613C211.535 138.23 209.585 138.538 207.387 138.538C204.697 138.538 202.388 137.995 200.463 136.909C198.537 135.798 197.056 134.28 196.019 132.354C195.007 130.404 194.5 128.169 194.5 125.651C194.5 123.8 194.809 122.084 195.426 120.504C196.043 118.924 196.92 117.541 198.055 116.356C199.191 115.171 200.537 114.258 202.092 113.616C203.672 112.949 205.4 112.616 207.276 112.616C209.523 112.616 211.498 113.036 213.201 113.875C214.905 114.69 216.3 115.838 217.386 117.319L213.609 120.911C212.844 119.973 211.979 119.208 211.017 118.615C210.054 118.023 208.881 117.727 207.499 117.727C205.993 117.727 204.697 118.085 203.61 118.8C202.549 119.516 201.734 120.479 201.166 121.689C200.598 122.874 200.314 124.195 200.314 125.651C200.314 127.231 200.635 128.614 201.277 129.799C201.944 130.959 202.833 131.86 203.944 132.502C205.054 133.144 206.314 133.465 207.721 133.465C208.708 133.465 209.609 133.354 210.424 133.132C211.239 132.885 211.967 132.502 212.609 131.984V128.873H208.239Z" fill="#222222"/>
<path d="M219.669 144.352L221.817 140.686C222.113 140.908 222.447 141.106 222.817 141.279C223.187 141.452 223.57 141.538 223.965 141.538C224.533 141.538 225.014 141.353 225.409 140.982C225.804 140.637 226.162 140.032 226.483 139.168L227.002 137.761L219.077 120.578H225.15L229.483 131.539L233.408 120.578H239.074L231.964 137.835C231.569 138.798 231.174 139.748 230.779 140.686C230.384 141.624 229.915 142.476 229.372 143.241C228.853 144.031 228.187 144.649 227.372 145.093C226.557 145.562 225.545 145.797 224.335 145.797C223.397 145.797 222.545 145.673 221.78 145.426C221.015 145.179 220.311 144.821 219.669 144.352Z" fill="#222222"/>
<path d="M240.289 137.946V120.578H245.399L245.584 122.504C246.127 121.837 246.819 121.282 247.658 120.837C248.498 120.393 249.485 120.171 250.621 120.171C252.003 120.171 253.102 120.43 253.916 120.948C254.731 121.467 255.336 122.01 255.731 122.578C256.447 121.812 257.311 121.22 258.323 120.8C259.36 120.38 260.434 120.171 261.545 120.171C263.742 120.171 265.433 120.813 266.618 122.096C267.803 123.355 268.396 125.059 268.396 127.207V137.946H263.063V128.058C263.063 127.046 262.829 126.256 262.36 125.688C261.915 125.096 261.236 124.8 260.323 124.8C259.311 124.8 258.484 125.158 257.842 125.874C257.225 126.589 256.916 127.503 256.916 128.614V137.946H251.769V128.058C251.769 127.046 251.534 126.256 251.065 125.688C250.621 125.096 249.942 124.8 249.028 124.8C248.041 124.8 247.226 125.158 246.584 125.874C245.942 126.589 245.621 127.503 245.621 128.614V137.946H240.289Z" fill="#222222"/>
<path d="M271.369 137.946V120.578H276.479L276.627 122.467C277.195 121.775 277.948 121.22 278.886 120.8C279.824 120.38 280.787 120.171 281.775 120.171C283.75 120.171 285.33 120.763 286.515 121.948C287.7 123.133 288.292 124.886 288.292 127.207V137.946H282.96V127.947C282.96 126.984 282.713 126.219 282.219 125.651C281.75 125.084 281.084 124.8 280.219 124.8C279.059 124.8 278.17 125.182 277.553 125.948C276.961 126.713 276.664 127.602 276.664 128.614V137.946H271.369Z" fill="#222222"/>
<path d="M301.421 137.946L301.273 136.316C300.039 137.748 298.286 138.464 296.014 138.464C295.2 138.464 294.336 138.304 293.422 137.983C292.533 137.687 291.768 137.144 291.126 136.354C290.484 135.564 290.163 134.477 290.163 133.095C290.163 131.737 290.509 130.589 291.2 129.651C291.916 128.713 292.879 128.009 294.089 127.54C295.298 127.046 296.656 126.799 298.162 126.799C298.779 126.799 299.397 126.812 300.014 126.836C300.656 126.861 301.075 126.898 301.273 126.947V126.577C301.273 125.688 300.927 125.059 300.236 124.689C299.569 124.294 298.804 124.096 297.94 124.096C296.78 124.096 295.805 124.244 295.015 124.54C294.225 124.837 293.558 125.17 293.015 125.54L290.83 122.281C291.546 121.714 292.521 121.195 293.755 120.726C294.99 120.232 296.632 119.985 298.681 119.985C301.322 119.985 303.273 120.701 304.532 122.133C305.791 123.541 306.42 125.441 306.42 127.836V137.946H301.421ZM301.273 131.688V130.28C301.149 130.256 300.915 130.231 300.569 130.206C300.224 130.157 299.829 130.132 299.384 130.132C297.903 130.132 296.854 130.342 296.237 130.762C295.619 131.181 295.311 131.774 295.311 132.539C295.311 133.971 296.175 134.687 297.903 134.687C298.742 134.687 299.508 134.428 300.199 133.909C300.915 133.391 301.273 132.65 301.273 131.688ZM296.422 117.949L298.199 112.69H303.458L300.347 117.949H296.422Z" fill="#222222"/>
<path d="M308.851 137.946V134.354L317.369 124.874H309.222V120.578H324.109V124.244L315.554 133.761H324.146V137.946H308.851Z" fill="#222222"/>
<path d="M326.524 118.023V113.246H332.227V118.023H326.524ZM326.709 137.946V120.578H332.042V137.946H326.709Z" fill="#222222"/>
<path d="M335.109 131.354V120.578H340.441V130.577C340.441 131.564 340.676 132.342 341.145 132.91C341.639 133.477 342.355 133.761 343.293 133.761C344.379 133.761 345.218 133.379 345.811 132.613C346.403 131.823 346.7 130.935 346.7 129.947V120.578H351.995V137.946H346.885L346.737 136.094C346.169 136.761 345.416 137.316 344.478 137.761C343.564 138.18 342.601 138.39 341.589 138.39C339.614 138.39 338.034 137.798 336.849 136.613C335.689 135.428 335.109 133.675 335.109 131.354Z" fill="#222222"/>
<path d="M355.015 137.946V120.578H360.125L360.311 122.504C360.854 121.837 361.545 121.282 362.384 120.837C363.224 120.393 364.211 120.171 365.347 120.171C366.729 120.171 367.828 120.43 368.643 120.948C369.457 121.467 370.062 122.01 370.457 122.578C371.173 121.812 372.037 121.22 373.05 120.8C374.086 120.38 375.16 120.171 376.271 120.171C378.468 120.171 380.16 120.813 381.345 122.096C382.53 123.355 383.122 125.059 383.122 127.207V137.946H377.79V128.058C377.79 127.046 377.555 126.256 377.086 125.688C376.642 125.096 375.963 124.8 375.049 124.8C374.037 124.8 373.21 125.158 372.568 125.874C371.951 126.589 371.642 127.503 371.642 128.614V137.946H366.495V128.058C366.495 127.046 366.26 126.256 365.791 125.688C365.347 125.096 364.668 124.8 363.755 124.8C362.767 124.8 361.952 125.158 361.31 125.874C360.669 126.589 360.348 127.503 360.348 128.614V137.946H355.015Z" fill="#222222"/>
</svg>
