<?xml version="1.0" encoding="utf-8"?>
<!-- Generator: Adobe Illustrator 24.3.0, SVG Export Plug-In . SVG Version: 6.00 Build 0)  -->
<svg version="1.1" id="Layer_1" xmlns="http://www.w3.org/2000/svg" xmlns:xlink="http://www.w3.org/1999/xlink" x="0px" y="0px"
	 viewBox="0 0 472.92 169.62" style="enable-background:new 0 0 472.92 169.62;" xml:space="preserve">
<style type="text/css">
	.st0{fill:none;stroke:#000000;stroke-width:8;stroke-linecap:round;stroke-linejoin:round;stroke-miterlimit:10;}
	.st1{fill:#FFFFFF;}
	.st2{fill:none;stroke:#FFFFFF;stroke-width:8;stroke-linecap:round;stroke-linejoin:round;stroke-miterlimit:10;}
	.st3{fill:#FFFFFF;stroke:#000000;stroke-width:8;stroke-linecap:round;stroke-linejoin:round;stroke-miterlimit:10;}
</style>
<symbol  id="UK" viewBox="-304 -304 608 608">
	<g id="XMLID_33_">
		<g>
			<g>
				<g>
					<path d="M0-304c-81.2,0-157.54,31.62-214.96,89.04S-304-81.2-304,0s31.62,157.54,89.04,214.96C-157.54,272.38-81.2,304,0,304
						s157.54-31.62,214.96-89.04C272.38,157.54,304,81.2,304,0s-31.62-157.54-89.04-214.96S81.2-304,0-304z M0,296
						c-79.06,0-153.4-30.79-209.3-86.7S-296,79.06-296,0s30.79-153.4,86.7-209.3S-79.06-296,0-296s153.4,30.79,209.3,86.7
						S296-79.06,296,0s-30.79,153.4-86.7,209.3S79.06,296,0,296z"/>
					<path d="M0-266.5c-71.18,0-138.11,27.72-188.44,78.06C-238.78-138.11-266.5-71.18-266.5,0s27.72,138.11,78.06,188.44
						C-138.11,238.78-71.18,266.5,0,266.5s138.11-27.72,188.44-78.06C238.78,138.11,266.5,71.19,266.5,0s-27.72-138.11-78.06-188.44
						C138.11-238.78,71.18-266.5,0-266.5z M0,258.5c-69.05,0-133.96-26.89-182.79-75.71S-258.5,69.05-258.5,0
						s26.89-133.96,75.71-182.79S-69.05-258.5,0-258.5s133.96,26.89,182.79,75.71S258.5-69.05,258.5,0s-26.89,133.96-75.71,182.79
						S69.05,258.5,0,258.5z"/>
				</g>
				<g>
					<g>
						<path d="M-145.71-37.45c-2.21,0-4,1.79-4,4V93.21c0,2.21,1.79,4,4,4s4-1.79,4-4V-33.45
							C-141.71-35.66-143.51-37.45-145.71-37.45z"/>
					</g>
					<g>
						<path d="M-125.62-34.38c-2.21,0-4,1.79-4,4v130.43c0,2.21,1.79,4,4,4s4-1.79,4-4V-30.38
							C-121.62-32.59-123.41-34.38-125.62-34.38z"/>
					</g>
					<g>
						<path d="M-100.49-32.37c-2.21,0-4,1.79-4,4v133.08c0,2.21,1.79,4,4,4s4-1.79,4-4V-28.37
							C-96.49-30.57-98.28-32.37-100.49-32.37z"/>
					</g>
					<g>
						<path d="M-70.34-30.99c-2.21,0-4,1.79-4,4v135.02c0,2.21,1.79,4,4,4s4-1.79,4-4V-26.99C-66.34-29.2-68.14-30.99-70.34-30.99z"
							/>
					</g>
					<g>
						<path d="M-45.22-30.35c-2.21,0-4,1.79-4,4v136.01c0,2.21,1.79,4,4,4s4-1.79,4-4V-26.35C-41.22-28.56-43.01-30.35-45.22-30.35z
							"/>
					</g>
					<g>
						<path d="M-15.07-29.95c-2.21,0-4,1.79-4,4v136.68c0,2.21,1.79,4,4,4s4-1.79,4-4V-25.95C-11.07-28.16-12.86-29.95-15.07-29.95z
							"/>
					</g>
					<g>
						<path d="M-145.71-128.1c-2.21,0-4,1.79-4,4v72.52c0,2.21,1.79,4,4,4s4-1.79,4-4v-72.52
							C-141.71-126.31-143.51-128.1-145.71-128.1z"/>
					</g>
					<g>
						<path d="M-125.62-128.1c-2.21,0-4,1.79-4,4v75.59c0,2.21,1.79,4,4,4s4-1.79,4-4v-75.59
							C-121.62-126.31-123.41-128.1-125.62-128.1z"/>
					</g>
					<g>
						<path d="M-95.47-128.1c-2.21,0-4,1.79-4,4v77.91c0,2.21,1.79,4,4,4s4-1.79,4-4v-77.91C-91.47-126.31-93.26-128.1-95.47-128.1z
							"/>
					</g>
					<g>
						<path d="M-75.37-128.1c-2.21,0-4,1.79-4,4v78.8c0,2.21,1.79,4,4,4s4-1.79,4-4v-78.8C-71.37-126.31-73.16-128.1-75.37-128.1z"
							/>
					</g>
					<g>
						<path d="M-40.2-128.1c-2.21,0-4,1.79-4,4v79.71c0,2.21,1.79,4,4,4s4-1.79,4-4v-79.71C-36.2-126.31-37.99-128.1-40.2-128.1z"/>
					</g>
					<g>
						<path d="M-20.1-128.1c-2.21,0-4,1.79-4,4v79.94c0,2.21,1.79,4,4,4s4-1.79,4-4v-79.94C-16.1-126.31-17.89-128.1-20.1-128.1z"/>
					</g>
					<g>
						<path d="M-125.62-128.1h-20.1c-2.21,0-4,1.79-4,4s1.79,4,4,4h20.1c2.21,0,4-1.79,4-4S-123.41-128.1-125.62-128.1z"/>
					</g>
					<g>
						<path d="M-75.37-128.1h-20.1c-2.21,0-4,1.79-4,4s1.79,4,4,4h20.1c2.21,0,4-1.79,4-4S-73.16-128.1-75.37-128.1z"/>
					</g>
					<g>
						<path d="M-20.1-128.1h-20.1c-2.21,0-4,1.79-4,4s1.79,4,4,4h20.1c2.21,0,4-1.79,4-4S-17.89-128.1-20.1-128.1z"/>
					</g>
					<g>
						<path d="M-95.47-123.08h-30.15c-2.21,0-4,1.79-4,4s1.79,4,4,4h30.15c2.21,0,4-1.79,4-4S-93.26-123.08-95.47-123.08z"/>
					</g>
					<g>
						<path d="M-40.2-123.08h-35.17c-2.21,0-4,1.79-4,4s1.79,4,4,4h35.17c2.21,0,4-1.79,4-4S-37.99-123.08-40.2-123.08z"/>
					</g>
					<g>
						<path d="M0-123.08h-20.1c-2.21,0-4,1.79-4,4s1.79,4,4,4H0c2.21,0,4-1.79,4-4S2.21-123.08,0-123.08z"/>
					</g>
					<g>
						<path d="M0.02-143.17h-155.78c-2.21,0-4,1.79-4,4s1.79,4,4,4H0.02c2.21,0,4-1.79,4-4S2.23-143.17,0.02-143.17z"/>
					</g>
					<g>
						<path d="M0.02-158.25h-170.86c-2.21,0-4,1.79-4,4s1.79,4,4,4H0.02c2.21,0,4-1.79,4-4S2.23-158.25,0.02-158.25z"/>
					</g>
					<path d="M-155.76,100.69c-2.21,0-4,1.79-4,4c0,11.76,17.33,20.22,52.99,25.89c28.07,4.46,66,6.91,106.79,6.91
						c2.21,0,4-1.79,4-4s-1.79-4-4-4c-40.39,0-77.87-2.42-105.54-6.81c-44.02-6.99-46.25-16.21-46.25-17.99
						C-151.76,102.48-153.55,100.69-155.76,100.69z"/>
					<path d="M-155.76,79.92c-2.21,0-4,1.79-4,4c0,11.76,17.33,20.22,52.99,25.89c28.07,4.46,66,6.91,106.79,6.91c2.21,0,4-1.79,4-4
						s-1.79-4-4-4c-40.39,0-77.87-2.42-105.54-6.81c-44.02-6.99-46.25-16.21-46.25-17.99C-151.76,81.72-153.55,79.92-155.76,79.92z"
						/>
					<path d="M-155.76,102.03c-2.21,0-4,1.79-4,4v19.42c0,11.76,17.33,20.22,52.99,25.88c28.07,4.46,66,6.91,106.79,6.91
						c2.21,0,4-1.79,4-4s-1.79-4-4-4c-40.39,0-77.87-2.42-105.54-6.81c-44.02-6.99-46.25-16.21-46.25-17.98v-19.42
						C-151.76,103.82-153.55,102.03-155.76,102.03z"/>
					<path d="M-155.76-42.68c-2.21,0-4,1.79-4,4c0,5.71,7.46,8.01,15.53,9.65c7.85,1.59,19.3,2.95,34.03,4.03
						C-83-23.01-44.9-21.95,0-21.95c2.21,0,4-1.79,4-4s-1.79-4-4-4c-109.87,0-146.9-6.03-151.9-9.77
						C-152.36-41.43-153.91-42.68-155.76-42.68z"/>
					<path d="M-155.76-60.81c-2.21,0-4,1.79-4,4c0,5.71,7.46,8.01,15.53,9.65c7.85,1.59,19.3,2.95,34.03,4.03
						c27.2,2,65.31,3.05,110.21,3.05c2.21,0,4-1.79,4-4s-1.79-4-4-4c-109.87,0-146.9-6.03-151.9-9.77
						C-152.36-59.56-153.91-60.81-155.76-60.81z"/>
					<g>
						<path class="st0" d="M-20.1-124.1"/>
					</g>
					<path d="M-15.07,33.11c-2.19,0-3.97,1.76-4,3.96c-0.02,2.21,1.75,4.02,3.96,4.04c5.04,0.05,10.13,0.08,15.12,0.08
						c2.21,0,4-1.79,4-4s-1.79-4-4-4c-4.96,0-10.01-0.03-15.03-0.08C-15.05,33.11-15.06,33.11-15.07,33.11z"/>
					<path d="M-70.35,31.3c-2.11,0-3.87,1.64-3.99,3.77c-0.13,2.21,1.56,4.09,3.77,4.22c8.08,0.46,16.56,0.84,25.21,1.14
						c0.05,0,0.09,0,0.14,0c2.15,0,3.92-1.7,4-3.86c0.08-2.21-1.65-4.06-3.86-4.13c-8.59-0.29-17.02-0.67-25.03-1.13
						C-70.2,31.31-70.27,31.3-70.35,31.3z"/>
					<path d="M-125.62,26.15c-1.95,0-3.66,1.43-3.95,3.42c-0.32,2.19,1.19,4.22,3.37,4.54c7.37,1.09,15.9,2.08,25.34,2.96
						c2.2,0.21,4.15-1.41,4.35-3.61c0.21-2.2-1.41-4.15-3.61-4.35c-9.3-0.86-17.68-1.84-24.91-2.91
						C-125.23,26.17-125.43,26.15-125.62,26.15z"/>
					<path d="M-15.07,14.98c-2.19,0-3.97,1.76-4,3.96c-0.02,2.21,1.75,4.02,3.96,4.04c5.04,0.05,10.13,0.08,15.12,0.08
						c2.21,0,4-1.79,4-4s-1.79-4-4-4c-4.96,0-10.01-0.03-15.03-0.08C-15.05,14.98-15.06,14.98-15.07,14.98z"/>
					<path d="M-70.35,13.17c-2.11,0-3.87,1.65-3.99,3.77c-0.12,2.21,1.56,4.09,3.77,4.22c8.12,0.46,16.6,0.84,25.21,1.14
						c0.05,0,0.09,0,0.14,0c2.15,0,3.92-1.7,4-3.86c0.08-2.21-1.65-4.06-3.86-4.13c-8.55-0.29-16.97-0.67-25.03-1.13
						C-70.2,13.18-70.27,13.17-70.35,13.17z"/>
					<path d="M-125.62,8.02c-1.95,0-3.66,1.43-3.95,3.42c-0.32,2.19,1.19,4.22,3.37,4.54c7.39,1.09,15.92,2.08,25.34,2.96
						c2.2,0.21,4.15-1.41,4.35-3.61c0.21-2.2-1.41-4.15-3.61-4.35c-9.28-0.86-17.66-1.84-24.91-2.91
						C-125.23,8.04-125.43,8.02-125.62,8.02z"/>
					<g>
						<g>
							<path d="M145.71-37.45c-2.21,0-4,1.79-4,4V93.21c0,2.21,1.79,4,4,4s4-1.79,4-4V-33.45
								C149.71-35.66,147.92-37.45,145.71-37.45z"/>
						</g>
						<g>
							<path d="M125.62-34.38c-2.21,0-4,1.79-4,4v130.43c0,2.21,1.79,4,4,4s4-1.79,4-4V-30.38
								C129.62-32.59,127.83-34.38,125.62-34.38z"/>
						</g>
						<g>
							<path d="M100.49-32.37c-2.21,0-4,1.79-4,4v133.08c0,2.21,1.79,4,4,4s4-1.79,4-4V-28.37
								C104.49-30.57,102.7-32.37,100.49-32.37z"/>
						</g>
						<g>
							<path d="M70.34-30.99c-2.21,0-4,1.79-4,4v135.02c0,2.21,1.79,4,4,4s4-1.79,4-4V-26.99C74.34-29.2,72.55-30.99,70.34-30.99z"
								/>
						</g>
						<g>
							<path d="M45.22-30.35c-2.21,0-4,1.79-4,4v136.01c0,2.21,1.79,4,4,4s4-1.79,4-4V-26.35C49.22-28.56,47.43-30.35,45.22-30.35z"
								/>
						</g>
						<g>
							<path d="M15.07-29.95c-2.21,0-4,1.79-4,4v136.68c0,2.21,1.79,4,4,4s4-1.79,4-4V-25.95C19.07-28.16,17.28-29.95,15.07-29.95z"
								/>
						</g>
						<g>
							<path d="M145.71-128.1c-2.21,0-4,1.79-4,4v72.52c0,2.21,1.79,4,4,4s4-1.79,4-4v-72.52
								C149.71-126.31,147.92-128.1,145.71-128.1z"/>
						</g>
						<g>
							<path d="M125.62-128.1c-2.21,0-4,1.79-4,4v75.59c0,2.21,1.79,4,4,4s4-1.79,4-4v-75.59
								C129.62-126.31,127.83-128.1,125.62-128.1z"/>
						</g>
						<g>
							<path d="M95.47-128.1c-2.21,0-4,1.79-4,4v77.91c0,2.21,1.79,4,4,4s4-1.79,4-4v-77.91C99.47-126.31,97.68-128.1,95.47-128.1z"
								/>
						</g>
						<g>
							<path d="M75.37-128.1c-2.21,0-4,1.79-4,4v78.8c0,2.21,1.79,4,4,4s4-1.79,4-4v-78.8C79.37-126.31,77.58-128.1,75.37-128.1z"/>
						</g>
						<g>
							<path d="M40.2-128.1c-2.21,0-4,1.79-4,4v79.71c0,2.21,1.79,4,4,4s4-1.79,4-4v-79.71C44.2-126.31,42.41-128.1,40.2-128.1z"/>
						</g>
						<g>
							<path d="M20.1-128.1c-2.21,0-4,1.79-4,4v79.94c0,2.21,1.79,4,4,4s4-1.79,4-4v-79.94C24.1-126.31,22.31-128.1,20.1-128.1z"/>
						</g>
						<g>
							<path d="M145.71-128.1h-20.1c-2.21,0-4,1.79-4,4s1.79,4,4,4h20.1c2.21,0,4-1.79,4-4S147.92-128.1,145.71-128.1z"/>
						</g>
						<g>
							<path d="M95.47-128.1h-20.1c-2.21,0-4,1.79-4,4s1.79,4,4,4h20.1c2.21,0,4-1.79,4-4S97.68-128.1,95.47-128.1z"/>
						</g>
						<g>
							<path d="M40.2-128.1H20.1c-2.21,0-4,1.79-4,4s1.79,4,4,4h20.1c2.21,0,4-1.79,4-4S42.41-128.1,40.2-128.1z"/>
						</g>
						<g>
							<path d="M125.62-123.08H95.47c-2.21,0-4,1.79-4,4s1.79,4,4,4h30.15c2.21,0,4-1.79,4-4S127.83-123.08,125.62-123.08z"/>
						</g>
						<g>
							<path d="M75.37-123.08H40.2c-2.21,0-4,1.79-4,4s1.79,4,4,4h35.17c2.21,0,4-1.79,4-4S77.58-123.08,75.37-123.08z"/>
						</g>
						<g>
							<path d="M20.1-123.08H0c-2.21,0-4,1.79-4,4s1.79,4,4,4h20.1c2.21,0,4-1.79,4-4S22.31-123.08,20.1-123.08z"/>
						</g>
						<g>
							<path d="M155.76-143.17H-0.02c-2.21,0-4,1.79-4,4s1.79,4,4,4h155.78c2.21,0,4-1.79,4-4S157.97-143.17,155.76-143.17z"/>
						</g>
						<g>
							<path d="M170.84-158.25H-0.02c-2.21,0-4,1.79-4,4s1.79,4,4,4h170.86c2.21,0,4-1.79,4-4S173.05-158.25,170.84-158.25z"/>
						</g>
						<path d="M155.76,100.69c-2.21,0-4,1.79-4,4c0,1.78-2.23,11-46.25,17.99c-27.67,4.39-65.15,6.81-105.54,6.81
							c-2.21,0-4,1.79-4,4s1.79,4,4,4c40.79,0,78.72-2.45,106.79-6.91c35.66-5.66,52.99-14.13,52.99-25.89
							C159.76,102.48,157.97,100.69,155.76,100.69z"/>
						<path d="M155.76,79.92c-2.21,0-4,1.79-4,4c0,1.78-2.23,11-46.25,17.99c-27.67,4.39-65.15,6.81-105.54,6.81c-2.21,0-4,1.79-4,4
							s1.79,4,4,4c40.79,0,78.72-2.45,106.79-6.91c35.66-5.66,52.99-14.13,52.99-25.89C159.76,81.72,157.97,79.92,155.76,79.92z"/>
						<path d="M155.76,102.03c-2.21,0-4,1.79-4,4v19.42c0,1.78-2.23,11-46.25,17.98c-27.67,4.39-65.15,6.81-105.54,6.81
							c-2.21,0-4,1.79-4,4s1.79,4,4,4c40.79,0,78.72-2.45,106.79-6.91c35.66-5.66,52.99-14.13,52.99-25.88v-19.42
							C159.76,103.82,157.97,102.03,155.76,102.03z"/>
						<path d="M155.76-42.68c-1.85,0-3.41,1.25-3.86,2.96c-5,3.74-42.04,9.77-151.9,9.77c-2.21,0-4,1.79-4,4s1.79,4,4,4
							c44.9,0,83-1.06,110.21-3.05c14.73-1.08,26.18-2.44,34.03-4.03c8.07-1.64,15.53-3.94,15.53-9.65
							C159.76-40.89,157.97-42.68,155.76-42.68z"/>
						<path d="M155.76-60.81c-1.85,0-3.41,1.25-3.86,2.96c-5,3.74-42.04,9.77-151.9,9.77c-2.21,0-4,1.79-4,4s1.79,4,4,4
							c44.9,0,83.01-1.06,110.21-3.05c14.73-1.08,26.18-2.44,34.03-4.03c8.07-1.64,15.53-3.94,15.53-9.65
							C159.76-59.02,157.97-60.81,155.76-60.81z"/>
						<g>
							<path class="st0" d="M20.1-124.1"/>
						</g>
						<path d="M15.08,33.11c-0.01,0-0.03,0-0.04,0C10.01,33.16,4.96,33.19,0,33.19c-2.21,0-4,1.79-4,4s1.79,4,4,4
							c4.99,0,10.07-0.03,15.12-0.08c2.21-0.02,3.98-1.83,3.96-4.04C19.05,34.87,17.26,33.11,15.08,33.11z"/>
						<path d="M70.35,31.3c-0.08,0-0.15,0-0.23,0.01c-8.02,0.45-16.44,0.83-25.03,1.13c-2.21,0.08-3.94,1.93-3.86,4.13
							c0.08,2.21,1.92,3.9,4.13,3.86c8.65-0.3,17.14-0.68,25.21-1.14c2.21-0.12,3.89-2.01,3.77-4.22
							C74.22,32.95,72.45,31.3,70.35,31.3z"/>
						<path d="M125.62,26.15c-0.19,0-0.39,0.01-0.59,0.04c-7.23,1.07-15.61,2.04-24.91,2.91c-2.2,0.2-3.82,2.15-3.61,4.35
							c0.2,2.2,2.15,3.82,4.35,3.61c9.44-0.88,17.96-1.87,25.34-2.96c2.19-0.32,3.7-2.35,3.37-4.54
							C129.28,27.58,127.57,26.15,125.62,26.15z"/>
						<path d="M15.08,14.98c-0.01,0-0.03,0-0.04,0C10.01,15.03,4.96,15.06,0,15.06c-2.21,0-4,1.79-4,4s1.79,4,4,4
							c4.99,0,10.07-0.03,15.12-0.08c2.21-0.02,3.98-1.83,3.96-4.04C19.05,16.74,17.26,14.98,15.08,14.98z"/>
						<path d="M70.35,13.17c-0.08,0-0.15,0-0.23,0.01c-8.06,0.46-16.48,0.83-25.03,1.13c-2.21,0.08-3.94,1.93-3.86,4.13
							c0.08,2.21,1.92,3.89,4.13,3.86c8.61-0.29,17.09-0.68,25.21-1.14c2.21-0.12,3.89-2.01,3.77-4.22
							C74.22,14.82,72.45,13.17,70.35,13.17z"/>
						<path d="M125.62,8.02c-0.19,0-0.39,0.01-0.59,0.04c-7.25,1.07-15.63,2.05-24.91,2.91c-2.2,0.2-3.82,2.15-3.61,4.35
							c0.2,2.2,2.15,3.82,4.35,3.61c9.42-0.88,17.94-1.87,25.34-2.96c2.19-0.32,3.7-2.35,3.37-4.54
							C129.28,9.46,127.57,8.02,125.62,8.02z"/>
					</g>
				</g>
			</g>
		</g>
	</g>
</symbol>
<g>
	
		<use xlink:href="#UK"  width="608" height="608" id="XMLID_4_" x="-304" y="-304" transform="matrix(0.279 0 0 -0.279 84.8077 84.8078)" style="overflow:visible;"/>
	<g>
		<g>
			<path d="M197.23,41.81l-0.97-15.25h3.53l0.92,15.25c0.42,6.09,3.4,9.54,8.61,9.54c5.08,0,8.02-3.44,8.4-9.54l0.97-15.25h3.36
				l-0.92,15.25c-0.5,8.19-4.71,12.9-12.14,12.9C201.77,54.7,197.69,50,197.23,41.81z"/>
			<path d="M228.48,26.56h1.68l19.32,21.13V26.56h3.36v27.72h-1.68l-19.32-21.13v21.13h-3.36V26.56z"/>
			<path d="M259.98,26.56h3.36v27.72h-3.36V26.56z"/>
			<path d="M295.05,26.56l-13.27,27.72h-1.68l-13.19-27.72h3.86l10.25,22.1l10.33-22.1H295.05z"/>
			<path d="M314.54,51.26v3.02h-15.92V26.56h14.66v3.02h-11.3v9.33h11.3v3.02h-11.3v9.33H314.54z"/>
			<path d="M341.8,52.43l-2.02,2.52l-15.63-12.56v11.89h-3.36V26.56h9.2c5.67,0,9.28,2.98,9.28,7.69c0,4.96-3.91,8.11-10.04,8.15
				L341.8,52.43z M324.16,39.54h5.29c3.86,0,6.3-2.02,6.3-5.12c0-3.07-2.44-5-6.3-5h-5.29V39.54z"/>
			<path d="M362.93,28.24l-14.58,23.02h14.58v3.02h-18.99V52.6l14.53-23.02h-13.61v-3.02h18.06V28.24z"/>
			<path d="M368.3,26.56h3.36v27.72h-3.36V26.56z"/>
			<path d="M395.31,29.58h-7.98v24.7h-3.36v-24.7h-8.02v-3.02h19.37V29.58z"/>
			<path d="M415.17,45.54h-13.9l-4.37,8.74h-3.53l14.11-27.72h1.68l14.03,27.72h-3.7L415.17,45.54z M413.66,42.52l-5.42-10.92
				l-5.46,10.92H413.66z"/>
			<path d="M216.81,98l-16.47-13.48v12.77h-3.36V69.56h3.36V83l13.4-13.44h4.28l-13.99,13.9l14.79,12.01L216.81,98z"/>
			<path d="M219.95,83.55c0-8.36,6.22-14.41,14.7-14.41c8.44,0,14.49,5.96,14.49,14.16c0,8.36-6.22,14.41-14.74,14.41
				C226,97.7,219.95,91.74,219.95,83.55z M245.62,83.88c0-6.89-4.79-11.89-11.43-11.89c-6.22,0-10.75,4.62-10.75,10.96
				c0,6.85,4.83,11.89,11.43,11.89C241.13,94.84,245.62,90.22,245.62,83.88z"/>
			<path d="M285.77,97.28l-5.21-21.13l-9.33,21.13h-1.68l-9.33-20.88l-5.21,20.88h-3.49l7.48-27.72h1.68l9.87,21.68l9.75-21.68h1.68
				l7.48,27.72H285.77z"/>
			<path d="M310.13,94.26v3.02h-15.92V69.56h14.66v3.02h-11.3v9.33h11.3v3.02h-11.3v9.33H310.13z"/>
			<path d="M316.39,69.56h1.68l19.32,21.13V69.56h3.36v27.72h-1.68l-19.32-21.13v21.13h-3.36V69.56z"/>
			<path d="M346.12,92.32c2.31,1.64,4.75,2.35,7.23,2.35c3.36,0,5.29-1.68,5.29-3.95c0-5.76-12.1-6.76-12.1-14.45
				c0-4.2,3.78-7.14,8.99-7.14c2.1,0,4.07,0.38,5.8,1.09v3.61c-1.64-1.05-3.91-1.68-6.05-1.68c-3.32,0-5.25,1.68-5.25,3.65
				c0,5.59,12.14,6.81,12.14,14.79c0,4.24-3.61,7.1-9.28,7.1c-2.65,0-5.08-0.67-6.81-1.6L346.12,92.32z"/>
			<path d="M387.37,98L370.9,84.51v12.77h-3.36V69.56h3.36V83l13.4-13.44h4.28l-13.99,13.9l14.79,12.01L387.37,98z"/>
			<path d="M409,94.26v3.02h-15.92V69.56h14.66v3.02h-11.3v9.33h11.3v3.02h-11.3v9.33H409z M401.81,66.91h-2.1l2.73-6.72h3.7
				L401.81,66.91z"/>
			<path d="M438.36,69.56v27.72H435V84.93h-16.38v12.35h-3.36V69.56h3.36v12.35H435V69.56H438.36z"/>
			<path d="M443.73,83.55c0-8.36,6.22-14.41,14.7-14.41c8.44,0,14.49,5.96,14.49,14.16c0,8.36-6.22,14.41-14.74,14.41
				C449.78,97.7,443.73,91.74,443.73,83.55z M469.39,83.88c0-6.89-4.79-11.89-11.43-11.89c-6.22,0-10.75,4.62-10.75,10.96
				c0,6.85,4.83,11.89,11.43,11.89C464.9,94.84,469.39,90.22,469.39,83.88z"/>
			<path d="M221.55,112.56l-13.27,27.72h-1.68l-13.19-27.72h3.86l10.25,22.1l10.33-22.1H221.55z"/>
			<path d="M252.42,132.64c0,4.66-3.82,7.65-9.7,7.65h-8.65v-27.72h7.39c5.59,0,9.16,2.77,9.16,7.1c0,2.9-1.55,5.12-4.2,6.18
				C250.16,126.76,252.42,129.19,252.42,132.64z M237.43,115.41v9.66h4.24c3.32,0,5.42-1.89,5.42-4.79c0-2.98-2.27-4.87-5.84-4.87
				H237.43z M248.89,132.72c0-3.02-2.48-4.96-6.26-4.96h-5.21v9.66h5.84C246.63,137.42,248.89,135.58,248.89,132.72z"/>
			<path d="M278.17,138.43l-2.02,2.52l-15.63-12.56v11.89h-3.36v-27.72h9.2c5.67,0,9.28,2.98,9.28,7.69c0,4.96-3.91,8.11-10.04,8.15
				L278.17,138.43z M260.53,125.54h5.29c3.86,0,6.3-2.02,6.3-5.12c0-3.07-2.44-5-6.3-5h-5.29V125.54z"/>
			<path d="M300.85,131.54h-13.9l-4.37,8.74h-3.53l14.11-27.72h1.68l14.03,27.72h-3.7L300.85,131.54z M299.34,128.52l-5.42-10.92
				l-5.46,10.92H299.34z"/>
			<path d="M326.3,115.58h-7.98v24.7h-3.36v-24.7h-8.02v-3.02h19.37V115.58z"/>
			<path d="M330.58,112.56h3.36v27.72h-3.36V112.56z"/>
			<path d="M339.32,135.32c2.31,1.64,4.75,2.35,7.23,2.35c3.36,0,5.29-1.68,5.29-3.95c0-5.76-12.1-6.76-12.1-14.45
				c0-4.2,3.78-7.14,8.99-7.14c2.1,0,4.07,0.38,5.8,1.09v3.61c-1.64-1.05-3.91-1.68-6.05-1.68c-3.32,0-5.25,1.68-5.25,3.65
				c0,5.59,12.14,6.81,12.14,14.79c0,4.24-3.61,7.1-9.28,7.1c-2.65,0-5.08-0.67-6.81-1.6L339.32,135.32z"/>
			<path d="M375.14,137.26v3.02h-14.41v-27.72h3.36v24.7H375.14z"/>
			<path d="M397.83,131.54h-13.9l-4.37,8.74h-3.53l14.11-27.72h1.68l14.03,27.72h-3.7L397.83,131.54z M396.31,128.52l-5.42-10.92
				l-5.46,10.92H396.31z"/>
			<path d="M431.51,112.56l-13.27,27.72h-1.68l-13.19-27.72h3.86l10.25,22.1l10.33-22.1H431.51z"/>
			<path d="M451,137.26v3.02h-15.92v-27.72h14.66v3.02h-11.3v9.33h11.3v3.02h-11.3v9.33H451z"/>
		</g>
	</g>
</g>
</svg>
