<?xml version="1.0" encoding="UTF-8"?>
<svg width="208px" height="47px" viewBox="0 0 208 47" version="1.1" xmlns="http://www.w3.org/2000/svg" xmlns:xlink="http://www.w3.org/1999/xlink">
    <title>svg/yum-logo</title>
    <g id="Symbols" stroke="none" stroke-width="1" fill="none" fill-rule="evenodd">
        <g id="navigation/default/desktop" transform="translate(-616.000000, -19.000000)" fill-rule="nonzero">
            <g id="yumearth-logo-unofficial" transform="translate(616.000000, 19.000000)">
                <path d="M6.56474359,45.3885714 L6.56474359,30.4828571 C6.56474359,29.8114286 0.133974359,1.34285714 0.133974359,1.34285714 C3.46944695e-16,0.671428571 0.133974359,0 0.937820513,0 L5.225,0 C6.43076923,0 6.43076923,0.268571429 6.69871795,1.34285714 L9.64615385,15.98 C9.64615385,16.3828571 10.1820513,16.3828571 10.1820513,15.98 L13.2634615,1.34285714 C13.5314103,0.268571429 13.3974359,0 14.7371795,0 L18.7564103,0 C20.0961538,0 19.9621795,0.671428571 19.8282051,1.34285714 C19.8282051,1.34285714 13.1294872,29.8114286 13.1294872,30.4828571 L13.1294872,45.3885714 C13.1294872,46.7314286 12.4596154,46.7314286 11.7897436,46.7314286 L7.77051282,46.7314286 C7.23461538,46.7314286 6.56474359,46.7314286 6.56474359,45.3885714 Z" id="Y" fill="#93D500"></path>
                <path d="M39.6564103,3.49142857 L43.4076923,3.49142857 C44.3455128,3.49142857 44.6134615,3.76 44.6134615,4.7 L44.6134615,34.3771429 C44.6134615,43.6428571 41.5320513,46.7314286 35.3692308,46.7314286 C29.2064103,46.7314286 26.125,43.6428571 26.125,34.3771429 L26.125,4.7 C26.125,3.76 26.3929487,3.49142857 27.3307692,3.49142857 L31.0820513,3.49142857 C32.0198718,3.49142857 32.2878205,3.76 32.2878205,4.7 L32.2878205,34.9142857 C32.2878205,38.0028571 32.2878205,41.2257143 35.3692308,41.2257143 C38.450641,41.2257143 38.450641,38.1371429 38.450641,34.9142857 L38.450641,4.7 C38.450641,3.76 38.7185897,3.49142857 39.6564103,3.49142857 Z" id="U" fill="#93D500"></path>
                <path d="M72.7480769,46.7314286 C71.9442308,46.7314286 71.5423077,46.4628571 71.5423077,45.5228571 L71.5423077,31.8257143 C71.5423077,31.5571429 71.274359,31.5571429 71.1403846,31.8257143 L67.925,45.7914286 C67.6570513,46.5971429 67.1211538,46.5971429 66.4512821,46.5971429 L64.0397436,46.5971429 C63.3698718,46.5971429 62.9679487,46.5971429 62.7,45.7914286 L59.4846154,31.8257143 C59.4846154,31.5571429 59.0826923,31.5571429 59.0826923,31.8257143 L59.0826923,45.3885714 C59.0826923,46.3285714 58.8147436,46.5971429 57.8769231,46.5971429 L54.125641,46.5971429 C53.1878205,46.5971429 52.9198718,46.3285714 52.9198718,45.3885714 L52.9198718,4.7 C52.9198718,3.76 53.1878205,3.49142857 54.125641,3.49142857 L57.6089744,3.49142857 C58.4128205,3.49142857 58.6807692,3.62571429 58.8147436,4.29714286 L65.1115385,29.5428571 C65.1115385,29.8114286 65.5134615,29.8114286 65.6474359,29.5428571 L71.9442308,4.02857143 C72.0782051,3.62571429 72.4801282,3.35714286 73.15,3.35714286 L76.499359,3.35714286 C77.4371795,3.35714286 77.7051282,3.62571429 77.7051282,4.56571429 L77.7051282,45.3885714 C77.7051282,46.3285714 77.3032051,46.5971429 76.499359,46.5971429 L72.7480769,46.5971429 L72.7480769,46.7314286 Z" id="M" fill="#93D500"></path>
                <path d="M86.5474359,45.3885714 L86.5474359,1.34285714 C86.5474359,0.402857143 86.8153846,0 87.8871795,0 L101.954487,0 C102.892308,0 103.294231,0.268571429 103.294231,1.34285714 L103.294231,4.96857143 C103.294231,5.90857143 103.026282,6.31142857 101.954487,6.31142857 L94.5858974,6.31142857 C93.2461538,6.31142857 93.2461538,6.31142857 93.2461538,7.65428571 L93.2461538,17.5914286 C93.2461538,18.9342857 93.2461538,18.9342857 94.5858974,18.9342857 L101.954487,18.9342857 C102.892308,18.9342857 103.294231,19.2028571 103.294231,20.2771429 L103.294231,23.9028571 C103.294231,24.8428571 103.026282,25.2457143 101.954487,25.2457143 L94.5858974,25.2457143 C93.2461538,25.2457143 93.2461538,25.2457143 93.2461538,26.5885714 L93.2461538,39.0771429 C93.2461538,40.42 93.2461538,40.42 94.5858974,40.42 L101.954487,40.42 C102.892308,40.42 103.294231,40.6885714 103.294231,41.7628571 L103.294231,45.3885714 C103.294231,46.3285714 103.026282,46.7314286 101.954487,46.7314286 L87.8871795,46.7314286 C87.2173077,46.7314286 86.5474359,46.7314286 86.5474359,45.3885714 Z" id="E" fill="#00B2BF"></path>
                <path d="M126.605769,46.7314286 C125.801923,46.7314286 125.4,46.7314286 125.266026,45.7914286 L124.730128,42.4342857 C124.462179,41.2257143 124.462179,41.2257143 123.390385,41.2257143 L117.897436,41.2257143 C116.691667,41.2257143 116.691667,41.2257143 116.423718,42.4342857 L115.887821,45.7914286 C115.753846,46.7314286 115.351923,46.7314286 114.548077,46.7314286 L110.796795,46.7314286 C110.126923,46.7314286 109.591026,46.7314286 109.725,45.6571429 L117.495513,4.02857143 C117.629487,3.08857143 117.897436,2.95428571 118.835256,2.95428571 L122.184615,2.95428571 C123.122436,2.95428571 123.390385,3.08857143 123.524359,4.02857143 L131.428846,45.6571429 C131.562821,46.7314286 131.026923,46.7314286 130.357051,46.7314286 L126.605769,46.7314286 Z M117.763462,33.9742857 C117.629487,35.1828571 117.629487,35.1828571 118.835256,35.1828571 L122.31859,35.1828571 C123.524359,35.1828571 123.524359,35.1828571 123.390385,33.9742857 L120.710897,18.8 C120.710897,18.5314286 120.308974,18.5314286 120.175,18.8 L117.763462,33.9742857 Z" id="A" fill="#00B2BF"></path>
                <path d="M152.730769,28.7371429 L155.946154,45.3885714 C156.080128,46.3285714 155.678205,46.7314286 155.142308,46.7314286 L151.257051,46.7314286 C150.453205,46.7314286 150.051282,46.7314286 149.917308,45.7914286 L146.969872,30.4828571 L144.960256,30.4828571 C143.754487,30.4828571 143.754487,30.4828571 143.754487,31.6914286 L143.754487,45.5228571 C143.754487,46.7314286 143.084615,46.7314286 142.548718,46.7314286 L138.797436,46.7314286 C138.127564,46.7314286 137.591667,46.7314286 137.591667,45.5228571 L137.591667,4.16285714 C137.591667,3.22285714 137.859615,2.95428571 138.797436,2.95428571 L146.835897,2.95428571 C153.132692,2.95428571 156.214103,6.04285714 156.214103,15.4428571 L156.214103,17.86 C156.080128,23.5 154.874359,26.9914286 152.730769,28.7371429 Z M143.620513,23.5 C143.620513,24.7085714 143.620513,24.7085714 144.826282,24.7085714 L146.701923,24.7085714 C149.783333,24.7085714 149.783333,21.4857143 149.783333,18.3971429 L149.783333,14.7714286 C149.783333,11.5485714 149.783333,8.46 146.701923,8.46 L144.826282,8.46 C143.620513,8.46 143.620513,8.46 143.620513,9.66857143 L143.620513,23.5 Z" id="R" fill="#00B2BF"></path>
                <path d="M161.975,2.95428571 L178.185897,2.95428571 C179.123718,2.95428571 179.391667,3.22285714 179.391667,4.16285714 L179.391667,7.52 C179.391667,8.46 179.123718,8.72857143 178.185897,8.72857143 L174.434615,8.72857143 C173.228846,8.72857143 173.228846,8.72857143 173.228846,9.93714286 L173.228846,45.2542857 C173.228846,46.4628571 172.558974,46.4628571 172.023077,46.4628571 L168.271795,46.4628571 C167.601923,46.4628571 167.066026,46.4628571 167.066026,45.2542857 L167.066026,10.0714286 C167.066026,8.86285714 167.066026,8.86285714 165.860256,8.86285714 L162.108974,8.86285714 C160.903205,8.86285714 160.903205,8.19142857 160.903205,7.65428571 L160.903205,4.16285714 C160.769231,3.62571429 160.769231,2.95428571 161.975,2.95428571 Z" id="T" fill="#00B2BF"></path>
                <path d="M197.880128,45.3885714 L197.880128,27.7971429 C197.880128,26.5885714 197.880128,26.5885714 196.674359,26.5885714 L192.923077,26.5885714 C191.717308,26.5885714 191.717308,26.5885714 191.717308,27.7971429 L191.717308,45.3885714 C191.717308,46.5971429 191.047436,46.5971429 190.511538,46.5971429 L186.760256,46.5971429 C186.090385,46.5971429 185.554487,46.5971429 185.554487,45.3885714 L185.554487,4.16285714 C185.554487,3.22285714 185.822436,2.95428571 186.760256,2.95428571 L190.511538,2.95428571 C191.449359,2.95428571 191.717308,3.22285714 191.717308,4.16285714 L191.717308,19.4714286 C191.717308,20.68 191.717308,20.68 192.923077,20.68 L196.674359,20.68 C197.880128,20.68 197.880128,20.68 197.880128,19.4714286 L197.880128,4.16285714 C197.880128,3.22285714 198.148077,2.95428571 199.085897,2.95428571 L202.837179,2.95428571 C203.775,2.95428571 204.042949,3.22285714 204.042949,4.16285714 L204.042949,45.3885714 C204.042949,46.5971429 203.373077,46.5971429 202.837179,46.5971429 L199.085897,46.5971429 C198.416026,46.7314286 197.880128,46.7314286 197.880128,45.3885714 Z" id="H" fill="#00B2BF"></path>
                <g id="R_1_" transform="translate(204.980769, 2.685714)" fill="#00B2BF">
                    <path d="M2.9474359,1.74571429 C2.9474359,2.41714286 2.41153846,2.95428571 1.74166667,2.95428571 C1.07179487,2.95428571 0.535897436,2.41714286 0.535897436,1.74571429 C0.535897436,1.07428571 1.07179487,0.537142857 1.74166667,0.537142857 C2.54551282,0.537142857 2.9474359,1.07428571 2.9474359,1.74571429 Z M0.937820513,1.74571429 C0.937820513,2.28285714 1.33974359,2.68571429 1.87564103,2.68571429 C2.41153846,2.68571429 2.81346154,2.28285714 2.81346154,1.74571429 C2.81346154,1.20857143 2.41153846,0.805714286 1.87564103,0.805714286 C1.33974359,0.805714286 0.937820513,1.20857143 0.937820513,1.74571429 Z M1.60769231,2.41714286 L1.33974359,2.41714286 L1.33974359,1.20857143 C1.47371795,1.20857143 1.60769231,1.20857143 1.74166667,1.20857143 C2.00961538,1.20857143 2.00961538,1.20857143 2.14358974,1.34285714 C2.2775641,1.34285714 2.2775641,1.47714286 2.2775641,1.61142857 C2.2775641,1.74571429 2.14358974,1.88 2.00961538,1.88 L2.00961538,1.88 C2.14358974,1.88 2.14358974,2.01428571 2.2775641,2.14857143 C2.2775641,2.28285714 2.2775641,2.41714286 2.41153846,2.41714286 L2.14358974,2.41714286 C2.14358974,2.41714286 2.14358974,2.28285714 2.00961538,2.14857143 C2.00961538,2.01428571 1.87564103,2.01428571 1.74166667,2.01428571 L1.60769231,2.01428571 L1.60769231,2.41714286 L1.60769231,2.41714286 Z M1.60769231,1.74571429 L1.60769231,1.74571429 C1.87564103,1.74571429 2.00961538,1.74571429 2.00961538,1.61142857 C2.00961538,1.47714286 1.87564103,1.47714286 1.74166667,1.47714286 C1.60769231,1.47714286 1.60769231,1.47714286 1.60769231,1.47714286 L1.60769231,1.74571429 L1.60769231,1.74571429 Z" id="Shape"></path>
                </g>
            </g>
        </g>
    </g>
</svg>